SplineFontDB: 3.2
FontName: Unageo-Variable
FullName: Unageo Variable
FamilyName: Unageo
Weight: Variable
Copyright: Copyright 2023 The Unageo Project Authors (https://github.com/RichardSepsi/Unageo)
UComments: "2023-12-24: Created with FontForge (http://fontforge.org)"
Version: 2.0
ItalicAngle: 0
UnderlinePosition: -100
UnderlineWidth: 50
Ascent: 800
Descent: 200
InvalidEm: 0
LayerCount: 2
Layer: 0 0 "Back" 1
Layer: 1 0 "Fore" 0
XUID: [1021 442 -170519175 30473]
FSType: 0
OS2Version: 0
OS2_WeightWidthSlopeOnly: 0
OS2_UseTypoMetrics: 1
CreationTime: 1703449507
ModificationTime: 1705142994
PfmFamily: 33
TTFWeight: 900
TTFWidth: 5
LineGap: 90
VLineGap: 0
OS2TypoAscent: 950
OS2TypoAOffset: 0
OS2TypoDescent: -250
OS2TypoDOffset: 0
OS2TypoLinegap: 90
OS2WinAscent: 1010
OS2WinAOffset: 0
OS2WinDescent: 220
OS2WinDOffset: 0
HheadAscent: 950
HheadAOffset: 0
HheadDescent: -250
HheadDOffset: 0
OS2CapHeight: 700
OS2XHeight: 500
OS2Vendor: 'PfEd'
MarkAttachClasses: 1
DEI: 91125
LangName: 1033 "" "" "" "" "" "" "" "" "Richard Sepsi" "Richard Sepsi" "" "" "" "This Font Software is licensed under the SIL Open Font License, Version 1.1. This license is available with a FAQ at: https://scripts.sil.org/OFL" "http://scripts.sil.org/OFL" "" "Unageo" "Variable"
GaspTable: 1 65535 15 1
Encoding: UnicodeBmp
UnicodeInterp: none
NameList: AGL For New Fonts
DisplaySize: -48
AntiAlias: 1
FitToEm: 0
WinInfo: 57 19 14
BeginPrivate: 7
BlueValues 23 [-12 0 500 512 700 712]
OtherBlues 11 [-200 -200]
BlueShift 1 7
StdHW 5 [170]
StdVW 5 [170]
StemSnapH 5 [170]
StemSnapV 5 [170]
EndPrivate
TeXData: 1 0 0 346030 173015 115343 524288 1048576 115343 783286 444596 497025 792723 393216 433062 380633 303038 157286 324010 404750 52429 2506097 1059062 262144
BeginChars: 65536 736

StartChar: A
Encoding: 65 65 0
GlifName: A_
Width: 695
Flags: W
HStem: 0 21G<10 199.892 500.914 685> 93 170<321 451> 680 20G<350.971 544.143>
LayerCount: 2
Fore
SplineSet
321 263 m 1
 451 263 l 1
 413 446 l 1
 321 263 l 1
236 93 m 1
 190 0 l 1
 10 0 l 1
 361 700 l 1
 540 700 l 1
 685 0 l 1
 505 0 l 1
 486 93 l 1
 236 93 l 1
EndSplineSet
EndChar

StartChar: B
Encoding: 66 66 1
GlifName: B_
Width: 618
Flags: W
HStem: 0 170<260 437.338> 278 170<304 430.482> 530 170<317 439.576>
LayerCount: 2
Fore
SplineSet
277 278 m 1
 260 170 l 1
 384 170 l 2
 402 170 419 175 432 185 c 0
 445 195 453 208 456 224 c 0
 459 240 454 253 444 263 c 0
 434 273 419 278 401 278 c 2
 277 278 l 1
317 530 m 1
 304 448 l 1
 389 448 l 2
 406 448 420 452 431 459 c 0
 442 466 448 476 450 489 c 0
 452 502 449 512 440 519 c 0
 431 526 419 530 402 530 c 2
 317 530 l 1
174 700 m 1
 449 700 l 2
 506 700 550 680 584 640 c 0
 618 600 630 552 621 495 c 0
 615 456 598 419 572 386 c 1
 594 365 609 340 618 311 c 0
 627 282 630 250 625 218 c 0
 615 158 585 107 536 64 c 0
 487 21 432 0 372 0 c 2
 63 0 l 1
 174 700 l 1
EndSplineSet
EndChar

StartChar: C
Encoding: 67 67 2
GlifName: C_
Width: 664
Flags: W
HStem: -12 170<328.115 506.999> 542 170<385.145 561.563>
LayerCount: 2
Fore
SplineSet
502 712 m 0
 551 712 597 702 638 683 c 0
 679 664 714 638 742 605 c 1
 603 485 l 1
 571 523 529 542 476 542 c 0
 423 542 374 523 331 485 c 0
 288 447 261 403 253 350 c 0
 245 297 256 252 288 214 c 0
 320 176 362 158 415 158 c 0
 468 158 516 177 559 214 c 1
 660 94 l 1
 621 61 579 35 532 16 c 0
 485 -3 437 -12 388 -12 c 0
 285 -12 204 24 145 97 c 0
 88 167 67 252 83 350 c 0
 99 448 146 532 225 602 c 0
 307 675 399 712 502 712 c 0
EndSplineSet
EndChar

StartChar: D
Encoding: 68 68 3
GlifName: D_
Width: 713
Flags: W
HStem: 0 170<260 452.201> 530 170<317 502.519>
LayerCount: 2
Fore
SplineSet
419 530 m 2
 317 530 l 1
 260 170 l 1
 362 170 l 2
 412 170 457 187 498 222 c 0
 539 257 562 300 570 350 c 0
 578 400 567 443 538 478 c 0
 509 513 469 530 419 530 c 2
446 700 m 2
 543 700 619 666 677 598 c 0
 735 530 755 447 740 350 c 0
 725 253 678 170 599 102 c 0
 520 34 432 0 335 0 c 2
 63 0 l 1
 174 700 l 1
 446 700 l 2
EndSplineSet
EndChar

StartChar: E
Encoding: 69 69 4
GlifName: E_
Width: 592
Flags: W
HStem: 0 170<260 539> 266 169<302 510> 530 170<317 622>
LayerCount: 2
Fore
SplineSet
63 0 m 1
 174 700 l 1
 649 700 l 1
 622 530 l 1
 317 530 l 1
 302 435 l 1
 537 435 l 1
 510 266 l 1
 275 266 l 1
 260 170 l 1
 566 170 l 1
 539 0 l 1
 63 0 l 1
EndSplineSet
EndChar

StartChar: F
Encoding: 70 70 5
GlifName: F_
Width: 570
Flags: W
HStem: 0 21G<63 236.178> 258 170<301 514> 530 170<317 626>
VStem: 63 170<0 170>
LayerCount: 2
Fore
SplineSet
63 0 m 1
 174 700 l 1
 653 700 l 1
 626 530 l 1
 317 530 l 1
 301 428 l 1
 541 428 l 1
 514 258 l 1
 274 258 l 1
 233 0 l 1
 63 0 l 1
EndSplineSet
EndChar

StartChar: G
Encoding: 71 71 6
GlifName: G_
Width: 770
Flags: W
HStem: -12 170<329.541 506.501> 264 170<456 604> 542 170<384.833 561.468>
LayerCount: 2
Fore
SplineSet
503 712 m 0
 551 712 596 702 637 684 c 0
 678 666 713 639 742 605 c 1
 603 485 l 1
 571 523 529 542 476 542 c 0
 423 542 374 522 331 485 c 0
 288 448 261 403 253 350 c 0
 245 297 256 251 288 214 c 0
 320 177 362 158 415 158 c 0
 468 158 516 177 559 214 c 0
 576 229 591 245 604 264 c 1
 429 264 l 1
 456 434 l 1
 821 434 l 1
 807 350 l 2
 791 251 743 165 660 94 c 0
 621 60 578 33 531 15 c 0
 484 -3 436 -12 388 -12 c 0
 287 -12 206 23 147 94 c 0
 88 164 67 250 83 350 c 0
 99 451 149 536 231 607 c 0
 312 677 403 712 503 712 c 0
EndSplineSet
EndChar

StartChar: H
Encoding: 72 72 7
GlifName: H_
Width: 734
Flags: W
HStem: 0 21G<63 236.173 501 674.171> 271 170<303 544> 681 20G<170.833 344 608.834 782>
VStem: 63 170<0 170> 174 170<531 701> 501 170<0 170> 612 170<530 700>
LayerCount: 2
Fore
SplineSet
63 0 m 1xf4
 174 701 l 1
 344 701 l 1
 303 441 l 1
 571 441 l 1
 612 700 l 1
 782 700 l 1xea
 671 0 l 1
 501 0 l 1
 544 271 l 1
 276 271 l 1
 233 0 l 1
 63 0 l 1xf4
EndSplineSet
EndChar

StartChar: I
Encoding: 73 73 8
GlifName: I_
Width: 296
Flags: W
HStem: 0 21G<63 236.171> 680 20G<170.829 344>
VStem: 63 170<0 170> 174 170<530 700>
LayerCount: 2
Fore
SplineSet
63 0 m 1xe0
 174 700 l 1
 344 700 l 1xd0
 233 0 l 1
 63 0 l 1xe0
EndSplineSet
EndChar

StartChar: J
Encoding: 74 74 9
GlifName: J_
Width: 467
Flags: W
HStem: -16 170<137.704 253.676> 680 20G<351.84 525>
VStem: 355 170<530 700>
LayerCount: 2
Fore
SplineSet
355 700 m 1
 525 700 l 1
 449 219 l 2
 439 154 407 99 354 53 c 0
 301 7 241 -16 176 -16 c 0
 111 -16 60 7 22 53 c 1
 161 173 l 1
 172 160 185 154 203 154 c 0
 221 154 237 160 252 173 c 0
 267 186 276 201 279 219 c 2
 355 700 l 1
EndSplineSet
EndChar

StartChar: K
Encoding: 75 75 10
GlifName: K_
Width: 684
Flags: W
HStem: 0 21G<63 236.116 454.349 671> 680 20G<170.829 344 519.254 760>
VStem: 63 170<0 170> 174 170<530 700>
LayerCount: 2
Fore
SplineSet
63 0 m 1xe0
 174 700 l 1
 344 700 l 1xd0
 306 464 l 1
 539 700 l 1
 760 700 l 1
 460 397 l 1
 671 0 l 1
 465 0 l 1
 326 261 l 1
 264 199 l 1
 233 0 l 1
 63 0 l 1xe0
EndSplineSet
EndChar

StartChar: L
Encoding: 76 76 11
GlifName: L_
Width: 559
Flags: W
HStem: 0 170<260 536> 680 20G<170.829 344>
VStem: 174 170<530 700>
LayerCount: 2
Fore
SplineSet
63 0 m 1
 174 700 l 1
 344 700 l 1
 260 170 l 1
 563 170 l 1
 536 0 l 1
 63 0 l 1
EndSplineSet
EndChar

StartChar: M
Encoding: 77 77 12
GlifName: M_
Width: 833
Flags: W
HStem: 0 21G<13 190.831 648 820.486> 680 20G<212.143 410.15 638.499 837>
VStem: 13 172<0 172> 648 172<0 266.778>
LayerCount: 2
Fore
SplineSet
218 700 m 1
 407 700 l 1
 467 319 l 1
 648 700 l 1
 837 700 l 1
 820 0 l 1
 648 0 l 1
 657 343 l 1
 512 38 l 1
 333 38 l 1
 285 343 l 1
 185 0 l 1
 13 0 l 1
 218 700 l 1
EndSplineSet
EndChar

StartChar: N
Encoding: 78 78 13
GlifName: N_
Width: 719
Flags: W
HStem: 0 21G<63 236.188 476.18 659.171> 680 20G<170.829 353.82 593.812 767>
VStem: 63 170<0 170> 597 170<530 700>
LayerCount: 2
Fore
SplineSet
174 700 m 1
 344 700 l 1
 535 311 l 1
 597 700 l 1
 767 700 l 1
 656 0 l 1
 486 0 l 1
 295 389 l 1
 233 0 l 1
 63 0 l 1
 174 700 l 1
EndSplineSet
EndChar

StartChar: O
Encoding: 79 79 14
GlifName: O_
Width: 780
Flags: W
HStem: -12 170<328.415 508.25> 542 170<384.224 560.858>
LayerCount: 2
Fore
SplineSet
476 542 m 0
 423 542 374 523 331 485 c 0
 288 447 261 403 253 350 c 0
 245 297 256 252 288 214 c 0
 320 176 362 158 415 158 c 0
 468 158 517 176 560 214 c 0
 603 252 629 297 637 350 c 0
 645 403 635 447 603 485 c 0
 571 523 529 542 476 542 c 0
503 712 m 4
 602 712 681 677 740 608 c 0
 801 537 823 452 807 350 c 0
 791 247 741 159 656 88 c 0
 575 21 486 -12 388 -12 c 0
 286 -12 206 23 147 95 c 0
 89 165 67 251 83 350 c 0
 99 449 148 534 228 604 c 0
 310 676 402 712 503 712 c 4
EndSplineSet
EndChar

StartChar: P
Encoding: 80 80 15
GlifName: P_
Width: 604
Flags: W
HStem: 0 21G<63 236.143> 210 170<293 466.052> 530 170<317 483.388>
VStem: 63 170<0 170>
LayerCount: 2
Fore
SplineSet
317 530 m 1
 293 380 l 1
 411 380 l 2
 431 380 450 387 467 402 c 0
 484 417 495 435 498 455 c 0
 501 475 497 493 484 508 c 0
 471 523 455 530 435 530 c 2
 317 530 l 1
174 700 m 1
 462 700 l 2
 529 700 583 676 623 628 c 0
 663 580 679 522 668 455 c 0
 657 388 625 330 569 282 c 0
 513 234 451 210 384 210 c 2
 266 210 l 1
 233 0 l 1
 63 0 l 1
 174 700 l 1
EndSplineSet
EndChar

StartChar: Q
Encoding: 81 81 16
GlifName: Q_
Width: 780
Flags: W
HStem: -12 170<328.115 477.981> 542 170<384.224 560.611>
LayerCount: 2
Fore
SplineSet
476 542 m 0
 423 542 374 523 331 485 c 0
 288 447 261 403 253 350 c 0
 245 297 256 252 288 214 c 0
 320 176 362 158 415 158 c 0
 437 158 459 161 479 167 c 1
 433 221 l 1
 573 341 l 1
 618 287 l 1
 628 306 634 328 637 350 c 0
 645 403 635 447 603 485 c 0
 571 523 529 542 476 542 c 0
503 712 m 0
 601 712 680 678 739 610 c 0
 801 539 823 453 807 350 c 0
 796 279 769 216 725 160 c 1
 769 108 l 1
 630 -12 l 1
 586 40 l 1
 525 5 458 -12 388 -12 c 0
 285 -12 204 24 145 97 c 0
 88 167 67 252 83 350 c 0
 99 449 148 534 228 604 c 0
 310 676 402 712 503 712 c 0
EndSplineSet
EndChar

StartChar: R
Encoding: 82 82 17
GlifName: R_
Width: 614
Flags: W
HStem: 0 21G<63 236.143 410.905 596> 530 170<317 483.388>
VStem: 63 170<0 170> 415 181<0 181>
LayerCount: 2
Fore
SplineSet
317 530 m 1
 293 380 l 1
 411 380 l 2
 431 380 450 387 467 402 c 0
 484 417 495 435 498 455 c 0
 501 475 497 493 484 508 c 0
 471 523 455 530 435 530 c 2
 317 530 l 1
174 700 m 1
 462 700 l 2
 529 700 583 676 623 628 c 0
 663 580 679 522 668 455 c 0
 662 416 647 380 625 346 c 0
 603 312 575 284 542 261 c 1
 596 0 l 1
 415 0 l 1
 372 210 l 1
 266 210 l 1
 233 0 l 1
 63 0 l 1
 174 700 l 1
EndSplineSet
EndChar

StartChar: S
Encoding: 83 83 18
GlifName: S_
Width: 560
Flags: W
HStem: -12 170<240.175 367.747> 508 21G<418.5 496.727> 542 170<300.89 407.572>
LayerCount: 2
Fore
SplineSet
389 712 m 0
 443 712 488 697 526 667 c 0
 564 637 585 599 590 552 c 1
 419 508 l 1
 418 518 413 527 402 533 c 0
 391 539 378 542 362 542 c 0
 343 542 327 538 313 530 c 0
 299 522 291 511 289 496 c 0
 287 486 291 477 300 470 c 0
 312 460 332 453 361 448 c 0
 429 436 482 411 520 373 c 0
 558 335 572 284 562 219 c 0
 552 154 518 98 462 54 c 0
 406 10 343 -12 274 -12 c 0
 217 -12 167 4 127 36 c 0
 87 68 63 109 58 159 c 1
 229 203 l 1
 230 190 238 179 252 171 c 0
 266 163 282 158 301 158 c 0
 324 158 344 163 361 174 c 0
 378 185 389 200 392 219 c 0
 394 234 390 247 378 257 c 0
 364 269 340 278 307 284 c 0
 244 295 194 319 158 354 c 0
 122 389 109 436 119 496 c 0
 129 557 159 609 212 650 c 0
 265 691 324 712 389 712 c 0
EndSplineSet
EndChar

StartChar: T
Encoding: 84 84 19
GlifName: T_
Width: 621
Flags: W
HStem: 0 21G<226 399.132> 530 170<131 309 479 685>
VStem: 226 170<0 170>
LayerCount: 2
Fore
SplineSet
131 700 m 1
 712 700 l 1
 685 530 l 1
 479 530 l 1
 396 0 l 1
 226 0 l 1
 309 530 l 1
 104 530 l 1
 131 700 l 1
EndSplineSet
EndChar

StartChar: U
Encoding: 85 85 20
GlifName: U_
Width: 706
Flags: W
HStem: -12 170<312.555 449.544> 680 20G<160.806 334 590.806 764>
VStem: 164 170<530 700> 594 170<530 700>
LayerCount: 2
Fore
SplineSet
164 700 m 1
 334 700 l 1
 273 318 l 2
 265 269 272 231 292 202 c 0
 312 173 341 158 378 158 c 0
 415 158 447 173 477 202 c 0
 507 231 525 269 533 318 c 2
 594 700 l 1
 764 700 l 1
 703 318 l 2
 688 222 647 143 579 81 c 0
 511 19 435 -12 351 -12 c 0
 267 -12 201 19 153 81 c 0
 105 143 88 222 103 318 c 2
 164 700 l 1
EndSplineSet
EndChar

StartChar: V
Encoding: 86 86 21
GlifName: V_
Width: 695
Flags: W
HStem: 0 21G<255.057 448.229> 680 20G<121 304.901 605.776 796>
VStem: 121 180<520 700>
LayerCount: 2
Fore
SplineSet
121 700 m 1
 301 700 l 1
 388 254 l 1
 616 700 l 1
 796 700 l 1
 438 0 l 1
 259 0 l 1
 121 700 l 1
EndSplineSet
EndChar

StartChar: W
Encoding: 87 87 22
GlifName: W_
Width: 966
Flags: W
HStem: 0 21G<200.657 390.602 583.634 773.629> 680 20G<121 303.312 495.398 686.312 878.398 1067>
VStem: 121 180<520 700>
LayerCount: 2
Fore
SplineSet
887 700 m 1
 1067 700 l 1
 765 0 l 1
 586 0 l 1
 542 372 l 1
 382 0 l 1
 203 0 l 1
 121 700 l 1
 301 700 l 1
 344 328 l 1
 504 700 l 1
 684 700 l 1
 727 328 l 1
 887 700 l 1
EndSplineSet
EndChar

StartChar: X
Encoding: 88 88 23
GlifName: X_
Width: 661
Flags: W
HStem: 0 21G<12 227.521 438.938 648> 680 20G<129 338.071 537.59 753>
LayerCount: 2
Fore
SplineSet
553 700 m 1
 753 700 l 1
 486 355 l 1
 648 0 l 1
 448 0 l 1
 361 192 l 1
 212 0 l 1
 12 0 l 1
 287 355 l 1
 129 700 l 1
 329 700 l 1
 412 517 l 1
 553 700 l 1
EndSplineSet
EndChar

StartChar: Y
Encoding: 89 89 24
GlifName: Y_
Width: 641
Flags: W
HStem: 0 21G<236 408.182> 680 20G<120 327.265 529.306 743>
VStem: 236 169<0 169>
LayerCount: 2
Fore
SplineSet
120 700 m 1
 319 700 l 1
 400 504 l 1
 544 700 l 1
 743 700 l 1
 454 308 l 5
 405 0 l 1
 236 0 l 1
 284 308 l 1
 120 700 l 1
EndSplineSet
EndChar

StartChar: Z
Encoding: 90 90 25
GlifName: Z_
Width: 611
Flags: W
HStem: 0 170<288 575> 530 170<147 434>
LayerCount: 2
Fore
SplineSet
33 0 m 1
 60 170 l 1
 434 530 l 1
 120 530 l 1
 147 700 l 1
 689 700 l 1
 662 530 l 1
 288 170 l 1
 602 170 l 1
 575 0 l 1
 33 0 l 1
EndSplineSet
EndChar

StartChar: a
Encoding: 97 97 26
GlifName: a
Width: 602
Flags: W
HStem: -12 168<260.013 373.873> 0 21G<406 557.16> 344 168<282.774 400.681> 480 20G<481.842 633>
LayerCount: 2
Fore
SplineSet
485 500 m 1x10
 633 500 l 1
 554 0 l 1
 406 0 l 1x50
 411 33 l 1
 407 30 403 27 399 24 c 4
 362 0 319 -12 271 -12 c 0
 200 -12 145 13 105 64 c 0
 65 115 51 177 63 250 c 0
 75 323 108 385 164 436 c 0
 220 487 283 512 354 512 c 0xa0
 402 512 441 499 471 471 c 0
 474 468 476 465 479 462 c 1
 485 500 l 1x10
344 344 m 0xa0
 318 344 295 334 274 316 c 0
 253 298 240 276 236 250 c 0
 232 224 238 202 253 184 c 0
 268 166 289 156 315 156 c 0
 341 156 365 166 386 184 c 0
 407 202 420 224 424 250 c 0
 428 276 422 298 407 316 c 0
 392 334 370 344 344 344 c 0xa0
EndSplineSet
EndChar

StartChar: b
Encoding: 98 98 27
GlifName: b
Width: 602
Flags: W
HStem: -12 168<281.091 398.842> 0 21G<48 199.03> 344 168<313.104 423.095> 680 20G<155.829 329>
VStem: 159 170<530 700>
LayerCount: 2
Fore
SplineSet
366 344 m 0xb8
 340 344 317 334 296 316 c 0
 275 298 262 276 258 250 c 0
 254 224 260 202 275 184 c 0
 290 166 311 156 337 156 c 0
 363 156 387 166 408 184 c 0
 429 202 442 224 446 250 c 0
 450 276 444 298 429 316 c 0
 414 334 392 344 366 344 c 0xb8
410 512 m 0
 481 512 537 487 577 436 c 0
 617 385 631 323 619 250 c 0
 607 177 574 115 518 64 c 0
 462 13 398 -12 327 -12 c 0xb8
 279 -12 242 0 213 23 c 4
 209 26 205 29 201 33 c 1
 196 0 l 1
 48 0 l 1x78
 159 700 l 1
 329 700 l 1
 294 480 l 1
 301 484 308 488 315 491 c 0
 344 505 376 512 410 512 c 0
EndSplineSet
EndChar

StartChar: c
Encoding: 99 99 28
GlifName: c
Width: 482
Flags: W
HStem: -12 170<255.231 382.279> 342 170<277.155 425.012>
LayerCount: 2
Fore
SplineSet
366 512 m 0
 438 512 496 486 539 435 c 1
 400 315 l 1
 385 333 364 342 339 342 c 0
 314 342 291 333 270 315 c 0
 249 297 236 275 232 250 c 0
 228 225 234 203 249 185 c 0
 264 167 285 158 310 158 c 0
 335 158 358 167 379 185 c 1
 480 65 l 1
 421 14 355 -12 283 -12 c 0
 210 -12 152 13 109 64 c 0
 66 115 50 177 62 250 c 0
 74 323 109 385 168 436 c 0
 227 487 293 512 366 512 c 0
EndSplineSet
EndChar

StartChar: d
Encoding: 100 100 29
GlifName: d
Width: 602
Flags: W
HStem: -12 168<260.013 372.601> 344 168<282.774 401.06>
VStem: 495 170<530 700>
LayerCount: 2
Fore
SplineSet
344 344 m 0
 370 344 392 334 407 316 c 0
 422 298 428 276 424 250 c 0
 420 224 407 202 386 184 c 0
 365 166 341 156 315 156 c 0
 289 156 268 166 253 184 c 0
 238 202 232 224 236 250 c 0
 240 276 253 298 274 316 c 0
 295 334 318 344 344 344 c 0
354 512 m 0
 283 512 220 487 164 436 c 0
 108 385 75 323 63 250 c 0
 51 177 65 115 105 64 c 0
 145 13 200 -12 271 -12 c 0
 314 -12 353 -2 387 17 c 4
 395 22 403 27 411 33 c 1
 406 0 l 1
 554 0 l 1
 665 700 l 1
 495 700 l 1
 460 480 l 1
 453 485 445 490 437 494 c 0
 413 506 386 512 354 512 c 0
EndSplineSet
EndChar

StartChar: e
Encoding: 101 101 30
GlifName: e
Width: 562
Flags: W
HStem: -12 136<266.897 412.718> 180 120<260 414> 356 156<286.993 393.933>
LayerCount: 2
Fore
SplineSet
567 180 m 5
 245 180 l 5
 249 166 259 153 271 141 c 4
 283 129 299 124 320 124 c 4
 363 124 382 132 418 148 c 5
 487 44 l 5
 419 1 366 -12 298 -12 c 4
 223 -12 162 14 116 65 c 4
 70 116 53 178 64 250 c 4
 76 323 111 385 170 436 c 4
 229 487 294 512 367 512 c 4
 436 512 492 486 533 435 c 4
 574 384 589 320 577 244 c 6
 567 180 l 5
347 356 m 4
 328 356 312 352 298 343 c 4
 283 334 270 319 260 300 c 5
 414 300 l 5
 410 320 402 335 390 344 c 4
 379 352 365 356 347 356 c 4
EndSplineSet
EndChar

StartChar: f
Encoding: 102 102 31
GlifName: f
Width: 399
Flags: W
HStem: 0 21G<98 271.152> 330 170<102 150 347 443> 554 170<358.32 479>
VStem: 98 170<0 170>
LayerCount: 2
Fore
SplineSet
424 724 m 2
 506 724 l 1
 479 554 l 1
 397 554 l 2
 386 554 376 550 366 542 c 0
 356 534 351 523 349 512 c 2
 347 500 l 1
 470 500 l 1
 443 330 l 1
 320 330 l 1
 268 0 l 1
 98 0 l 1
 150 330 l 1
 75 330 l 1
 102 500 l 1
 177 500 l 1
 179 512 l 2
 188 570 217 621 265 662 c 0
 313 703 366 724 424 724 c 2
EndSplineSet
EndChar

StartChar: g
Encoding: 103 103 32
GlifName: g
Width: 602
Flags: W
HStem: -215 158<140.634 349.314> -33 20G<126.072 164> -13 168<257.417 372.98> 343 168<281.936 399.609> 479 20G<481.842 633>
LayerCount: 2
Fore
SplineSet
354 511 m 0xb0
 399 511 435 499 464 475 c 0
 469 471 474 466 479 461 c 1
 485 499 l 1
 633 499 l 1
 563 59 l 2
 550 -27 517 -94 464 -143 c 0
 411 -192 345 -215 267 -215 c 0
 114 -215 69 -183 38 -151 c 1
 141 -13 l 1xc8
 187 -46 220 -57 283 -57 c 4
 314 -57 339 -48 357 -28 c 0
 366 -18 374 -5 380 9 c 0
 381 10 381 12 382 13 c 1
 380 12 378 11 376 10 c 0
 345 -5 310 -13 271 -13 c 0
 199 -13 144 12 104 63 c 0
 64 114 50 176 62 249 c 0
 74 322 107 384 163 435 c 0
 219 486 282 511 354 511 c 0xb0
344 343 m 0xb0
 318 343 294 333 273 315 c 0
 252 297 239 275 235 249 c 0
 231 223 237 200 252 182 c 0
 267 164 288 155 314 155 c 0
 340 155 364 164 385 182 c 0
 406 200 419 223 423 249 c 0
 427 275 421 297 406 315 c 0
 391 333 370 343 344 343 c 0xb0
EndSplineSet
EndChar

StartChar: h
Encoding: 104 104 33
GlifName: h
Width: 586
Flags: W
HStem: 0 21G<50 223.182 373 546.203> 342 170<318.117 447> 680 20G<157.829 331>
VStem: 50 170<0 170> 161 170<530 700> 373 170<0 170>
LayerCount: 2
Fore
SplineSet
543 0 m 1xec
 373 0 l 1
 415 264 l 2
 419 287 414 306 402 320 c 0
 390 334 373 342 351 342 c 0
 329 342 310 334 293 320 c 0
 276 306 266 287 262 264 c 2
 220 0 l 5
 50 0 l 5xf4
 161 700 l 1
 331 700 l 1
 295 475 l 1
 300 479 306 483 311 486 c 0
 340 504 375 512 414 512 c 0
 480 512 528 488 557 440 c 0
 586 392 596 331 584 256 c 2
 543 0 l 1xec
EndSplineSet
EndChar

StartChar: i
Encoding: 105 105 34
GlifName: i
Width: 296
Flags: W
HStem: 0 21G<63 236.16> 480 20G<138.84 312> 548 200<201.928 299.072>
VStem: 63 170<0 170> 142 170<330 500>
LayerCount: 2
Fore
SplineSet
63 0 m 1xf0
 142 500 l 1
 312 500 l 1xe8
 233 0 l 1
 63 0 l 1xf0
351 648 m 0
 347 621 333 598 310 578 c 0
 287 558 262 548 235 548 c 0
 208 548 186 558 169 578 c 0
 152 598 147 621 151 648 c 0
 155 675 168 698 191 718 c 0
 214 738 239 748 266 748 c 0
 293 748 315 738 332 718 c 0
 349 698 355 675 351 648 c 0
EndSplineSet
EndChar

StartChar: j
Encoding: 106 106 35
GlifName: j
Width: 278
Flags: W
HStem: 480 20G<117.861 291> 542 206<178.935 279.999>
VStem: 121 170<330 500>
LayerCount: 2
Fore
SplineSet
121 500 m 1
 291 500 l 1
 221 54 l 2
 209 -20 172 -83 111 -136 c 0
 50 -189 -17 -215 -91 -215 c 1
 -64 -45 l 1
 -37 -45 -12 -35 10 -16 c 0
 32 3 47 27 51 54 c 2
 121 500 l 1
332 645 m 0
 327 616 314 592 291 572 c 0
 268 552 242 542 213 542 c 0
 184 542 162 552 145 572 c 0
 128 592 121 616 126 645 c 0
 131 674 145 698 168 718 c 0
 191 738 216 748 245 748 c 0
 274 748 297 738 314 718 c 0
 331 698 337 674 332 645 c 0
EndSplineSet
EndChar

StartChar: k
Encoding: 107 107 36
GlifName: k
Width: 594
Flags: W
HStem: 0 21G<48 221.158 358.493 581> 480 20G<410.94 660> 680 20G<155.829 329>
VStem: 159 170<530 700>
LayerCount: 2
Fore
SplineSet
48 0 m 5
 159 700 l 1
 329 700 l 1
 273 349 l 1
 432 500 l 1
 660 500 l 1
 423 275 l 1
 581 0 l 1
 370 0 l 1
 286 146 l 1
 233 95 l 1
 218 0 l 5
 48 0 l 5
EndSplineSet
EndChar

StartChar: l
Encoding: 108 108 37
GlifName: l
Width: 266
Flags: W
HStem: 0 21G<48 221.171> 680 20G<155.829 329>
VStem: 48 170<0 170> 159 170<530 700>
LayerCount: 2
Fore
SplineSet
159 700 m 1xd0
 329 700 l 1xd0
 218 0 l 1
 48 0 l 1xe0
 159 700 l 1xd0
EndSplineSet
EndChar

StartChar: m
Encoding: 109 109 38
GlifName: m
Width: 907
Flags: W
HStem: 0 21G<48 221.182 371 544.182 694 867.203> 342 170<317.598 445 637.072 768> 480 20G<123.84 285>
VStem: 48 170<0 170> 371 170<0 170> 694 170<0 170>
CounterMasks: 1 1c
LayerCount: 2
Fore
SplineSet
864 0 m 1xdc
 694 0 l 1
 736 264 l 2
 740 287 735 306 723 320 c 0
 711 334 694 342 672 342 c 0
 650 342 631 334 614 320 c 0
 597 306 587 287 583 264 c 5
 541 0 l 5
 371 0 l 1
 413 264 l 2
 417 287 412 306 400 320 c 0
 388 334 371 342 349 342 c 0xdc
 327 342 308 334 291 320 c 0
 274 306 264 287 260 264 c 2
 218 0 l 1
 48 0 l 1
 127 500 l 1
 285 500 l 1xbc
 279 463 l 1
 282 466 286 469 290 472 c 0
 323 499 364 512 412 512 c 0
 478 512 526 488 555 440 c 0
 557 436 560 432 562 428 c 1
 565 432 569 437 573 441 c 0
 615 488 669 512 735 512 c 0
 801 512 849 488 878 440 c 0
 907 392 917 331 905 256 c 2
 864 0 l 1xdc
EndSplineSet
EndChar

StartChar: n
Encoding: 110 110 39
GlifName: n
Width: 584
Flags: W
HStem: 0 21G<48 221.182 371 544.203> 342 170<317.694 445> 480 20G<123.84 285>
VStem: 48 170<0 170> 371 170<0 170>
LayerCount: 2
Fore
SplineSet
541 0 m 1xd8
 371 0 l 1
 413 264 l 2
 417 287 412 306 400 320 c 0
 388 334 371 342 349 342 c 0xd8
 327 342 308 334 291 320 c 0
 274 306 264 287 260 264 c 2
 218 0 l 1
 48 0 l 1
 127 500 l 1
 285 500 l 1
 279 463 l 1
 286 469 293 475 300 480 c 4xb8
 331 501 369 512 412 512 c 0
 478 512 526 488 555 440 c 0
 584 392 594 331 582 256 c 2
 541 0 l 1xd8
EndSplineSet
EndChar

StartChar: o
Encoding: 111 111 40
GlifName: o
Width: 570
Flags: W
HStem: -12 170<255.396 371.634> 342 170<277.558 393.604>
LayerCount: 2
Fore
SplineSet
339 342 m 0
 314 342 291 333 270 315 c 0
 249 297 237 275 233 250 c 0
 229 225 234 203 249 185 c 0
 264 167 285 158 310 158 c 0
 335 158 358 167 379 185 c 0
 400 203 413 225 417 250 c 0
 421 275 415 297 400 315 c 0
 385 333 364 342 339 342 c 0
366 512 m 0
 438 512 496 486 539 435 c 0
 582 384 598 322 587 250 c 0
 576 178 540 116 481 65 c 0
 422 14 355 -12 283 -12 c 0
 211 -12 153 14 110 65 c 0
 67 116 52 178 63 250 c 0
 74 322 110 384 169 435 c 0
 228 486 294 512 366 512 c 0
EndSplineSet
EndChar

StartChar: p
Encoding: 112 112 41
GlifName: p
Width: 607
Flags: W
HStem: -12 168<285.874 403.842> 344 168<311.891 428.095>
VStem: 21 170<-200 -30>
LayerCount: 2
Fore
SplineSet
280 500 m 1
 132 500 l 1
 21 -200 l 1
 191 -200 l 1
 226 20 l 1
 228 18 231 17 233 15 c 4
 260 -3 293 -12 332 -12 c 0
 403 -12 467 13 523 64 c 0
 579 115 612 177 624 250 c 0
 636 323 622 385 582 436 c 0
 542 487 486 512 415 512 c 0
 370 512 330 502 295 481 c 0
 288 477 282 472 275 467 c 1
 280 500 l 1
342 156 m 0
 316 156 295 166 280 184 c 0
 265 202 259 224 263 250 c 0
 267 276 280 298 301 316 c 0
 322 334 345 344 371 344 c 0
 397 344 419 334 434 316 c 0
 449 298 455 276 451 250 c 0
 447 224 434 202 413 184 c 0
 392 166 368 156 342 156 c 0
EndSplineSet
EndChar

StartChar: q
Encoding: 113 113 42
GlifName: q
Width: 602
Flags: W
HStem: -200 21G<352 525.171> -12 168<260.013 366.827> 344 168<282.774 400.92> 480 20G<481.97 633>
VStem: 352 170<-200 -30>
LayerCount: 2
Fore
SplineSet
485 500 m 1xd8
 633 500 l 1xd8
 522 -200 l 1
 352 -200 l 1
 387 20 l 1
 379 15 371 12 363 8 c 4
 335 -5 304 -12 271 -12 c 0
 200 -12 145 13 105 64 c 0
 65 115 51 177 63 250 c 0
 75 323 108 385 164 436 c 0
 220 487 283 512 354 512 c 0xe8
 397 512 432 503 460 484 c 0
 467 479 474 473 480 467 c 1
 485 500 l 1xd8
315 156 m 0
 341 156 365 166 386 184 c 0
 407 202 420 224 424 250 c 0
 428 276 422 298 407 316 c 0
 392 334 370 344 344 344 c 0xe8
 318 344 295 334 274 316 c 0
 253 298 240 276 236 250 c 0
 232 224 238 202 253 184 c 0
 268 166 289 156 315 156 c 0
EndSplineSet
EndChar

StartChar: r
Encoding: 114 114 43
GlifName: r
Width: 413
Flags: W
HStem: 0 21G<48 221.122> 342 170<361.812 449> 480 20G<123.84 285>
VStem: 48 170<0 170>
LayerCount: 2
Fore
SplineSet
127 500 m 1xb0
 285 500 l 1xb0
 275 435 l 1
 280 440 285 445 291 449 c 0
 308 462 327 474 347 484 c 0
 386 503 429 512 476 512 c 1
 449 342 l 1xd0
 405 342 366 331 331 309 c 0
 296 287 269 252 250 205 c 5
 218 0 l 1
 48 0 l 1
 127 500 l 1xb0
EndSplineSet
EndChar

StartChar: s
Encoding: 115 115 44
GlifName: s
Width: 455
Flags: W
HStem: -12 151<169.484 273.559> 364 148<258.054 361.135>
LayerCount: 2
Fore
SplineSet
485 397 m 1
 317 342 l 1
 315 350 312 355 307 359 c 0
 302 362 296 364 289 364 c 0
 280 364 273 362 267 358 c 0
 261 354 257 349 257 343 c 0
 257 332 271 325 299 323 c 0
 313 322 322 322 325 321 c 0
 359 315 387 302 408 283 c 0
 445 248 460 204 451 149 c 0
 441 93 411 50 363 20 c 0
 328 -2 284 -12 229 -12 c 0
 183 -11 143 -1 108 18 c 0
 73 37 51 65 44 103 c 1
 214 161 l 1
 218 146 229 139 245 139 c 0
 256 139 264 141 270 144 c 0
 275 147 278 152 278 158 c 0
 278 168 258 175 219 179 c 0
 211 180 206 180 202 181 c 0
 157 189 125 209 106 239 c 0
 87 269 81 304 87 345 c 0
 96 399 121 440 165 468 c 0
 209 496 257 511 309 512 c 0
 359 512 398 502 428 482 c 0
 456 463 475 434 485 397 c 1
EndSplineSet
EndChar

StartChar: t
Encoding: 116 116 45
GlifName: t
Width: 399
Flags: W
HStem: 0 21G<290.5 374.176> 330 170<92 140 337 423>
LayerCount: 2
Fore
SplineSet
192 656 m 1
 362 656 l 1
 337 500 l 1
 450 500 l 1
 423 330 l 1
 310 330 l 1
 295 235 l 2
 292 217 296 202 307 189 c 0
 318 176 332 170 350 170 c 2
 398 170 l 1
 371 0 l 1
 323 0 l 2
 258 0 207 23 168 69 c 0
 129 115 115 170 125 235 c 2
 140 330 l 1
 65 330 l 1
 92 500 l 1
 167 500 l 1
 192 656 l 1
EndSplineSet
EndChar

StartChar: u
Encoding: 117 117 46
GlifName: u
Width: 579
Flags: W
HStem: -12 170<263.34 371.427> 480 20G<118.875 292 441.818 615>
VStem: 122 170<330 500> 445 170<330 500>
LayerCount: 2
Fore
SplineSet
122 500 m 1
 292 500 l 1
 250 236 l 2
 246 213 251 194 263 180 c 0
 275 166 293 158 315 158 c 0
 337 158 355 166 372 180 c 0
 389 194 399 213 403 236 c 2
 445 500 l 1
 615 500 l 1
 575 244 l 2
 564 172 530 111 474 62 c 0
 418 13 356 -12 288 -12 c 0
 220 -12 165 13 125 62 c 0
 85 111 71 172 82 244 c 2
 122 500 l 1
EndSplineSet
EndChar

StartChar: v
Encoding: 118 118 47
GlifName: v
Width: 590
Flags: W
HStem: 0 21G<199.32 397> 480 20G<87 273.701 468.03 661>
VStem: 87 182<318 500>
LayerCount: 2
Fore
SplineSet
87 500 m 1
 269 500 l 1
 332 232 l 1
 479 500 l 1
 661 500 l 1
 386 0 l 1
 204 0 l 1
 87 500 l 1
EndSplineSet
EndChar

StartChar: w
Encoding: 119 119 48
GlifName: w
Width: 852
Flags: W
HStem: 0 21G<170.72 362.6 494.711 686.64> 480 20G<92 273.289 406.311 597.289 730.311 918>
VStem: 92 178<322 500>
LayerCount: 2
Fore
SplineSet
740 500 m 1
 918 500 l 1
 677 0 l 1
 498 0 l 1
 461 225 l 1
 353 0 l 1
 174 0 l 1
 92 500 l 1
 270 500 l 1
 307 275 l 1
 416 500 l 1
 594 500 l 1
 631 275 l 1
 740 500 l 1
EndSplineSet
EndChar

StartChar: x
Encoding: 120 120 49
GlifName: x
Width: 565
Flags: W
HStem: 0 21G<13 235.458 336.792 552> 480 20G<92 306.204 410.469 631>
LayerCount: 2
Fore
SplineSet
298 96 m 1
 219 0 l 1
 13 0 l 1
 220 250 l 1
 92 500 l 1
 296 500 l 1
 346 402 l 1
 427 500 l 1
 631 500 l 1
 424 249 l 1
 552 0 l 1
 347 0 l 1
 298 96 l 1
EndSplineSet
EndChar

StartChar: y
Encoding: 121 121 50
GlifName: y
Width: 622
Flags: W
HStem: -212 170<86 209.032> 480 20G<84 275.806 500.459 696>
VStem: 84 186<314 500>
LayerCount: 2
Fore
SplineSet
84 500 m 1
 270 500 l 1
 351 221 l 1
 512 500 l 1
 696 500 l 1
 363 -78 l 2
 338 -119 305 -151 262 -175 c 0
 219 -199 175 -212 129 -212 c 2
 59 -212 l 1
 86 -42 l 1
 156 -42 l 2
 170 -42 183 -39 193 -34 c 0
 203 -29 211 -21 217 -10 c 2
 227 6 l 1
 84 500 l 1
EndSplineSet
EndChar

StartChar: z
Encoding: 122 122 51
GlifName: z
Width: 454
Flags: W
HStem: 0 170<293 431> 330 170<102 240>
LayerCount: 2
Fore
SplineSet
23 0 m 1
 50 170 l 1
 240 330 l 1
 75 330 l 1
 102 500 l 1
 510 500 l 1
 483 330 l 1
 293 170 l 1
 458 170 l 1
 431 0 l 1
 23 0 l 1
EndSplineSet
EndChar

StartChar: bracketleft
Encoding: 91 91 52
GlifName: bracketleft
Width: 368
Flags: W
LayerCount: 2
Fore
SplineSet
341 799 m 6
 299 799 261 784 227 755 c 4
 193 726 173 690 166 648 c 6
 71 51 l 6
 64 9 73 -27 98 -56 c 4
 123 -85 156 -100 198 -100 c 6
 309 -100 l 5
 336 70 l 5
 245 70 l 6
 244 70 244 70 244 71 c 6
 332 628 l 6
 332 629 333 629 334 629 c 6
 425 629 l 5
 452 799 l 5
 341 799 l 6
EndSplineSet
EndChar

StartChar: backslash
Encoding: 92 92 53
GlifName: backslash
Width: 455
Flags: W
LayerCount: 2
Fore
SplineSet
298 747 m 5
 128 694 l 5
 262 -88 l 5
 432 -35 l 5
 298 747 l 5
EndSplineSet
EndChar

StartChar: bracketright
Encoding: 93 93 54
GlifName: bracketright
Width: 368
Flags: W
HStem: -100 170<54 147.771>
LayerCount: 2
Fore
SplineSet
281 799 m 6
 323 799 356 784 381 755 c 4
 406 726 415 690 408 648 c 6
 313 51 l 6
 306 9 286 -27 252 -56 c 4
 218 -85 180 -100 138 -100 c 6
 27 -100 l 5
 54 70 l 5
 145 70 l 6
 146 70 146 70 146 71 c 6
 234 628 l 6
 234 629 235 629 234 629 c 6
 143 629 l 5
 170 799 l 5
 281 799 l 6
EndSplineSet
EndChar

StartChar: asciicircum
Encoding: 94 94 55
GlifName: asciicircum
Width: 617
Flags: W
HStem: 373 327<513 514>
VStem: 416 187<373 560>
LayerCount: 2
Fore
SplineSet
416 373 m 1
 331 700 l 1
 514 700 l 1
 603 373 l 1
 416 373 l 1
132 373 m 1
 331 700 l 1
 513 700 l 1
 319 373 l 1
 132 373 l 1
EndSplineSet
EndChar

StartChar: underscore
Encoding: 95 95 56
GlifName: underscore
Width: 466
Flags: W
HStem: -170 170<23 416>
LayerCount: 2
Fore
SplineSet
-4 -170 m 1
 23 0 l 1
 443 0 l 1
 416 -170 l 1
 -4 -170 l 1
EndSplineSet
EndChar

StartChar: grave
Encoding: 96 96 57
GlifName: grave
Width: 308
Flags: W
HStem: 554 147<220 313>
VStem: 117 279
LayerCount: 2
Fore
SplineSet
220 554 m 5
 117 701 l 5
 313 701 l 5
 396 554 l 5
 220 554 l 5
EndSplineSet
EndChar

StartChar: zero
Encoding: 48 48 58
GlifName: zero
Width: 644
Flags: W
HStem: -12 170<285.149 419.988> 542 170<335.012 469.851>
LayerCount: 2
Fore
SplineSet
408 542 m 0
 385 542 364 538 345 527 c 0
 326 516 311 501 299 482 c 0
 287 463 277 444 270 422 c 0
 263 400 257 376 253 350 c 0
 249 324 247 300 248 278 c 0
 249 256 251 237 257 218 c 0
 263 199 274 184 289 173 c 0
 304 162 324 158 347 158 c 0
 370 158 391 162 410 173 c 0
 429 184 444 199 456 218 c 0
 468 237 478 256 485 278 c 0
 492 300 498 324 502 350 c 0
 506 376 508 400 507 422 c 0
 506 444 504 463 498 482 c 0
 492 501 481 516 466 527 c 0
 451 538 431 542 408 542 c 0
435 712 m 0
 481 712 521 702 556 682 c 0
 621 645 661 580 674 487 c 0
 680 444 679 398 671 350 c 0
 663 302 650 256 630 213 c 0
 587 120 528 55 451 18 c 0
 410 -2 366 -12 320 -12 c 0
 274 -12 234 -2 199 18 c 0
 134 55 94 120 81 213 c 0
 75 256 75 302 83 350 c 0
 91 398 105 444 125 487 c 0
 168 580 227 645 304 682 c 0
 345 702 389 712 435 712 c 0
EndSplineSet
EndChar

StartChar: one
Encoding: 49 49 59
GlifName: one
Width: 490
Flags: W
HStem: 0 21G<237 410.171> 680 20G<320.934 518>
VStem: 237 170<0 170>
LayerCount: 2
Fore
SplineSet
348 700 m 1
 518 700 l 1
 407 0 l 1
 237 0 l 1
 313 478 l 1
 211 403 l 1
 122 533 l 1
 348 700 l 1
EndSplineSet
EndChar

StartChar: two
Encoding: 50 50 60
GlifName: two
Width: 530
Flags: W
HStem: 0 170<301 495> 543 170<290.484 392.046>
LayerCount: 2
Fore
SplineSet
368 713 m 0
 433 713 485 691 526 645 c 0
 567 599 583 545 573 482 c 0
 562 413 531 356 481 314 c 2
 301 170 l 1
 522 170 l 1
 495 0 l 1
 23 0 l 1
 50 170 l 1
 369 426 l 2
 388 443 400 462 403 482 c 0
 406 501 402 515 390 526 c 0
 378 537 364 543 347 543 c 0
 330 543 314 538 299 528 c 0
 284 518 274 504 270 486 c 1
 108 518 l 1
 126 574 160 621 209 658 c 0
 258 695 311 713 368 713 c 0
EndSplineSet
EndChar

StartChar: three
Encoding: 51 51 61
GlifName: three
Width: 523
Flags: W
HStem: -10 170<226.899 336.267> 502 21G<194.762 272.5> 542 170<281.98 385.862>
LayerCount: 2
Fore
SplineSet
369 712 m 0
 432 712 483 690 522 648 c 0
 561 606 576 555 566 495 c 0
 562 470 550 444 531 416 c 0
 517 396 500 375 478 354 c 1
 492 334 503 315 511 296 c 0
 524 266 527 237 523 210 c 0
 513 150 483 97 430 54 c 0
 377 11 319 -10 255 -10 c 0
 200 -10 154 6 114 38 c 0
 74 70 53 111 49 160 c 1
 220 199 l 1
 221 186 229 176 241 170 c 0
 253 164 268 160 284 160 c 0
 300 160 315 165 329 175 c 0
 343 185 352 199 354 214 c 0
 357 230 353 243 343 253 c 0
 333 263 318 269 299 269 c 2
 265 269 l 1
 292 439 l 1
 326 439 l 2
 344 439 359 444 372 454 c 0
 385 464 393 477 396 493 c 0
 398 508 394 520 383 529 c 0
 372 538 358 542 342 542 c 0
 321 542 305 537 292 529 c 0
 282 522 275 514 270 502 c 1
 112 544 l 1
 131 593 165 632 214 664 c 0
 263 696 315 712 369 712 c 0
EndSplineSet
EndChar

StartChar: four
Encoding: 52 52 62
GlifName: four
Width: 611
Flags: W
HStem: 0 21G<321 494.148> 108 170<244 338 535 595> 680 20G<314.204 367.282>
VStem: 395 170<295 465>
LayerCount: 2
Fore
SplineSet
327 700 m 1
 470 629 l 1
 244 278 l 1
 365 278 l 1
 395 465 l 1
 565 465 l 1
 535 278 l 1
 622 278 l 1
 595 108 l 1
 508 108 l 1
 491 0 l 1
 321 0 l 1
 338 108 l 1
 30 108 l 1
 57 278 l 1
 327 700 l 1
EndSplineSet
EndChar

StartChar: five
Encoding: 53 53 63
GlifName: five
Width: 547
Flags: W
HStem: -12 170<237.285 356.549> 530 170<337 557>
LayerCount: 2
Fore
SplineSet
194 700 m 1
 584 700 l 1
 557 530 l 1
 337 530 l 1
 326 460 l 1
 352 460 l 2
 417 460 468 436 507 390 c 0
 546 344 559 288 549 223 c 0
 539 158 507 103 454 57 c 0
 401 11 342 -12 277 -12 c 0
 215 -12 165 4 126 35 c 0
 87 66 64 108 58 160 c 1
 230 190 l 1
 239 169 262 158 300 158 c 0
 321 158 338 164 353 176 c 0
 368 188 376 204 379 223 c 0
 382 241 379 257 368 270 c 0
 357 283 343 290 325 290 c 2
 129 290 l 1
 194 700 l 1
EndSplineSet
EndChar

StartChar: six
Encoding: 54 54 64
GlifName: six
Width: 555
Flags: W
HStem: -12 170<253.878 358.697> 692 20G<370.307 581>
LayerCount: 2
Fore
SplineSet
326 307 m 0
 305 307 287 299 270 285 c 0
 253 271 243 253 240 232 c 0
 237 211 241 194 253 180 c 0
 265 166 282 158 303 158 c 0
 324 158 342 166 359 180 c 0
 376 194 386 211 389 232 c 0
 392 253 388 271 376 285 c 0
 364 299 347 307 326 307 c 0
385 712 m 1
 581 712 l 1
 398 464 l 1
 406 463 414 462 422 460 c 0
 465 449 500 424 526 387 c 0
 557 344 568 292 559 232 c 0
 548 164 515 108 460 60 c 0
 405 12 344 -12 276 -12 c 0
 208 -12 154 12 114 60 c 0
 74 108 59 164 70 232 c 0
 77 275 94 317 122 354 c 2
 385 712 l 1
EndSplineSet
EndChar

StartChar: seven
Encoding: 55 55 65
GlifName: seven
Width: 579
Flags: W
HStem: 0 21G<111 311.491> 530 170<139 442>
LayerCount: 2
Fore
SplineSet
112 530 m 1
 139 700 l 1
 657 700 l 1
 630 530 l 1
 299 0 l 1
 111 0 l 1
 442 530 l 1
 112 530 l 1
EndSplineSet
EndChar

StartChar: eight
Encoding: 56 56 66
GlifName: eight
Width: 570
Flags: W
HStem: -12 164<252.307 374.003> 282 170<316.472 383.341> 546 166<317.899 415.341>
LayerCount: 2
Fore
SplineSet
330 282 m 0
 308 282 287 275 269 263 c 0
 251 251 240 235 237 216 c 0
 234 197 240 182 254 170 c 0
 268 158 287 152 309 152 c 0
 331 152 352 158 370 170 c 0
 388 182 398 197 401 216 c 0
 404 235 398 251 384 263 c 0
 370 275 352 282 330 282 c 0
371 546 m 0
 354 546 340 542 327 533 c 0
 314 524 307 513 305 499 c 0
 303 485 306 473 316 464 c 0
 326 455 340 452 357 452 c 0
 374 452 388 455 401 464 c 0
 414 473 421 485 423 499 c 0
 425 513 422 524 412 533 c 0
 402 542 388 546 371 546 c 0
398 712 m 0
 464 712 516 695 554 659 c 0
 592 623 606 577 597 520 c 0
 588 463 559 417 510 381 c 0
 508 379 505 378 503 376 c 1
 510 371 517 366 523 360 c 0
 564 320 579 268 569 204 c 0
 559 140 527 88 473 48 c 0
 419 8 356 -12 283 -12 c 0
 210 -12 153 8 112 48 c 0
 71 88 55 140 65 204 c 0
 75 268 108 320 162 360 c 0
 170 366 178 371 186 376 c 1
 184 378 183 379 181 381 c 0
 143 417 129 463 138 520 c 0
 147 577 176 623 225 659 c 0
 274 695 332 712 398 712 c 0
EndSplineSet
EndChar

StartChar: nine
Encoding: 57 57 67
GlifName: nine
Width: 555
Flags: W
HStem: 0 21G<77 288.665> 542 170<307.514 411.992>
LayerCount: 2
Fore
SplineSet
340 393 m 0
 361 393 379 401 396 415 c 0
 413 429 423 447 426 468 c 0
 429 489 425 506 413 520 c 0
 401 534 384 542 363 542 c 0
 342 542 324 534 307 520 c 0
 290 506 280 489 277 468 c 0
 274 447 278 429 290 415 c 0
 302 401 319 393 340 393 c 0
273 0 m 1
 77 0 l 1
 268 236 l 1
 260 237 252 238 244 240 c 0
 201 252 166 276 139 313 c 0
 108 356 98 408 107 468 c 0
 117 536 150 592 206 640 c 0
 261 688 323 712 390 712 c 0
 457 712 512 688 552 640 c 0
 593 592 607 536 596 468 c 0
 589 425 572 384 544 346 c 2
 273 0 l 1
EndSplineSet
EndChar

StartChar: exclam
Encoding: 33 33 68
GlifName: exclam
Width: 332
Flags: W
HStem: -16 206<129.001 229.999> 680 20G<188.837 362>
VStem: 121 170<251 421> 192 170<530 700>
LayerCount: 2
Fore
SplineSet
192 700 m 5xd0
 362 700 l 5xd0
 291 251 l 5
 121 251 l 5xe0
 192 700 l 5xd0
196 190 m 4
 225 190 247 180 264 160 c 4
 281 140 288 116 283 87 c 4
 278 58 264 34 241 14 c 4
 218 -6 192 -16 163 -16 c 4
 134 -16 112 -6 95 14 c 4
 78 34 72 58 77 87 c 4
 82 116 95 140 118 160 c 4
 141 180 167 190 196 190 c 4
EndSplineSet
EndChar

StartChar: quotedbl
Encoding: 34 34 69
GlifName: quotedbl
Width: 554
Flags: W
HStem: 440 276<192 318 426 552>
LayerCount: 2
Fore
SplineSet
426 716 m 1
 620 716 l 1
 552 440 l 1
 406 440 l 1
 426 716 l 1
192 716 m 1
 386 716 l 1
 318 440 l 1
 172 440 l 1
 192 716 l 1
EndSplineSet
EndChar

StartChar: numbersign
Encoding: 35 35 70
GlifName: numbersign
Width: 639
Flags: W
HStem: 0 21G<57 236.667 292 471.667> 144 170<57 105 335 340 570 620> 680 20G<284.377 464 519.377 699>
LayerCount: 2
Fore
SplineSet
526 700 m 1
 699 700 l 1
 647 546 l 1
 735 546 l 1
 678 376 l 1
 590 376 l 1
 570 314 l 1
 677 314 l 1
 620 144 l 1
 513 144 l 1
 465 0 l 1
 292 0 l 1
 340 144 l 1
 278 144 l 1
 230 0 l 1
 57 0 l 1
 105 144 l 1
 0 144 l 1
 57 314 l 1
 162 314 l 1
 183 376 l 1
 78 376 l 1
 135 546 l 1
 240 546 l 1
 291 700 l 1
 464 700 l 1
 412 546 l 1
 475 546 l 1
 526 700 l 1
418 376 m 1
 355 376 l 1
 335 314 l 1
 397 314 l 1
 418 376 l 1
EndSplineSet
EndChar

StartChar: dollar
Encoding: 36 36 71
GlifName: dollar
Width: 560
Flags: W
HStem: -91 249<240.192 345> 508 21G<418.5 496.727> 542 249<314 401.483>
LayerCount: 2
Fore
SplineSet
314 791 m 1
 484 791 l 1
 470 699 l 1
 490 692 509 681 526 667 c 0
 564 637 585 599 590 552 c 1
 419 508 l 1
 418 518 413 527 402 533 c 0
 391 539 378 542 362 542 c 0
 343 542 327 538 313 530 c 0
 299 522 291 511 289 496 c 0
 288 487 290 480 297 473 c 0
 308 462 329 454 361 448 c 0
 429 436 482 411 520 373 c 0
 558 335 572 284 562 219 c 0
 552 154 518 98 462 54 c 0
 430 29 396 11 359 0 c 1
 345 -91 l 1
 175 -91 l 1
 189 2 l 1
 167 10 146 21 127 36 c 0
 87 68 63 109 58 159 c 1
 229 203 l 1
 230 190 238 179 252 171 c 0
 266 163 282 158 301 158 c 0
 324 158 344 163 361 174 c 0
 378 185 389 200 392 219 c 0
 394 233 389 245 379 255 c 0
 366 268 342 278 307 284 c 0
 244 295 194 319 158 354 c 0
 122 389 109 436 119 496 c 0
 129 557 159 609 212 650 c 0
 239 672 269 688 300 698 c 1
 314 791 l 1
EndSplineSet
EndChar

StartChar: percent
Encoding: 37 37 72
GlifName: percent
Width: 937
Flags: W
HStem: -12 170<680.5 756.115> 0 21G<302.898 345.209> 198 170<717.885 793.5> 332 170<254.5 329.971> 542 170<291.748 367.5> 680 20G<704.824 747.306>
LayerCount: 2
Fore
SplineSet
767 368 m 4xa0
 820 368 862 349 893 312 c 4
 924 275 935 231 927 178 c 4
 919 125 893 81 850 44 c 4
 807 7 760 -12 707 -12 c 4
 654 -12 612 7 581 44 c 4
 550 81 539 125 547 178 c 4
 555 231 581 275 624 312 c 4
 667 349 714 368 767 368 c 4xa0
740 198 m 4
 735 198 730 196 725 192 c 4
 720 188 718 183 717 178 c 4
 716 173 718 168 721 164 c 4
 724 160 729 158 734 158 c 4
 739 158 744 160 749 164 c 4
 754 168 756 173 757 178 c 4
 758 183 756 188 753 192 c 4
 750 196 745 198 740 198 c 4
722 700 m 5x44
 846 602 l 5
 328 0 l 5
 205 98 l 5
 722 700 l 5x44
341 712 m 4x18
 394 712 435 693 466 656 c 4
 497 619 509 575 501 522 c 4
 493 469 467 425 424 388 c 4
 381 351 334 332 281 332 c 4
 228 332 186 351 155 388 c 4
 124 425 113 469 121 522 c 4
 129 575 154 619 197 656 c 4
 240 693 288 712 341 712 c 4x18
314 542 m 4
 309 542 304 540 299 536 c 4
 294 532 292 527 291 522 c 4
 290 517 291 512 294 508 c 4
 297 504 303 502 308 502 c 4
 313 502 317 504 322 508 c 4
 327 512 330 517 331 522 c 4
 332 527 330 532 327 536 c 4
 324 540 319 542 314 542 c 4
EndSplineSet
EndChar

StartChar: ampersand
Encoding: 38 38 73
GlifName: ampersand
Width: 635
Flags: W
HStem: -12 168<235.253 341.301> 0 21G<415.167 648> 542 170<331.263 397.13>
LayerCount: 2
Fore
SplineSet
238 -12 m 0xa0
 179 -12 133 6 99 42 c 0
 65 78 53 124 62 180 c 0
 68 217 82 254 104 291 c 0
 126 328 153 356 186 377 c 0
 218 397 261 420 313 446 c 4
 338 458 358 468 373 476 c 0
 390 485 400 496 402 508 c 0
 403 517 400 525 395 532 c 0
 390 539 382 542 370 542 c 0
 358 542 348 538 340 532 c 0
 332 526 328 518 327 509 c 0
 325 494 330 477 343 457 c 2
 648 0 l 1
 428 0 l 1x60
 197 360 l 2
 161 416 148 473 159 531 c 0
 168 583 196 627 241 661 c 0
 286 695 337 712 394 712 c 0
 453 712 500 695 535 660 c 0
 570 625 583 580 574 523 c 0
 569 489 558 458 542 430 c 0
 526 402 499 375 460 346 c 0
 434 327 405 310 373 298 c 0
 334 283 299 264 266 241 c 0
 249 229 238 217 234 206 c 0
 230 195 229 185 231 176 c 0
 232 171 235 166 240 163 c 0
 247 158 259 156 274 156 c 0
 292 156 312 160 336 168 c 0
 374 181 411 199 446 221 c 0
 481 243 507 268 525 297 c 1
 695 297 l 1
 669 213 611 139 521 76 c 0
 479 46 433 24 383 10 c 0
 333 -4 285 -12 238 -12 c 0xa0
EndSplineSet
EndChar

StartChar: quotesingle
Encoding: 39 39 74
GlifName: quotesingle
Width: 320
Flags: W
HStem: 440 276<176 303>
VStem: 157 213
LayerCount: 2
Fore
SplineSet
176 716 m 1
 370 716 l 1
 303 440 l 1
 157 440 l 1
 176 716 l 1
EndSplineSet
EndChar

StartChar: parenleft
Encoding: 40 40 75
GlifName: parenleft
Width: 370
Flags: W
LayerCount: 2
Fore
SplineSet
337 799 m 1
 446 685 l 1
 399 639 359 587 329 529 c 0
 299 471 279 411 269 350 c 0
 260 292 261 235 271 180 c 0
 281 125 301 74 330 29 c 1
 194 -99 l 1
 150 -36 120 33 104 110 c 0
 88 187 86 268 99 350 c 0
 112 432 139 513 180 590 c 0
 221 667 273 736 337 799 c 1
EndSplineSet
EndChar

StartChar: parenright
Encoding: 41 41 76
GlifName: parenright
Width: 370
Flags: W
LayerCount: 2
Fore
SplineSet
287 799 m 5
 331 736 361 667 377 590 c 0
 393 513 395 432 382 350 c 0
 369 268 342 187 301 110 c 0
 260 33 209 -36 145 -99 c 1
 145 -99 145 -99 50 29 c 1
 93 74 128 125 156 180 c 0
 184 235 203 292 212 350 c 0
 221 411 220 471 208 529 c 0
 196 587 174 639 142 685 c 1
 142 685 142 685 287 799 c 5
EndSplineSet
EndChar

StartChar: asterisk
Encoding: 42 42 77
GlifName: asterisk
Width: 515
Flags: W
VStem: 286 170<546 716>
LayerCount: 2
Fore
SplineSet
122 498 m 5
 200 660 l 1
 379 599 l 1
 300 437 l 1
 122 498 l 5
259 308 m 1
 137 408 l 1
 279 568 l 1
 400 468 l 1
 259 308 l 1
507 408 m 1
 354 308 l 1
 263 468 l 1
 416 568 l 1
 507 408 l 1
524 660 m 1
 551 498 l 1
 353 437 l 1
 326 599 l 1
 524 660 l 1
286 716 m 1
 456 716 l 1
 424 518 l 1
 254 518 l 1
 286 716 l 1
EndSplineSet
EndChar

StartChar: plus
Encoding: 43 43 78
GlifName: plus
Width: 626
Flags: W
HStem: 214 170<149 262 459 572>
LayerCount: 2
Fore
SplineSet
311 523 m 1
 481 523 l 1
 459 384 l 1
 599 384 l 1
 572 214 l 1
 432 214 l 1
 410 73 l 1
 240 73 l 1
 262 214 l 1
 122 214 l 1
 149 384 l 1
 289 384 l 1
 311 523 l 1
EndSplineSet
EndChar

StartChar: comma
Encoding: 44 44 79
GlifName: comma
Width: 292
Flags: W
HStem: -113 259<109.328 150.591>
VStem: 3 287
LayerCount: 2
Fore
SplineSet
110 146 m 5
 290 146 l 5
 274 44 225 -42 143 -113 c 5
 3 -113 l 5
 60 -31 96 55 110 146 c 5
EndSplineSet
EndChar

StartChar: hyphen
Encoding: 45 45 80
GlifName: hyphen
Width: 466
Flags: W
HStem: 213 170<114 447>
LayerCount: 2
Fore
SplineSet
87 213 m 1
 114 383 l 1
 474 383 l 1
 447 213 l 1
 87 213 l 1
EndSplineSet
EndChar

StartChar: period
Encoding: 46 46 81
GlifName: period
Width: 292
Flags: W
HStem: -15 206<109.001 210.065>
VStem: 57 206
LayerCount: 2
Fore
SplineSet
263 88 m 0
 258 59 244 35 221 15 c 0
 198 -5 173 -15 144 -15 c 0
 115 -15 92 -5 75 15 c 0
 58 35 52 59 57 88 c 0
 62 117 75 141 98 161 c 0
 121 181 147 191 176 191 c 0
 205 191 227 181 244 161 c 0
 261 141 268 117 263 88 c 0
EndSplineSet
EndChar

StartChar: slash
Encoding: 47 47 82
GlifName: slash
Width: 455
Flags: W
LayerCount: 2
Fore
SplineSet
394 747 m 5
 547 694 l 5
 165 -88 l 5
 12 -35 l 5
 394 747 l 5
EndSplineSet
EndChar

StartChar: colon
Encoding: 58 58 83
GlifName: colon
Width: 352
Flags: W
HStem: -1 206<143.474 240.526> 294 206<189.331 288.669>
VStem: 89 253
LayerCount: 2
Fore
SplineSet
223 294 m 256
 195 294 172 304 155 324 c 0
 138 344 132 369 136 397 c 256
 140 425 154 450 178 470 c 0
 202 490 227 500 255 500 c 256
 283 500 306 490 323 470 c 0
 340 450 346 425 342 397 c 256
 338 369 324 344 300 324 c 0
 276 304 251 294 223 294 c 256
176 -1 m 256
 148 -1 125 10 108 30 c 0
 91 50 85 74 89 102 c 256
 93 130 107 154 131 174 c 0
 155 194 180 205 208 205 c 256
 236 205 259 194 276 174 c 0
 293 154 299 130 295 102 c 256
 291 74 277 50 253 30 c 0
 229 10 204 -1 176 -1 c 256
EndSplineSet
EndChar

StartChar: semicolon
Encoding: 59 59 84
GlifName: semicolon
Width: 359
Flags: W
HStem: 290 206<195.396 294.669>
LayerCount: 2
Fore
SplineSet
120 146 m 5
 300 146 l 5
 284 44 235 -42 153 -113 c 5
 13 -113 l 5
 70 -31 106 55 120 146 c 5
229 290 m 0
 201 290 178 300 161 320 c 0
 144 340 138 365 142 393 c 0
 146 421 160 446 184 466 c 0
 208 486 234 496 262 496 c 0
 290 496 312 486 329 466 c 0
 346 446 352 421 348 393 c 0
 344 365 330 340 306 320 c 0
 282 300 257 290 229 290 c 0
EndSplineSet
EndChar

StartChar: less
Encoding: 60 60 85
GlifName: less
Width: 646
Flags: W
LayerCount: 2
Fore
SplineSet
610 549 m 1
 581 366 l 1
 392 293 l 1
 558 221 l 1
 529 38 l 1
 154 202 l 1
 183 385 l 1
 610 549 l 1
EndSplineSet
EndChar

StartChar: equal
Encoding: 61 61 86
GlifName: equal
Width: 646
Flags: W
HStem: 112 170<168 561> 312 170<199 592>
LayerCount: 2
Fore
SplineSet
172 312 m 5
 199 482 l 5
 619 482 l 5
 592 312 l 5
 172 312 l 5
141 112 m 1
 168 282 l 1
 588 282 l 1
 561 112 l 1
 141 112 l 1
EndSplineSet
EndChar

StartChar: greater
Encoding: 62 62 87
GlifName: greater
Width: 646
Flags: W
LayerCount: 2
Fore
SplineSet
209 549 m 1
 180 366 l 1
 346 293 l 1
 157 221 l 1
 128 38 l 1
 555 202 l 1
 584 385 l 1
 209 549 l 1
EndSplineSet
EndChar

StartChar: question
Encoding: 63 63 88
GlifName: question
Width: 514
Flags: W
HStem: -15 206<205.001 306.065> 542 170<283.534 381.221>
LayerCount: 2
Fore
SplineSet
359 88 m 4
 354 59 340 35 317 15 c 4
 294 -5 269 -15 240 -15 c 4
 211 -15 188 -5 171 15 c 4
 154 35 148 59 153 88 c 4
 158 117 171 141 194 161 c 4
 217 181 243 191 272 191 c 4
 301 191 323 181 340 161 c 4
 357 141 364 117 359 88 c 4
364 712 m 4
 429 712 480 689 519 643 c 4
 558 597 572 542 562 477 c 4
 555 432 536 390 505 352 c 4
 474 314 437 284 393 264 c 4
 381 259 372 252 365 242 c 4
 359 234 356 224 354 213 c 5
 184 213 l 5
 191 255 209 295 238 333 c 4
 267 371 303 400 344 418 c 4
 357 424 368 432 376 441 c 4
 384 451 390 463 392 477 c 4
 395 496 391 512 381 524 c 4
 371 536 356 542 337 542 c 4
 320 542 304 537 290 526 c 4
 276 515 268 501 263 484 c 5
 99 508 l 5
 116 566 150 615 200 654 c 4
 250 693 305 712 364 712 c 4
EndSplineSet
EndChar

StartChar: at
Encoding: 64 64 89
GlifName: at
Width: 979
Flags: W
HStem: -210 120<359.885 540.572> -113 128<685.5 759.674> 16 139<456.522 578.365> 349 139<481.126 602.478> 594 120<462.261 699.115>
LayerCount: 2
Fore
SplineSet
603 714 m 0xb8
 664 714 721 701 774 678 c 0
 827 655 871 621 907 578 c 0
 943 535 970 486 984 429 c 0
 998 372 1001 313 991 252 c 0
 981 190 961 131 928 74 c 0
 895 17 853 -32 803 -75 c 0
 774 -100 741 -113 704 -113 c 0
 667 -113 636 -99 614 -73 c 0
 592 -47 584 -15 590 22 c 2
 592 37 l 1
 559 23 526 16 492 16 c 0
 427 16 375 39 336 85 c 0
 297 131 283 187 293 252 c 0
 303 317 336 373 389 419 c 0
 442 465 502 488 567 488 c 0
 632 488 684 465 723 419 c 0
 762 373 775 317 765 252 c 2
 729 22 l 2
 729 20 729 18 730 17 c 0
 731 16 733 15 735 15 c 0x78
 737 15 738 16 740 17 c 0
 813 83 857 161 871 252 c 0
 881 314 874 371 852 423 c 0
 840 451 826 475 807 497 c 4
 790 516 771 534 748 548 c 0
 700 578 646 594 584 594 c 0
 522 594 462 578 405 548 c 0
 348 518 300 475 261 423 c 0
 222 371 198 314 188 252 c 0
 178 190 184 133 206 81 c 0
 217 55 232 31 249 10 c 0
 266 -11 287 -29 311 -44 c 0
 359 -74 413 -90 475 -90 c 0
 496 -90 518 -87 540 -83 c 1
 553 -199 l 1
 520 -206 487 -210 456 -210 c 0
 395 -210 338 -197 285 -174 c 0
 232 -151 187 -117 151 -74 c 0
 115 -31 89 18 75 75 c 0
 61 132 58 191 68 252 c 0
 78 313 99 372 131 429 c 0
 163 486 205 535 255 578 c 0
 305 621 360 655 420 678 c 0
 480 701 542 714 603 714 c 0xb8
545 349 m 0
 518 349 494 340 472 321 c 0
 450 302 436 279 432 252 c 0
 428 225 434 202 450 183 c 0
 466 164 487 155 514 155 c 0
 541 155 565 164 587 183 c 0
 609 202 622 225 626 252 c 0
 630 279 625 302 609 321 c 0
 593 340 572 349 545 349 c 0
EndSplineSet
EndChar

StartChar: braceleft
Encoding: 123 123 90
GlifName: braceleft
Width: 408
Flags: W
LayerCount: 2
Fore
SplineSet
339 -100 m 1
 268 -100 217 -76 187 -28 c 0
 157 20 150 93 165 188 c 0
 170 218 166 238 156 249 c 0
 146 260 126 265 95 265 c 5
 122 435 l 5
 153 435 174 440 188 451 c 0
 202 462 211 482 216 512 c 0
 231 607 262 680 307 728 c 0
 352 776 411 800 482 800 c 1
 455 630 l 1
 434 630 420 622 411 608 c 0
 402 594 394 562 386 513 c 0
 376 451 347 404 299 372 c 0
 286 364 272 356 257 350 c 1
 270 344 282 336 292 328 c 0
 330 296 345 249 335 187 c 0
 327 139 325 108 329 94 c 0
 333 80 346 71 366 70 c 1
 339 -100 l 1
EndSplineSet
EndChar

StartChar: bar
Encoding: 124 124 91
GlifName: bar
Width: 296
Flags: W
VStem: 28 170<-220 -50> 188 170<620 790>
LayerCount: 2
Fore
SplineSet
188 790 m 1x40
 358 790 l 1x40
 198 -220 l 1
 28 -220 l 1x80
 188 790 l 1x40
EndSplineSet
EndChar

StartChar: braceright
Encoding: 125 125 92
GlifName: braceright
Width: 408
Flags: W
LayerCount: 2
Fore
SplineSet
37 -100 m 1
 108 -100 167 -76 212 -28 c 0
 257 20 288 93 303 188 c 0
 308 218 316 238 330 249 c 0
 344 260 366 265 397 265 c 5
 424 435 l 5
 393 435 372 440 362 451 c 0
 352 462 349 482 354 512 c 0
 369 607 362 680 332 728 c 0
 302 776 251 800 180 800 c 1
 153 630 l 1
 174 630 186 622 190 608 c 0
 194 594 192 562 184 513 c 0
 174 451 189 404 227 372 c 0
 237 364 249 356 262 350 c 1
 247 344 233 336 220 328 c 0
 172 296 143 249 133 187 c 0
 125 139 117 108 108 94 c 0
 99 80 85 71 64 70 c 1
 37 -100 l 1
EndSplineSet
EndChar

StartChar: asciitilde
Encoding: 126 126 93
GlifName: asciitilde
Width: 745
Flags: W
HStem: 145 170<538.408 610.432> 318 170<291.213 356.599>
LayerCount: 2
Fore
SplineSet
344 488 m 0
 445 488 507 447 527 366 c 0
 530 354 533 344 537 336 c 0
 543 322 555 315 571 315 c 0
 584 315 595 320 604 329 c 0
 617 341 626 361 633 388 c 1
 803 388 l 1
 791 323 763 266 716 218 c 0
 669 170 614 146 551 145 c 0
 460 144 400 187 372 274 c 0
 365 295 358 309 351 313 c 0
 345 316 337 318 329 318 c 0
 316 318 304 313 294 304 c 0
 281 292 270 272 262 245 c 1
 92 245 l 1
 104 310 133 368 180 416 c 0
 227 464 282 488 344 488 c 0
EndSplineSet
EndChar

StartChar: exclamdown
Encoding: 161 161 94
GlifName: exclamdown
Width: 332
Flags: W
HStem: 306 206<180.001 280.999>
VStem: 49 170<-204 -34> 120 170<75 245>
LayerCount: 2
Fore
SplineSet
214 306 m 0x80
 243 306 269 316 292 336 c 0
 315 356 329 380 334 409 c 0
 339 438 332 462 315 482 c 0
 298 502 276 512 247 512 c 0
 218 512 192 502 169 482 c 0
 146 462 133 438 128 409 c 0
 123 380 129 356 146 336 c 0
 163 316 185 306 214 306 c 0x80
49 -204 m 1xc0
 219 -204 l 1xc0
 290 245 l 1
 120 245 l 1xa0
 49 -204 l 1xc0
EndSplineSet
EndChar

StartChar: cent
Encoding: 162 162 95
GlifName: cent
Width: 480
Flags: W
HStem: 0 21G<225 328.077> 680 20G<332.809 436>
LayerCount: 2
Fore
SplineSet
421 609 m 1
 475 601 520 576 555 535 c 1
 416 415 l 1
 410 423 401 429 393 433 c 1
 367 267 l 1
 377 271 386 277 395 285 c 1
 496 165 l 1
 448 124 396 99 339 91 c 1
 325 0 l 1
 225 0 l 1
 240 94 l 1
 195 105 157 129 126 165 c 0
 83 216 67 278 78 350 c 0
 89 422 126 484 185 535 c 0
 227 571 272 595 321 606 c 1
 336 700 l 1
 436 700 l 1
 421 609 l 1
291 420 m 1
 289 419 288 417 286 415 c 0
 265 397 252 375 248 350 c 0
 244 325 250 303 265 285 c 0
 266 283 268 281 269 280 c 1
 291 420 l 1
EndSplineSet
EndChar

StartChar: sterling
Encoding: 163 163 96
GlifName: sterling
Width: 619
Flags: W
HStem: 0 180<72 123.731 307 586> 252 180<111 148 356 536> 535 180<382.303 470.876>
LayerCount: 2
Fore
SplineSet
615 180 m 1
 586 0 l 1
 43 0 l 1
 72 180 l 1
 90 180 106 186 121 199 c 0
 136 212 144 227 147 245 c 2
 148 252 l 1
 83 252 l 1
 111 432 l 1
 176 432 l 1
 183 476 l 2
 193 542 226 598 280 645 c 0
 334 692 394 715 460 715 c 0
 526 715 579 692 618 645 c 0
 657 598 671 542 661 476 c 1
 481 476 l 1
 484 492 480 506 470 518 c 0
 460 530 448 535 432 535 c 0
 416 535 401 530 387 518 c 0
 373 506 366 492 363 476 c 2
 356 432 l 1
 564 432 l 1
 536 252 l 1
 328 252 l 1
 327 245 l 2
 323 223 316 201 307 180 c 1
 615 180 l 1
EndSplineSet
EndChar

StartChar: currency
Encoding: 164 164 97
GlifName: currency
Width: 651
Flags: W
HStem: 124 170<333.58 419.672> 406 170<342.085 428.447>
LayerCount: 2
Fore
SplineSet
427 390 m 0
 418 401 405 406 390 406 c 0
 375 406 361 401 348 390 c 0
 335 379 327 365 325 350 c 0
 323 335 326 321 335 310 c 0
 344 299 357 294 372 294 c 0
 387 294 401 299 414 310 c 0
 427 321 435 335 437 350 c 0
 439 365 436 379 427 390 c 0
565 612 m 1
 666 492 l 1
 604 439 l 1
 611 412 612 382 607 350 c 0
 602 318 592 288 576 261 c 1
 621 208 l 1
 482 88 l 1
 437 141 l 1
 408 129 377 124 345 124 c 0
 313 124 285 129 260 141 c 1
 197 88 l 1
 96 208 l 1
 158 261 l 1
 151 288 150 318 155 350 c 0
 160 382 170 412 186 439 c 1
 141 492 l 1
 281 612 l 1
 326 559 l 1
 355 571 385 576 417 576 c 0
 449 576 478 571 503 559 c 1
 565 612 l 1
EndSplineSet
EndChar

StartChar: yen
Encoding: 165 165 98
GlifName: yen
Width: 622
Flags: W
HStem: 0 21G<226 399.279> 61 132<104 236 427 558> 244 132<133 236 505 587> 680 20G<124 320.916 516.729 720>
LayerCount: 2
Fore
SplineSet
112 244 m 1
 133 376 l 1
 236 376 l 1
 124 700 l 1
 314 700 l 1
 388 486 l 1
 530 700 l 1
 720 700 l 1
 505 376 l 1
 608 376 l 1
 587 244 l 1
 435 244 l 1
 427 193 l 1
 579 193 l 1
 558 61 l 1
 406 61 l 1
 396 0 l 1
 226 0 l 1
 236 61 l 1
 83 61 l 1
 104 193 l 1
 257 193 l 1
 265 244 l 1
 112 244 l 1
EndSplineSet
EndChar

StartChar: brokenbar
Encoding: 166 166 99
GlifName: brokenbar
Width: 376
Flags: W
VStem: 68 170<-220 -50> 138 170<50 220> 158 170<350 520> 228 170<620 790>
LayerCount: 2
Fore
SplineSet
68 -220 m 1x80
 138 220 l 1
 308 220 l 1x40
 238 -220 l 1
 68 -220 l 1x80
158 350 m 1x20
 228 790 l 1
 398 790 l 1x10
 328 350 l 1
 158 350 l 1x20
EndSplineSet
EndChar

StartChar: section
Encoding: 167 167 100
GlifName: section
Width: 428
Flags: W
HStem: -91 112<168.992 275.368> 139 112<206.519 282.481> 369 112<243.519 319.481> 599 112<250.898 357.447>
VStem: 119 112<498.518 578.817>
LayerCount: 2
Fore
SplineSet
327 711 m 0
 379 711 419 695 448 662 c 0
 477 629 489 588 481 540 c 1
 369 540 l 1
 372 557 367 571 356 582 c 0
 345 593 330 599 309 599 c 0
 288 599 270 593 256 582 c 0
 242 571 234 557 231 540 c 0
 228 523 232 509 243 498 c 0
 254 487 269 481 290 481 c 0
 342 481 383 465 412 432 c 0
 441 399 452 358 444 310 c 0
 438 271 421 236 393 207 c 0
 389 203 385 199 381 195 c 1
 384 191 387 186 390 182 c 0
 408 153 414 119 408 80 c 0
 400 32 377 -9 337 -42 c 0
 297 -75 252 -91 200 -91 c 0
 148 -91 107 -75 78 -42 c 0
 49 -9 38 32 46 80 c 1
 158 80 l 1
 155 63 159 49 170 38 c 0
 181 27 196 21 217 21 c 0
 238 21 256 27 270 38 c 0
 284 49 293 63 296 80 c 0
 299 97 294 111 283 122 c 0
 272 133 257 139 236 139 c 0
 184 139 143 155 114 188 c 0
 85 221 74 262 82 310 c 0
 88 348 104 382 131 411 c 0
 135 416 140 420 145 425 c 1
 142 429 139 434 136 438 c 0
 118 467 113 501 119 540 c 0
 127 588 149 629 189 662 c 0
 229 695 275 711 327 711 c 0
272 369 m 0
 251 369 234 363 220 352 c 0
 206 341 197 327 194 310 c 0
 191 293 195 279 206 268 c 0
 217 257 233 251 254 251 c 0
 275 251 292 257 306 268 c 0
 320 279 329 293 332 310 c 0
 335 327 331 341 320 352 c 0
 309 363 293 369 272 369 c 0
EndSplineSet
EndChar

StartChar: dieresis
Encoding: 168 168 101
GlifName: dieresis
Width: 532
Flags: W
HStem: 569 176<188.678 281.322 458.678 551.322>
VStem: 147 176<609.375 704.625> 417 176<609.375 704.625>
LayerCount: 2
Fore
SplineSet
249 745 m 4
 273 745 292 736 307 719 c 4
 322 702 327 681 323 657 c 4
 319 633 307 612 287 595 c 4
 267 578 245 569 221 569 c 4
 197 569 178 578 163 595 c 4
 148 612 143 633 147 657 c 4
 151 681 163 702 183 719 c 4
 203 736 225 745 249 745 c 4
519 745 m 4
 543 745 562 736 577 719 c 4
 592 702 597 681 593 657 c 4
 589 633 577 612 557 595 c 4
 537 578 515 569 491 569 c 4
 467 569 448 578 433 595 c 4
 418 612 413 633 417 657 c 4
 421 681 433 702 453 719 c 4
 473 736 495 745 519 745 c 4
EndSplineSet
EndChar

StartChar: copyright
Encoding: 169 169 102
GlifName: copyright
Width: 779
Flags: W
HStem: -11 120<309.319 510.714> 153 120<381.776 496.717> 428 120<398.884 532.161> 592 120<379.286 580.681>
LayerCount: 2
Fore
SplineSet
502 712 m 0
 567 712 626 696 676 664 c 0
 726 632 764 588 787 532 c 0
 810 476 817 415 807 350 c 0
 797 285 770 225 729 169 c 0
 688 113 638 69 577 37 c 0
 516 5 453 -11 388 -11 c 0
 323 -11 264 5 214 37 c 0
 164 69 126 113 103 169 c 0
 80 225 74 285 84 350 c 0
 94 415 120 476 161 532 c 0
 202 588 252 632 313 664 c 0
 374 696 437 712 502 712 c 0
483 592 m 0
 416 592 356 568 301 521 c 0
 246 474 215 417 204 350 c 0
 193 283 207 227 247 180 c 0
 287 133 340 109 407 109 c 0
 474 109 534 133 589 180 c 0
 644 227 676 283 687 350 c 0
 698 417 683 474 643 521 c 0
 603 568 550 592 483 592 c 0
475 548 m 0
 530 548 573 529 605 490 c 1
 507 405 l 1
 494 420 477 428 456 428 c 0
 435 428 415 420 397 405 c 0
 379 390 369 371 366 350 c 0
 363 329 367 311 380 296 c 0
 393 281 410 273 431 273 c 0
 452 273 472 281 489 296 c 1
 561 211 l 1
 516 172 466 153 412 153 c 0
 357 153 314 172 282 211 c 0
 250 250 237 295 246 350 c 0
 255 405 281 451 326 490 c 0
 371 529 420 548 475 548 c 0
EndSplineSet
EndChar

StartChar: ordfeminine
Encoding: 170 170 103
GlifName: ordfeminine
Width: 365
Flags: W
HStem: 393 100<216.836 302.911> 606 101<225.089 311.436> 680 20G<354.522 446>
LayerCount: 2
Fore
SplineSet
358 700 m 1xa0
 446 700 l 1xa0
 399 400 l 1
 310 400 l 1
 313 420 l 1
 289 402 261 393 229 393 c 0
 186 393 153 408 129 438 c 0
 105 468 97 506 104 550 c 0
 111 594 132 631 165 661 c 0
 198 691 236 707 279 707 c 0xc0
 311 707 336 697 354 677 c 1
 358 700 l 1xa0
273 606 m 0xc0
 257 606 244 601 231 590 c 0
 218 579 210 566 208 550 c 0
 206 534 209 521 218 510 c 0
 227 499 239 493 255 493 c 0
 271 493 285 499 298 510 c 0
 311 521 319 534 321 550 c 0
 323 566 319 579 310 590 c 0
 301 601 289 606 273 606 c 0xc0
EndSplineSet
EndChar

StartChar: guillemotleft
Encoding: 171 171 104
GlifName: guillemotleft
Width: 826
Flags: W
LayerCount: 2
Fore
SplineSet
387 544 m 5
 488 424 l 5
 342 298 l 5
 448 172 l 5
 309 52 l 5
 102 298 l 5
 387 544 l 5
730 544 m 5
 831 424 l 5
 685 298 l 5
 791 172 l 5
 652 52 l 5
 445 298 l 5
 730 544 l 5
EndSplineSet
EndChar

StartChar: logicalnot
Encoding: 172 172 105
GlifName: logicalnot
Width: 646
Flags: W
HStem: 239 170<198 371>
LayerCount: 2
Fore
SplineSet
171 239 m 1
 198 409 l 1
 568 409 l 5
 524 135 l 5
 354 135 l 1
 371 239 l 1
 171 239 l 1
EndSplineSet
EndChar

StartChar: uni00AD
Encoding: 173 173 106
GlifName: uni00A_D_
Width: 406
Flags: W
HStem: 213 170<94 407>
LayerCount: 2
Fore
SplineSet
67 213 m 5
 94 383 l 5
 434 383 l 1
 407 213 l 1
 67 213 l 5
EndSplineSet
EndChar

StartChar: registered
Encoding: 174 174 107
GlifName: registered
Width: 614
Flags: W
HStem: 144 100<261.597 435.625> 499 78<361 409.764> 612 100<314.033 486.448>
VStem: 245 82<286 368> 416 82<453.262 491.811>
LayerCount: 2
Fore
SplineSet
420 712 m 0
 499 712 561 684 608 629 c 0
 655 574 671 507 659 428 c 0
 647 349 608 282 544 227 c 0
 480 172 409 144 330 144 c 0
 251 144 189 172 142 227 c 0
 95 282 79 349 91 428 c 0
 103 507 142 574 206 629 c 0
 270 684 341 712 420 712 c 0
404 612 m 0
 353 612 307 594 265 558 c 0
 223 522 199 479 191 428 c 0
 183 377 194 334 224 298 c 0
 254 262 295 244 346 244 c 0
 397 244 442 262 484 298 c 0
 526 334 551 377 559 428 c 0
 567 479 555 522 525 558 c 0
 495 594 455 612 404 612 c 0
291 577 m 1
 412 577 l 2
 440 577 462 567 479 547 c 0
 496 527 502 503 498 475 c 0
 495 459 489 444 481 431 c 4
 472 417 460 405 445 395 c 1
 468 286 l 1
 379 286 l 1
 361 373 l 1
 341 373 l 1
 327 286 l 1
 245 286 l 1
 291 577 l 1
361 499 m 1
 353 451 l 1
 382 451 l 2
 390 451 398 454 404 458 c 0
 410 462 415 468 416 475 c 0
 417 482 415 488 410 492 c 0
 405 496 398 499 390 499 c 2
 361 499 l 1
EndSplineSet
EndChar

StartChar: macron
Encoding: 175 175 108
GlifName: macron
Width: 306
Flags: W
HStem: 549 151<94 410>
LayerCount: 2
Fore
SplineSet
70 549 m 1
 94 700 l 1
 434 700 l 1
 410 549 l 1
 70 549 l 1
EndSplineSet
EndChar

StartChar: degree
Encoding: 176 176 109
GlifName: degree
Width: 393
Flags: W
HStem: 398 140<236.5 308.516> 584 140<267.635 333.5>
VStem: 122 327
LayerCount: 2
Fore
SplineSet
311 724 m 0
 356 724 392 709 419 677 c 0
 446 645 456 606 449 561 c 0
 442 516 420 477 383 445 c 0
 346 413 304 398 259 398 c 0
 214 398 178 413 151 445 c 0
 124 477 115 516 122 561 c 0
 129 606 151 645 188 677 c 0
 225 709 266 724 311 724 c 0
289 584 m 0
 283 584 276 583 271 578 c 0
 266 573 263 567 262 561 c 0
 261 555 262 549 266 544 c 0
 270 539 276 538 282 538 c 0
 288 538 294 539 299 544 c 0
 304 549 308 555 309 561 c 0
 310 567 309 573 305 578 c 0
 301 583 295 584 289 584 c 0
EndSplineSet
EndChar

StartChar: plusminus
Encoding: 177 177 110
GlifName: plusminus
Width: 646
Flags: W
HStem: 0 170<115 558> 308 170<179 287 484 592>
LayerCount: 2
Fore
SplineSet
88 0 m 1
 115 170 l 1
 585 170 l 1
 558 0 l 1
 88 0 l 1
152 308 m 1
 179 478 l 1
 314 478 l 1
 334 608 l 1
 504 608 l 1
 484 478 l 1
 619 478 l 1
 592 308 l 1
 457 308 l 1
 436 178 l 1
 266 178 l 1
 287 308 l 1
 152 308 l 1
EndSplineSet
EndChar

StartChar: uni00B2
Encoding: 178 178 111
GlifName: uni00B_2
Width: 378
Flags: W
HStem: 380 102<271 388> 706 102<257.288 327.54>
VStem: 104 330
LayerCount: 2
Fore
SplineSet
311 808 m 0
 350 808 381 794 406 767 c 0
 431 740 440 707 434 669 c 0
 427 627 409 594 379 569 c 2
 271 482 l 1
 404 482 l 1
 388 380 l 1
 104 380 l 1
 120 482 l 1
 312 636 l 2
 324 646 330 657 332 669 c 0
 334 680 332 689 325 696 c 0
 318 703 308 706 298 706 c 0
 288 706 279 703 270 697 c 0
 261 691 255 683 252 672 c 1
 155 691 l 1
 166 725 187 753 216 775 c 0
 245 797 277 808 311 808 c 0
EndSplineSet
EndChar

StartChar: uni00B3
Encoding: 179 179 112
GlifName: uni00B_3
Width: 361
Flags: W
HStem: 374 102<193.266 297.523> 479 20G<131.304 220.5> 705 102<240.385 321.643>
VStem: 301 101<482.97 531.717>
LayerCount: 2
Fore
SplineSet
310 807 m 0
 348 807 379 794 402 769 c 0
 425 744 434 713 428 677 c 0
 426 662 419 646 407 629 c 0
 399 617 388 605 375 592 c 1
 384 580 390 568 395 557 c 0
 403 539 405 522 402 506 c 0
 396 470 378 438 346 412 c 0
 314 386 279 374 241 374 c 0
 208 374 180 384 156 403 c 0
 132 422 120 447 118 476 c 1
 220 499 l 1
 221 491 226 486 233 482 c 0
 240 478 249 476 259 476 c 0
 268 476 276 479 285 485 c 0
 294 491 300 499 301 508 c 0
 303 518 300 526 294 532 c 0
 288 538 280 541 268 541 c 2
 247 541 l 1
 263 643 l 1
 284 643 l 2
 295 643 304 646 312 652 c 0
 320 658 324 666 326 676 c 0
 327 685 325 692 318 697 c 0
 311 702 304 705 294 705 c 0
 282 705 272 702 264 697 c 0
 258 693 253 688 250 681 c 1
 155 706 l 1
 166 735 187 759 217 778 c 0
 247 797 278 807 310 807 c 0
EndSplineSet
EndChar

StartChar: acute
Encoding: 180 180 113
GlifName: acute
Width: 308
Flags: W
HStem: 554 146<218 265>
VStem: 89 325
LayerCount: 2
Fore
SplineSet
89 554 m 5
 218 700 l 5
 414 700 l 5
 265 554 l 5
 89 554 l 5
EndSplineSet
EndChar

StartChar: mu
Encoding: 181 181 114
GlifName: mu
Width: 584
Flags: W
HStem: -200 21G<11 162.203> -12 170<266.098 368.367> 0 21G<388 539.16> 480 20G<118.829 292 441.875 615>
VStem: 11 148<-200 -52> 122 170<330 500> 445 170<330 500>
LayerCount: 2
Fore
SplineSet
615 500 m 5xd6
 536 0 l 1
 388 0 l 1xb6
 394 35 l 1
 372 4 337 -12 288 -12 c 0
 244 -12 213 2 196 31 c 1
 159 -200 l 1
 11 -200 l 1xda
 122 500 l 1
 292 500 l 1
 252 244 l 2
 248 219 252 198 264 182 c 0
 276 166 294 158 315 158 c 0
 336 158 354 166 372 182 c 0
 390 198 401 219 405 244 c 2
 445 500 l 5
 615 500 l 5xd6
EndSplineSet
EndChar

StartChar: paragraph
Encoding: 182 182 115
GlifName: paragraph
Width: 667
Flags: W
HStem: 680 20G<330.5 715>
VStem: 272 137<-84 53> 454 137<-84 53>
LayerCount: 2
Fore
SplineSet
364 700 m 2
 396 700 l 1
 715 700 l 1
 591 -84 l 1
 454 -84 l 1
 551 530 l 1
 506 530 l 1
 409 -84 l 1
 272 -84 l 1
 318 210 l 1
 286 210 l 2
 219 210 165 234 125 282 c 0
 85 330 69 388 80 455 c 0
 91 522 123 580 179 628 c 0
 235 676 297 700 364 700 c 2
EndSplineSet
EndChar

StartChar: periodcentered
Encoding: 183 183 116
GlifName: periodcentered
Width: 272
Flags: W
HStem: 246 206<141.001 241.999>
VStem: 88 206
LayerCount: 2
Fore
SplineSet
294 349 m 0
 289 320 276 296 253 276 c 0
 230 256 204 246 175 246 c 0
 146 246 124 256 107 276 c 0
 90 296 83 320 88 349 c 0
 93 378 107 402 130 422 c 0
 153 442 179 452 208 452 c 0
 237 452 259 442 276 422 c 0
 293 402 299 378 294 349 c 0
EndSplineSet
EndChar

StartChar: cedilla
Encoding: 184 184 117
GlifName: cedilla
Width: 260
Flags: W
HStem: -210 120<49.7728 137.15>
VStem: -20 287
LayerCount: 2
Fore
SplineSet
227 83 m 1
 262 50 275 7 267 -45 c 0
 260 -90 237 -130 200 -162 c 0
 163 -194 121 -210 76 -210 c 0
 38 -210 6 -198 -20 -175 c 1
 36 -109 65 -76 65 -76 c 4
 72 -85 82 -90 95 -90 c 0
 108 -90 119 -86 129 -77 c 0
 139 -68 145 -58 147 -45 c 0
 149 -34 146 -23 140 -15 c 0
 134 -7 125 -1 114 -0 c 1
 227 83 l 1
EndSplineSet
EndChar

StartChar: uni00B9
Encoding: 185 185 118
GlifName: uni00B_9
Width: 285
Flags: W
VStem: 186 102<380 482>
LayerCount: 2
Fore
SplineSet
253 800 m 1
 355 800 l 1
 288 380 l 1
 186 380 l 1
 232 667 l 1
 171 622 l 1
 117 700 l 1
 253 800 l 1
EndSplineSet
EndChar

StartChar: ordmasculine
Encoding: 186 186 119
GlifName: ordmasculine
Width: 348
Flags: W
HStem: 393 102<214.543 299.643> 605 102<223.026 307.457>
VStem: 104 314
LayerCount: 2
Fore
SplineSet
286 707 m 4
 329 707 364 692 390 661 c 4
 416 630 425 593 418 550 c 4
 411 507 390 470 354 439 c 4
 318 408 279 393 236 393 c 4
 193 393 158 408 132 439 c 4
 106 470 97 507 104 550 c 4
 111 593 131 630 167 661 c 4
 203 692 243 707 286 707 c 4
270 605 m 4
 255 605 240 600 228 589 c 4
 216 578 208 565 206 550 c 4
 204 535 207 522 216 511 c 4
 225 500 237 495 252 495 c 4
 267 495 282 500 294 511 c 4
 306 522 314 535 316 550 c 4
 318 565 315 578 306 589 c 4
 297 600 285 605 270 605 c 4
EndSplineSet
EndChar

StartChar: guillemotright
Encoding: 187 187 120
GlifName: guillemotright
Width: 826
Flags: W
LayerCount: 2
Fore
SplineSet
261 544 m 5
 122 424 l 5
 228 298 l 5
 82 172 l 5
 183 52 l 5
 468 298 l 5
 261 544 l 5
601 544 m 5
 462 424 l 5
 568 298 l 5
 422 172 l 5
 523 52 l 5
 808 298 l 5
 601 544 l 5
EndSplineSet
EndChar

StartChar: onequarter
Encoding: 188 188 121
GlifName: onequarter
Width: 854
Flags: W
HStem: 0 21G<659 764.385> 65 102<613 670 788 824> 680 20G<209.8 339>
VStem: 170 102<280 382> 704 102<177 279>
LayerCount: 2
Fore
SplineSet
663 420 m 1
 749 377 l 1
 613 167 l 1
 686 167 l 1
 704 279 l 1
 806 279 l 1
 788 167 l 1
 840 167 l 1
 824 65 l 1
 772 65 l 1
 761 0 l 1
 659 0 l 1
 670 65 l 1
 485 65 l 1
 501 167 l 1
 663 420 l 1
688 697 m 5
 772 633 l 5
 230 12 l 5
 148 75 l 5
 688 697 l 5
237 700 m 1
 339 700 l 1
 272 280 l 1
 170 280 l 1
 216 567 l 1
 155 522 l 1
 101 600 l 1
 237 700 l 1
EndSplineSet
EndChar

StartChar: onehalf
Encoding: 189 189 122
GlifName: onehalf
Width: 883
Flags: W
HStem: 0 102<716 832> 326 102<702.096 772.04> 680 20G<209.8 339>
VStem: 170 102<280 382>
LayerCount: 2
Fore
SplineSet
756 428 m 0
 795 428 826 414 851 387 c 0
 876 360 885 327 879 289 c 0
 872 247 854 214 824 189 c 2
 716 102 l 1
 848 102 l 1
 832 0 l 1
 549 0 l 1
 565 102 l 1
 757 256 l 2
 769 266 775 277 777 289 c 0
 779 300 776 309 769 316 c 0
 762 323 753 326 743 326 c 0
 733 326 723 323 714 317 c 0
 705 311 700 303 697 292 c 1
 600 311 l 1
 611 345 632 373 661 395 c 0
 690 417 722 428 756 428 c 0
688 697 m 5
 772 633 l 5
 230 12 l 5
 148 75 l 5
 688 697 l 5
237 700 m 1
 339 700 l 1
 272 280 l 1
 170 280 l 1
 216 567 l 1
 155 522 l 1
 101 600 l 1
 237 700 l 1
EndSplineSet
EndChar

StartChar: threequarters
Encoding: 190 190 123
GlifName: threequarters
Width: 930
Flags: W
HStem: 0 21G<735 840.385> 65 102<689 746 864 900> 274 102<178.236 281.693> 605 102<224.869 305.643>
VStem: 285 101<381.372 431.717> 780 102<177 279>
LayerCount: 2
Fore
SplineSet
739 420 m 1
 825 377 l 1
 689 167 l 1
 762 167 l 1
 780 279 l 1
 882 279 l 1
 864 167 l 1
 916 167 l 1
 900 65 l 1
 848 65 l 1
 837 0 l 1
 735 0 l 1
 746 65 l 1
 561 65 l 1
 577 167 l 1
 739 420 l 1
764 697 m 5
 848 633 l 5
 306 12 l 5
 224 75 l 5
 764 697 l 5
294 707 m 0
 332 707 363 694 386 669 c 0
 409 644 418 613 412 577 c 0
 410 562 403 546 391 529 c 0
 383 517 372 505 359 492 c 1
 368 480 374 468 379 457 c 0
 387 439 389 422 386 406 c 0
 380 370 362 338 330 312 c 0
 298 286 263 274 225 274 c 0
 192 274 165 284 141 303 c 0
 117 322 104 347 102 376 c 1
 205 399 l 1
 206 391 210 386 217 382 c 0
 224 378 233 376 243 376 c 0
 252 376 261 379 270 385 c 0
 279 391 284 399 285 408 c 0
 287 418 284 426 278 432 c 0
 272 438 264 441 252 441 c 2
 231 441 l 1
 248 543 l 1
 268 543 l 2
 279 543 288 546 296 552 c 0
 304 558 308 566 310 576 c 0
 311 585 309 592 302 597 c 0
 295 602 288 605 278 605 c 0
 266 605 256 602 248 597 c 0
 242 593 238 588 235 581 c 1
 140 606 l 1
 151 635 171 659 201 678 c 0
 231 697 262 707 294 707 c 0
EndSplineSet
EndChar

StartChar: questiondown
Encoding: 191 191 124
GlifName: questiondown
Width: 469
Flags: W
HStem: -215 170<186.779 282.713> 306 206<261.935 362.065>
LayerCount: 2
Fore
SplineSet
209 409 m 4
 214 438 228 462 251 482 c 4
 274 502 299 512 328 512 c 4
 357 512 380 502 397 482 c 4
 414 462 420 438 415 409 c 4
 410 380 396 356 373 336 c 4
 350 316 325 306 296 306 c 4
 267 306 244 316 227 336 c 4
 210 356 204 380 209 409 c 4
204 -215 m 4
 139 -215 88 -192 49 -146 c 4
 10 -100 -4 -45 6 20 c 4
 13 65 32 107 63 145 c 4
 94 183 131 213 175 233 c 4
 187 238 196 245 203 255 c 4
 209 263 212 273 214 284 c 5
 384 284 l 5
 377 242 358 202 329 164 c 4
 300 126 265 97 224 79 c 4
 211 73 200 65 192 56 c 4
 184 46 178 34 176 20 c 4
 173 1 177 -15 187 -27 c 4
 197 -39 212 -45 231 -45 c 4
 248 -45 263 -40 277 -29 c 4
 291 -18 300 -4 305 13 c 5
 469 -11 l 5
 452 -69 418 -118 368 -157 c 4
 318 -196 263 -215 204 -215 c 4
EndSplineSet
EndChar

StartChar: Agrave
Encoding: 192 192 125
GlifName: A_grave
Width: 695
Flags: W
HStem: 0 21G<10 199.892 500.914 685> 93 170<321 451> 680 20G<350.971 544.143> 754 147<364 458>
LayerCount: 2
Fore
SplineSet
364 754 m 5
 262 901 l 5
 458 901 l 5
 540 754 l 5
 364 754 l 5
321 263 m 1
 451 263 l 1
 413 446 l 1
 321 263 l 1
236 93 m 1
 190 0 l 1
 10 0 l 1
 361 700 l 1
 540 700 l 1
 685 0 l 1
 505 0 l 1
 486 93 l 1
 236 93 l 1
EndSplineSet
EndChar

StartChar: Aacute
Encoding: 193 193 126
GlifName: A_acute
Width: 695
Flags: W
HStem: 95 170<320 449> 682 20G<348.971 542.143>
LayerCount: 2
Fore
SplineSet
320 265 m 1
 449 265 l 1
 411 448 l 1
 320 265 l 1
235 95 m 1
 188 2 l 1
 8 2 l 1
 359 702 l 1
 538 702 l 1
 683 2 l 1
 503 2 l 1
 484 95 l 1
 235 95 l 1
368 744 m 5
 497 890 l 5
 693 890 l 5
 544 744 l 5
 368 744 l 5
EndSplineSet
EndChar

StartChar: Acircumflex
Encoding: 194 194 127
GlifName: A_circumflex
Width: 695
Flags: W
HStem: 0 21G<10 199.892 500.914 685> 93 170<321 451> 680 20G<350.971 544.143> 754 146<401 412 510 568>
LayerCount: 2
Fore
SplineSet
248 754 m 1
 401 900 l 1
 568 900 l 1
 675 754 l 1
 510 754 l 1
 470 806 l 1
 412 754 l 1
 248 754 l 1
321 263 m 1
 451 263 l 1
 413 446 l 1
 321 263 l 1
236 93 m 1
 190 0 l 1
 10 0 l 1
 361 700 l 1
 540 700 l 1
 685 0 l 1
 505 0 l 1
 486 93 l 1
 236 93 l 1
EndSplineSet
EndChar

StartChar: Atilde
Encoding: 195 195 128
GlifName: A_tilde
Width: 695
Flags: W
HStem: 0 21G<10 199.892 500.914 685> 93 170<321 451> 680 20G<350.971 544.143> 734 106<517.888 573.001> 806 106<375.195 437.473>
LayerCount: 2
Fore
SplineSet
531 734 m 0xf0
 490 734 462 746 447 770 c 0
 441 779 436 788 430 795 c 0
 424 802 416 806 405 806 c 0
 390 806 377 793 367 767 c 1
 250 767 l 1
 259 809 281 844 313 871 c 0
 345 898 379 912 415 912 c 0xe8
 460 912 491 900 508 876 c 0
 515 867 520 858 525 851 c 0
 530 844 537 840 547 840 c 0
 561 840 572 853 579 879 c 1
 696 879 l 5
 685 836 664 801 633 774 c 0
 602 747 568 734 531 734 c 0xf0
321 263 m 1
 451 263 l 1
 413 446 l 1
 321 263 l 1
236 93 m 1
 190 0 l 1
 10 0 l 1
 361 700 l 1
 540 700 l 1
 685 0 l 1
 505 0 l 1
 486 93 l 1
 236 93 l 1
EndSplineSet
EndChar

StartChar: Adieresis
Encoding: 196 196 129
GlifName: A_dieresis
Width: 695
Flags: W
HStem: 0 21G<10 199.892 500.914 685> 93 170<321 451> 680 20G<350.971 544.143> 769 176<292.678 385.322 562.678 655.322>
VStem: 251 176<809.375 904.625> 521 176<809.375 904.625>
LayerCount: 2
Fore
SplineSet
353 945 m 4
 377 945 396 936 411 919 c 4
 426 902 431 881 427 857 c 4
 423 833 411 812 391 795 c 4
 371 778 349 769 325 769 c 4
 301 769 282 778 267 795 c 4
 252 812 247 833 251 857 c 4
 255 881 267 902 287 919 c 4
 307 936 329 945 353 945 c 4
623 945 m 4
 647 945 666 936 681 919 c 4
 696 902 701 881 697 857 c 4
 693 833 681 812 661 795 c 4
 641 778 619 769 595 769 c 4
 571 769 552 778 537 795 c 4
 522 812 517 833 521 857 c 4
 525 881 537 902 557 919 c 4
 577 936 599 945 623 945 c 4
321 263 m 1
 451 263 l 1
 413 446 l 1
 321 263 l 1
236 93 m 1
 190 0 l 1
 10 0 l 1
 361 700 l 1
 540 700 l 1
 685 0 l 1
 505 0 l 1
 486 93 l 1
 236 93 l 1
EndSplineSet
EndChar

StartChar: Aring
Encoding: 197 197 130
GlifName: A_ring
Width: 695
Flags: W
HStem: 0 21G<10 199.892 500.914 685> 93 170<321 451> 680 20G<350.971 544.143> 720 97<444.338 502.051> 882 97<444.76 502.662>
LayerCount: 2
Fore
SplineSet
494 979 m 0
 530 979 559 966 580 941 c 0
 601 916 609 886 603 850 c 0
 597 814 580 783 551 758 c 0
 522 733 489 720 453 720 c 0
 417 720 388 733 367 758 c 0
 346 783 338 814 344 850 c 0
 350 886 367 916 396 941 c 0
 425 966 458 979 494 979 c 0
479 882 m 0
 470 882 461 878 454 872 c 0
 447 866 442 859 441 850 c 0
 440 841 442 833 447 827 c 0
 452 821 459 817 468 817 c 0
 477 817 486 821 493 827 c 0
 500 833 505 841 506 850 c 0
 507 859 505 866 500 872 c 0
 495 878 488 882 479 882 c 0
321 263 m 1
 451 263 l 1
 413 446 l 1
 321 263 l 1
236 93 m 1
 190 0 l 1
 10 0 l 1
 361 700 l 1
 540 700 l 1
 685 0 l 1
 505 0 l 1
 486 93 l 1
 236 93 l 1
EndSplineSet
EndChar

StartChar: AE
Encoding: 198 198 131
GlifName: A_E_
Width: 1039
Flags: W
HStem: 0 170<698 977> 266 169<740 948> 530 170<755 1060>
LayerCount: 2
Fore
SplineSet
612 700 m 1
 1087 700 l 1
 1060 530 l 1
 755 530 l 1
 740 435 l 1
 975 435 l 1
 948 266 l 1
 713 266 l 1
 698 170 l 1
 1004 170 l 1
 977 0 l 1
 501 0 l 1
 517 99 l 1
 311 99 l 1
 228 0 l 1
 22 0 l 1
 612 700 l 1
564 399 m 1
 451 265 l 1
 543 265 l 1
 564 399 l 1
EndSplineSet
EndChar

StartChar: Ccedilla
Encoding: 199 199 132
GlifName: C_cedilla
Width: 664
Flags: W
HStem: -210 120<272.773 360.15> -12 21G<336.5 412.5> 542 170<385.145 561.563>
LayerCount: 2
Fore
SplineSet
450 83 m 1
 485 50 498 7 490 -45 c 0
 483 -90 460 -130 423 -162 c 0
 386 -194 344 -210 299 -210 c 0
 261 -210 229 -198 203 -175 c 1
 259 -109 288 -76 288 -76 c 4
 295 -85 305 -90 318 -90 c 0
 331 -90 342 -86 352 -77 c 0
 362 -68 368 -58 370 -45 c 0
 372 -34 369 -23 363 -15 c 0
 357 -7 349 -1 338 -0 c 1
 450 83 l 1
502 712 m 0
 551 712 597 702 638 683 c 0
 679 664 714 638 742 605 c 1
 603 485 l 1
 571 523 529 542 476 542 c 0
 423 542 374 523 331 485 c 0
 288 447 261 403 253 350 c 0
 245 297 256 252 288 214 c 0
 320 176 362 158 415 158 c 0
 468 158 516 177 559 214 c 1
 660 94 l 1
 621 61 579 35 532 16 c 0
 485 -3 437 -12 388 -12 c 0
 285 -12 204 24 145 97 c 0
 88 167 67 252 83 350 c 0
 99 448 146 532 225 602 c 0
 307 675 399 712 502 712 c 0
EndSplineSet
EndChar

StartChar: Egrave
Encoding: 200 200 133
GlifName: E_grave
Width: 592
Flags: W
HStem: 0 170<260 539> 266 169<302 510> 530 170<317 622> 754 147<349 443>
LayerCount: 2
Fore
SplineSet
349 754 m 5
 247 901 l 5
 443 901 l 5
 525 754 l 5
 349 754 l 5
63 0 m 1
 174 700 l 1
 649 700 l 1
 622 530 l 1
 317 530 l 1
 302 435 l 1
 537 435 l 1
 510 266 l 1
 275 266 l 1
 260 170 l 1
 566 170 l 1
 539 0 l 1
 63 0 l 1
EndSplineSet
EndChar

StartChar: Eacute
Encoding: 201 201 134
GlifName: E_acute
Width: 592
Flags: W
HStem: 0 170<260 539> 266 169<302 510> 530 170<317 622>
LayerCount: 2
Fore
SplineSet
63 0 m 1
 174 700 l 1
 649 700 l 1
 622 530 l 1
 317 530 l 1
 302 435 l 1
 537 435 l 1
 510 266 l 1
 275 266 l 1
 260 170 l 1
 566 170 l 1
 539 0 l 1
 63 0 l 1
327 750 m 5
 456 898 l 5
 652 898 l 5
 503 750 l 5
 327 750 l 5
EndSplineSet
EndChar

StartChar: Ecircumflex
Encoding: 202 202 135
GlifName: E_circumflex
Width: 592
Flags: W
HStem: 0 170<260 539> 266 169<302 510> 530 170<317 622> 754 146<353 364 462 520>
LayerCount: 2
Fore
SplineSet
200 754 m 1
 353 900 l 1
 520 900 l 1
 627 754 l 1
 462 754 l 1
 422 806 l 1
 364 754 l 1
 200 754 l 1
63 0 m 1
 174 700 l 1
 649 700 l 1
 622 530 l 1
 317 530 l 1
 302 435 l 1
 537 435 l 1
 510 266 l 1
 275 266 l 1
 260 170 l 1
 566 170 l 1
 539 0 l 1
 63 0 l 1
EndSplineSet
EndChar

StartChar: Edieresis
Encoding: 203 203 136
GlifName: E_dieresis
Width: 592
Flags: W
HStem: 0 170<260 539> 266 169<302 510> 530 170<317 622> 769 176<251.678 344.322 521.678 614.322>
VStem: 210 176<809.375 904.625> 480 176<809.375 904.625>
LayerCount: 2
Fore
SplineSet
312 945 m 4
 336 945 355 936 370 919 c 4
 385 902 390 881 386 857 c 4
 382 833 370 812 350 795 c 4
 330 778 308 769 284 769 c 4
 260 769 241 778 226 795 c 4
 211 812 206 833 210 857 c 4
 214 881 226 902 246 919 c 4
 266 936 288 945 312 945 c 4
582 945 m 4
 606 945 625 936 640 919 c 4
 655 902 660 881 656 857 c 4
 652 833 640 812 620 795 c 4
 600 778 578 769 554 769 c 4
 530 769 511 778 496 795 c 4
 481 812 476 833 480 857 c 4
 484 881 496 902 516 919 c 4
 536 936 558 945 582 945 c 4
63 0 m 1
 174 700 l 1
 649 700 l 1
 622 530 l 1
 317 530 l 1
 302 435 l 1
 537 435 l 1
 510 266 l 1
 275 266 l 1
 260 170 l 1
 566 170 l 1
 539 0 l 1
 63 0 l 1
EndSplineSet
EndChar

StartChar: Igrave
Encoding: 204 204 137
GlifName: I_grave
Width: 296
Flags: W
HStem: 0 21G<63 236.171> 680 20G<170.829 344> 754 147<178 271>
VStem: 63 170<0 170> 174 170<530 700>
LayerCount: 2
Fore
SplineSet
178 754 m 5xe0
 75 901 l 5
 271 901 l 5
 354 754 l 5
 178 754 l 5xe0
63 0 m 1xf0
 174 700 l 1
 344 700 l 1xe8
 233 0 l 1
 63 0 l 1xf0
EndSplineSet
EndChar

StartChar: Iacute
Encoding: 205 205 138
GlifName: I_acute
Width: 296
Flags: W
HStem: 0 21G<63 236.171> 680 20G<170.829 344>
VStem: 63 170<0 170> 174 170<530 700>
LayerCount: 2
Fore
SplineSet
63 0 m 1xe0
 174 700 l 1
 344 700 l 1xd0
 233 0 l 1
 63 0 l 1xe0
179 750 m 5
 308 898 l 5
 504 898 l 5
 355 750 l 5
 179 750 l 5
EndSplineSet
EndChar

StartChar: Icircumflex
Encoding: 206 206 139
GlifName: I_circumflex
Width: 296
Flags: W
HStem: 0 21G<63 236.171> 680 20G<170.829 344>
VStem: 63 170<0 170> 174 170<530 700>
LayerCount: 2
Fore
SplineSet
60 754 m 1xc0
 214 900 l 1
 380 900 l 1
 488 754 l 1
 323 754 l 1
 282 806 l 1
 225 754 l 1
 60 754 l 1xc0
63 0 m 1xe0
 174 700 l 1
 344 700 l 1xd0
 233 0 l 1
 63 0 l 1xe0
EndSplineSet
EndChar

StartChar: Idieresis
Encoding: 207 207 140
GlifName: I_dieresis
Width: 296
Flags: W
HStem: 0 21G<63 236.171> 680 20G<170.829 344> 799 176<122.678 215.322 362.678 455.322>
VStem: 63 170<0 170> 81 176<839.375 934.625> 174 170<530 700> 321 176<839.375 934.625>
LayerCount: 2
Fore
SplineSet
63 0 m 1xf0
 174 700 l 1
 344 700 l 1xe4
 233 0 l 1
 63 0 l 1xf0
183 975 m 0
 207 975 226 966 241 949 c 0
 256 932 261 911 257 887 c 0
 253 863 241 842 221 825 c 0
 201 808 179 799 155 799 c 0
 131 799 112 808 97 825 c 0
 82 842 77 863 81 887 c 0xe8
 85 911 97 932 117 949 c 0
 137 966 159 975 183 975 c 0
423 975 m 0
 447 975 466 966 481 949 c 0
 496 932 501 911 497 887 c 0
 493 863 481 842 461 825 c 0
 441 808 419 799 395 799 c 0
 371 799 352 808 337 825 c 0
 322 842 317 863 321 887 c 0xe2
 325 911 337 932 357 949 c 0
 377 966 399 975 423 975 c 0
EndSplineSet
EndChar

StartChar: Eth
Encoding: 208 208 141
GlifName: E_th
Width: 713
Flags: W
HStem: 0 170<260 452.201> 266 169<92 403> 530 170<317 502.519>
LayerCount: 2
Fore
SplineSet
419 530 m 2
 317 530 l 1
 260 170 l 1
 362 170 l 2
 412 170 457 187 498 222 c 0
 539 257 562 300 570 350 c 0
 578 400 567 443 538 478 c 0
 509 513 469 530 419 530 c 2
446 700 m 2
 543 700 619 666 677 598 c 0
 735 530 755 447 740 350 c 0
 725 253 678 170 599 102 c 0
 520 34 432 0 335 0 c 2
 63 0 l 1
 174 700 l 1
 446 700 l 2
65 266 m 1
 92 435 l 1
 430 435 l 1
 403 266 l 1
 65 266 l 1
EndSplineSet
EndChar

StartChar: Ntilde
Encoding: 209 209 142
GlifName: N_tilde
Width: 719
Flags: W
HStem: 0 21G<63 236.188 476.18 659.171> 680 20G<170.829 353.82 593.812 767> 714 106<530.371 585.109> 786 106<387.959 449.934>
VStem: 63 170<0 170> 597 170<530 700>
LayerCount: 2
Fore
SplineSet
544 714 m 0xec
 503 714 474 726 459 750 c 0
 453 759 448 768 442 775 c 0
 436 782 428 786 417 786 c 0
 402 786 390 773 380 747 c 1
 263 747 l 1
 272 789 293 824 325 851 c 0
 357 878 392 892 428 892 c 0xdc
 473 892 503 880 520 856 c 0
 527 847 532 838 537 831 c 0
 542 824 549 820 559 820 c 0
 573 820 585 833 592 859 c 1
 709 859 l 5
 698 816 677 781 646 754 c 0
 615 727 581 714 544 714 c 0xec
174 700 m 1
 344 700 l 1
 535 311 l 1
 597 700 l 1
 767 700 l 1
 656 0 l 1
 486 0 l 1
 295 389 l 1
 233 0 l 1
 63 0 l 1
 174 700 l 1
EndSplineSet
EndChar

StartChar: Ograve
Encoding: 210 210 143
GlifName: O_grave
Width: 780
Flags: W
HStem: -12 170<328.415 508.25> 542 170<384.224 560.858> 754 147<441 534>
LayerCount: 2
Fore
SplineSet
441 754 m 5
 338 901 l 5
 534 901 l 5
 617 754 l 5
 441 754 l 5
476 542 m 0
 423 542 374 523 331 485 c 0
 288 447 261 403 253 350 c 0
 245 297 256 252 288 214 c 0
 320 176 362 158 415 158 c 0
 468 158 517 176 560 214 c 0
 603 252 629 297 637 350 c 0
 645 403 635 447 603 485 c 0
 571 523 529 542 476 542 c 0
503 712 m 0
 602 712 681 677 740 608 c 0
 801 537 823 452 807 350 c 0
 791 247 741 159 656 88 c 0
 575 21 486 -12 388 -12 c 0
 286 -12 206 23 147 95 c 0
 89 165 67 251 83 350 c 0
 99 449 148 534 228 604 c 0
 310 676 402 712 503 712 c 0
EndSplineSet
EndChar

StartChar: Oacute
Encoding: 211 211 144
GlifName: O_acute
Width: 780
Flags: W
HStem: -12 170<328.415 508.25> 542 170<384.224 560.858>
LayerCount: 2
Fore
SplineSet
476 542 m 0
 423 542 374 523 331 485 c 0
 288 447 261 403 253 350 c 0
 245 297 256 252 288 214 c 0
 320 176 362 158 415 158 c 0
 468 158 517 176 560 214 c 0
 603 252 629 297 637 350 c 0
 645 403 635 447 603 485 c 0
 571 523 529 542 476 542 c 0
503 712 m 0
 602 712 681 677 740 608 c 0
 801 537 823 452 807 350 c 0
 791 247 741 159 656 88 c 0
 575 21 486 -12 388 -12 c 0
 286 -12 206 23 147 95 c 0
 89 165 67 251 83 350 c 0
 99 449 148 534 228 604 c 0
 310 676 402 712 503 712 c 0
415 750 m 5
 544 898 l 5
 740 898 l 5
 591 750 l 5
 415 750 l 5
EndSplineSet
EndChar

StartChar: Ocircumflex
Encoding: 212 212 145
GlifName: O_circumflex
Width: 780
Flags: W
HStem: -12 170<328.415 508.25> 542 170<384.224 560.858>
LayerCount: 2
Fore
SplineSet
292 754 m 1
 446 900 l 1
 612 900 l 1
 720 754 l 1
 555 754 l 1
 514 806 l 1
 457 754 l 1
 292 754 l 1
476 542 m 0
 423 542 374 523 331 485 c 0
 288 447 261 403 253 350 c 0
 245 297 256 252 288 214 c 0
 320 176 362 158 415 158 c 0
 468 158 517 176 560 214 c 0
 603 252 629 297 637 350 c 0
 645 403 635 447 603 485 c 0
 571 523 529 542 476 542 c 0
503 712 m 0
 602 712 681 677 740 608 c 0
 801 537 823 452 807 350 c 0
 791 247 741 159 656 88 c 0
 575 21 486 -12 388 -12 c 0
 286 -12 206 23 147 95 c 0
 89 165 67 251 83 350 c 0
 99 449 148 534 228 604 c 0
 310 676 402 712 503 712 c 0
EndSplineSet
EndChar

StartChar: Otilde
Encoding: 213 213 146
GlifName: O_tilde
Width: 780
Flags: W
HStem: -12 170<328.415 508.25> 542 170<384.224 560.858> 734 106<586.371 642.001> 806 106<443.959 505.934>
LayerCount: 2
Fore
SplineSet
600 734 m 0xe0
 559 734 530 746 515 770 c 0
 509 779 504 788 498 795 c 0
 492 802 484 806 473 806 c 0
 458 806 446 793 436 767 c 1
 319 767 l 1
 328 809 349 844 381 871 c 0
 413 898 448 912 484 912 c 0xd0
 529 912 559 900 576 876 c 0
 583 867 588 858 593 851 c 0
 598 844 606 840 616 840 c 0
 630 840 641 853 648 879 c 1
 765 879 l 5
 754 836 733 801 702 774 c 0
 671 747 637 734 600 734 c 0xe0
476 542 m 0
 423 542 374 523 331 485 c 0
 288 447 261 403 253 350 c 0
 245 297 256 252 288 214 c 0
 320 176 362 158 415 158 c 0
 468 158 517 176 560 214 c 0
 603 252 629 297 637 350 c 0
 645 403 635 447 603 485 c 0
 571 523 529 542 476 542 c 0
503 712 m 0
 602 712 681 677 740 608 c 0
 801 537 823 452 807 350 c 0
 791 247 741 159 656 88 c 0
 575 21 486 -12 388 -12 c 0
 286 -12 206 23 147 95 c 0
 89 165 67 251 83 350 c 0
 99 449 148 534 228 604 c 0
 310 676 402 712 503 712 c 0
EndSplineSet
EndChar

StartChar: Odieresis
Encoding: 214 214 147
GlifName: O_dieresis
Width: 780
Flags: W
HStem: -12 170<328.415 508.25> 542 170<384.224 560.858> 769 176<354.678 447.322 624.678 717.322>
VStem: 313 176<809.375 904.625> 583 176<809.375 904.625>
LayerCount: 2
Fore
SplineSet
415 945 m 4
 439 945 458 936 473 919 c 4
 488 902 493 881 489 857 c 4
 485 833 473 812 453 795 c 4
 433 778 411 769 387 769 c 4
 363 769 344 778 329 795 c 4
 314 812 309 833 313 857 c 4
 317 881 329 902 349 919 c 4
 369 936 391 945 415 945 c 4
685 945 m 4
 709 945 728 936 743 919 c 4
 758 902 763 881 759 857 c 4
 755 833 743 812 723 795 c 4
 703 778 681 769 657 769 c 4
 633 769 614 778 599 795 c 4
 584 812 579 833 583 857 c 4
 587 881 599 902 619 919 c 4
 639 936 661 945 685 945 c 4
476 542 m 0
 423 542 374 523 331 485 c 0
 288 447 261 403 253 350 c 0
 245 297 256 252 288 214 c 0
 320 176 362 158 415 158 c 0
 468 158 517 176 560 214 c 0
 603 252 629 297 637 350 c 0
 645 403 635 447 603 485 c 0
 571 523 529 542 476 542 c 0
503 712 m 0
 602 712 681 677 740 608 c 0
 801 537 823 452 807 350 c 0
 791 247 741 159 656 88 c 0
 575 21 486 -12 388 -12 c 0
 286 -12 206 23 147 95 c 0
 89 165 67 251 83 350 c 0
 99 449 148 534 228 604 c 0
 310 676 402 712 503 712 c 0
EndSplineSet
EndChar

StartChar: multiply
Encoding: 215 215 148
GlifName: multiply
Width: 646
Flags: W
LayerCount: 2
Fore
SplineSet
223 67 m 1
 122 188 l 1
 250 298 l 1
 157 408 l 1
 296 529 l 1
 389 418 l 1
 517 529 l 1
 618 408 l 1
 490 298 l 1
 583 188 l 1
 444 67 l 1
 351 178 l 1
 223 67 l 1
EndSplineSet
EndChar

StartChar: Oslash
Encoding: 216 216 149
GlifName: O_slash
Width: 779
Flags: W
HStem: -12 170<367.739 508.25> 542 170<384.224 522.991>
LayerCount: 2
Fore
SplineSet
476 542 m 0
 423 542 374 523 331 485 c 0
 288 447 261 403 253 350 c 0
 245 297 256 252 288 214 c 0
 320 176 362 158 415 158 c 0
 468 158 517 176 560 214 c 0
 603 252 629 297 637 350 c 0
 645 403 635 447 603 485 c 0
 571 523 529 542 476 542 c 0
503 712 m 0
 602 712 681 677 740 608 c 0
 801 537 823 452 807 350 c 0
 791 247 741 159 656 88 c 0
 575 21 486 -12 388 -12 c 0
 286 -12 206 23 147 95 c 0
 89 165 67 251 83 350 c 0
 99 449 148 534 228 604 c 0
 310 676 402 712 503 712 c 0
242 -8 m 1
 118 90 l 1
 648 707 l 1
 772 609 l 1
 242 -8 l 1
EndSplineSet
EndChar

StartChar: Ugrave
Encoding: 217 217 150
GlifName: U_grave
Width: 706
Flags: W
HStem: -12 170<312.555 449.544> 680 20G<160.806 334 590.806 764> 754 147<395 489>
VStem: 164 170<530 700> 594 170<530 700>
LayerCount: 2
Fore
SplineSet
395 754 m 5
 293 901 l 5
 489 901 l 5
 571 754 l 5
 395 754 l 5
164 700 m 1
 334 700 l 1
 273 318 l 2
 265 269 272 231 292 202 c 0
 312 173 341 158 378 158 c 0
 415 158 447 173 477 202 c 0
 507 231 525 269 533 318 c 2
 594 700 l 1
 764 700 l 1
 703 318 l 2
 688 222 647 143 579 81 c 0
 511 19 435 -12 351 -12 c 0
 267 -12 201 19 153 81 c 0
 105 143 88 222 103 318 c 2
 164 700 l 1
EndSplineSet
EndChar

StartChar: Uacute
Encoding: 218 218 151
GlifName: U_acute
Width: 706
Flags: W
HStem: -12 170<312.555 449.544> 680 20G<160.806 334 590.806 764>
VStem: 164 170<530 700> 594 170<530 700>
LayerCount: 2
Fore
SplineSet
381 724 m 5
 510 870 l 5
 706 870 l 5
 557 724 l 5
 381 724 l 5
164 700 m 1
 334 700 l 1
 273 318 l 2
 265 269 272 231 292 202 c 0
 312 173 341 158 378 158 c 0
 415 158 447 173 477 202 c 0
 507 231 525 269 533 318 c 2
 594 700 l 1
 764 700 l 1
 703 318 l 2
 688 222 647 143 579 81 c 0
 511 19 435 -12 351 -12 c 0
 267 -12 201 19 153 81 c 0
 105 143 88 222 103 318 c 2
 164 700 l 1
EndSplineSet
EndChar

StartChar: Ucircumflex
Encoding: 219 219 152
GlifName: U_circumflex
Width: 706
Flags: W
HStem: -12 170<312.555 449.544> 680 20G<160.806 334 590.806 764> 754 146<396 407 505 563>
VStem: 164 170<530 700> 594 170<530 700>
LayerCount: 2
Fore
SplineSet
243 754 m 1
 396 900 l 1
 563 900 l 1
 670 754 l 1
 505 754 l 1
 465 806 l 1
 407 754 l 1
 243 754 l 1
164 700 m 1
 334 700 l 1
 273 318 l 2
 265 269 272 231 292 202 c 0
 312 173 341 158 378 158 c 0
 415 158 447 173 477 202 c 0
 507 231 525 269 533 318 c 2
 594 700 l 1
 764 700 l 1
 703 318 l 2
 688 222 647 143 579 81 c 0
 511 19 435 -12 351 -12 c 0
 267 -12 201 19 153 81 c 0
 105 143 88 222 103 318 c 2
 164 700 l 1
EndSplineSet
EndChar

StartChar: Udieresis
Encoding: 220 220 153
GlifName: U_dieresis
Width: 706
Flags: W
HStem: -12 170<312.555 449.544> 680 20G<160.806 334 590.806 764> 769 176<307.678 400.322 577.678 670.322>
VStem: 164 170<530 700> 266 176<809.375 904.625> 536 176<809.375 904.625> 594 170<530 700>
LayerCount: 2
Fore
SplineSet
368 945 m 4xe8
 392 945 411 936 426 919 c 4
 441 902 446 881 442 857 c 4
 438 833 426 812 406 795 c 4
 386 778 364 769 340 769 c 4
 316 769 297 778 282 795 c 4
 267 812 262 833 266 857 c 4
 270 881 282 902 302 919 c 4
 322 936 344 945 368 945 c 4xe8
638 945 m 4
 662 945 681 936 696 919 c 4
 711 902 716 881 712 857 c 4
 708 833 696 812 676 795 c 4
 656 778 634 769 610 769 c 4
 586 769 567 778 552 795 c 4
 537 812 532 833 536 857 c 4xe4
 540 881 552 902 572 919 c 4
 592 936 614 945 638 945 c 4
164 700 m 1xf2
 334 700 l 1
 273 318 l 2
 265 269 272 231 292 202 c 0
 312 173 341 158 378 158 c 0
 415 158 447 173 477 202 c 0
 507 231 525 269 533 318 c 2
 594 700 l 1
 764 700 l 1
 703 318 l 2
 688 222 647 143 579 81 c 0
 511 19 435 -12 351 -12 c 0
 267 -12 201 19 153 81 c 0
 105 143 88 222 103 318 c 2
 164 700 l 1xf2
EndSplineSet
EndChar

StartChar: Yacute
Encoding: 221 221 154
GlifName: Y_acute
Width: 641
Flags: W
HStem: 0 21G<236 408.182> 680 20G<120 327.265 529.306 743>
VStem: 236 169<0 169>
LayerCount: 2
Fore
SplineSet
335 724 m 5
 464 870 l 5
 660 870 l 5
 511 724 l 5
 335 724 l 5
120 700 m 1
 319 700 l 1
 400 504 l 1
 544 700 l 1
 743 700 l 1
 454 308 l 5
 405 0 l 1
 236 0 l 1
 284 308 l 1
 120 700 l 1
EndSplineSet
EndChar

StartChar: Thorn
Encoding: 222 222 155
GlifName: T_horn
Width: 614
Flags: W
HStem: 1 21G<73 246.273> 111 170<288 456.784> 431 170<338 473.388> 681 20G<180.829 354>
LayerCount: 2
Fore
SplineSet
184 701 m 1
 354 701 l 1
 338 601 l 1
 452 601 l 2
 520 601 574 577 614 529 c 0
 654 481 669 424 658 356 c 0
 647 288 614 231 559 183 c 0
 504 135 442 111 374 111 c 2
 261 111 l 1
 243 1 l 1
 73 1 l 1
 184 701 l 1
311 431 m 1
 288 281 l 1
 401 281 l 2
 421 281 440 288 457 303 c 0
 474 318 485 336 488 356 c 0
 491 376 487 394 474 409 c 0
 461 424 445 431 425 431 c 2
 311 431 l 1
EndSplineSet
EndChar

StartChar: germandbls
Encoding: 223 223 156
GlifName: germandbls
Width: 566
Flags: W
HStem: 0 21G<48 221.147 277 334.5> 542 170<316.632 419.454>
VStem: 48 170<0 170>
LayerCount: 2
Fore
SplineSet
398 712 m 0
 465 712 517 691 556 648 c 0
 595 605 610 552 600 491 c 0
 596 468 590 447 580 426 c 0
 570 404 557 384 540 365 c 1
 553 347 563 327 569 307 c 4
 577 280 578 252 573 221 c 0
 563 160 532 107 480 64 c 0
 428 21 368 0 301 0 c 2
 277 0 l 1
 304 170 l 1
 328 170 l 2
 347 170 364 175 378 185 c 0
 392 195 401 207 403 221 c 0
 405 235 401 246 390 256 c 0
 379 266 363 271 344 271 c 2
 320 271 l 1
 347 441 l 1
 371 441 l 2
 384 441 397 446 409 456 c 0
 421 466 428 478 430 491 c 0
 432 505 428 517 417 527 c 0
 406 537 391 542 371 542 c 0
 352 542 335 536 320 524 c 0
 305 512 296 498 294 483 c 2
 218 0 l 1
 48 0 l 1
 124 483 l 2
 134 546 166 599 219 644 c 0
 272 689 331 712 398 712 c 0
EndSplineSet
EndChar

StartChar: agrave
Encoding: 224 224 157
GlifName: agrave
Width: 602
Flags: W
HStem: -12 168<260.013 373.873> 0 21G<406 557.16> 344 168<282.774 400.681> 480 20G<481.842 633> 554 147<286 379>
LayerCount: 2
Fore
SplineSet
286 554 m 5x08
 183 701 l 5
 379 701 l 5
 462 554 l 5
 286 554 l 5x08
485 500 m 1x18
 633 500 l 1
 554 0 l 1
 406 0 l 1x58
 411 33 l 1
 407 30 403 27 399 24 c 4
 362 0 319 -12 271 -12 c 0
 200 -12 145 13 105 64 c 0
 65 115 51 177 63 250 c 0
 75 323 108 385 164 436 c 0
 220 487 283 512 354 512 c 0xa8
 402 512 441 499 471 471 c 0
 474 468 476 465 479 462 c 1
 485 500 l 1x18
344 344 m 0xa8
 318 344 295 334 274 316 c 0
 253 298 240 276 236 250 c 0
 232 224 238 202 253 184 c 0
 268 166 289 156 315 156 c 0
 341 156 365 166 386 184 c 0
 407 202 420 224 424 250 c 0
 428 276 422 298 407 316 c 0
 392 334 370 344 344 344 c 0xa8
EndSplineSet
EndChar

StartChar: aacute
Encoding: 225 225 158
GlifName: aacute
Width: 602
Flags: W
HStem: -12 168<260.013 373.873> 0 21G<406 557.16> 344 168<282.774 400.681> 480 20G<481.842 633> 680 20G<379.329 593>
LayerCount: 2
Fore
SplineSet
268 554 m 5x08
 397 700 l 5
 593 700 l 5
 444 554 l 5
 268 554 l 5x08
485 500 m 1x18
 633 500 l 1
 554 0 l 1
 406 0 l 1x58
 411 33 l 1
 407 30 403 27 399 24 c 4
 362 0 319 -12 271 -12 c 0
 200 -12 145 13 105 64 c 0
 65 115 51 177 63 250 c 0
 75 323 108 385 164 436 c 0
 220 487 283 512 354 512 c 0xa8
 402 512 441 499 471 471 c 0
 474 468 476 465 479 462 c 1
 485 500 l 1x18
344 344 m 0xa8
 318 344 295 334 274 316 c 0
 253 298 240 276 236 250 c 0
 232 224 238 202 253 184 c 0
 268 166 289 156 315 156 c 0
 341 156 365 166 386 184 c 0
 407 202 420 224 424 250 c 0
 428 276 422 298 407 316 c 0
 392 334 370 344 344 344 c 0xa8
EndSplineSet
EndChar

StartChar: acircumflex
Encoding: 226 226 159
GlifName: acircumflex
Width: 602
Flags: W
HStem: -12 168<260.013 373.873> 0 21G<406 557.16> 344 168<282.774 400.681> 480 20G<481.842 633> 554 146<319 331 429 486>
LayerCount: 2
Fore
SplineSet
166 554 m 1x08
 319 700 l 1
 486 700 l 1
 593 554 l 1
 429 554 l 1
 388 606 l 1
 331 554 l 1
 166 554 l 1x08
485 500 m 1x18
 633 500 l 1
 554 0 l 1
 406 0 l 1x58
 411 33 l 1
 407 30 403 27 399 24 c 4
 362 0 319 -12 271 -12 c 0
 200 -12 145 13 105 64 c 0
 65 115 51 177 63 250 c 0
 75 323 108 385 164 436 c 0
 220 487 283 512 354 512 c 0xa8
 402 512 441 499 471 471 c 0
 474 468 476 465 479 462 c 1
 485 500 l 1x18
344 344 m 0xa8
 318 344 295 334 274 316 c 0
 253 298 240 276 236 250 c 0
 232 224 238 202 253 184 c 0
 268 166 289 156 315 156 c 0
 341 156 365 166 386 184 c 0
 407 202 420 224 424 250 c 0
 428 276 422 298 407 316 c 0
 392 334 370 344 344 344 c 0xa8
EndSplineSet
EndChar

StartChar: atilde
Encoding: 227 227 160
GlifName: atilde
Width: 602
Flags: W
HStem: -12 168<260.013 373.873> 0 21G<406 557.16> 344 168<282.774 400.681> 480 20G<481.842 633> 534 106<447.371 502.753> 606 106<304.959 366.934>
LayerCount: 2
Fore
SplineSet
461 534 m 0x08
 420 534 391 546 376 570 c 0
 370 579 365 588 359 595 c 0
 353 602 345 606 334 606 c 0
 319 606 307 593 297 567 c 1
 180 567 l 1
 189 609 210 644 242 671 c 0
 274 698 309 712 345 712 c 0x04
 390 712 420 700 437 676 c 0
 444 667 449 658 454 651 c 0
 459 644 466 640 476 640 c 0
 490 640 502 653 509 679 c 1
 626 679 l 5
 615 636 593 601 562 574 c 0
 531 547 498 534 461 534 c 0x08
485 500 m 1x10
 633 500 l 1
 554 0 l 1
 406 0 l 1x50
 411 33 l 1
 407 30 403 27 399 24 c 4
 362 0 319 -12 271 -12 c 0
 200 -12 145 13 105 64 c 0
 65 115 51 177 63 250 c 0
 75 323 108 385 164 436 c 0
 220 487 283 512 354 512 c 0xa0
 402 512 441 499 471 471 c 0
 474 468 476 465 479 462 c 1
 485 500 l 1x10
344 344 m 0xa0
 318 344 295 334 274 316 c 0
 253 298 240 276 236 250 c 0
 232 224 238 202 253 184 c 0
 268 166 289 156 315 156 c 0
 341 156 365 166 386 184 c 0
 407 202 420 224 424 250 c 0
 428 276 422 298 407 316 c 0
 392 334 370 344 344 344 c 0xa0
EndSplineSet
EndChar

StartChar: adieresis
Encoding: 228 228 161
GlifName: adieresis
Width: 602
Flags: W
HStem: -12 168<260.013 373.873> 0 21G<406 557.16> 344 168<282.774 400.681> 480 20G<481.842 633> 569 176<212.678 305.322 482.678 575.322>
VStem: 171 176<609.375 704.625> 441 176<609.375 704.625>
LayerCount: 2
Fore
SplineSet
273 745 m 4x0e
 297 745 316 736 331 719 c 4
 346 702 351 681 347 657 c 4
 343 633 331 612 311 595 c 4
 291 578 269 569 245 569 c 4
 221 569 202 578 187 595 c 4
 172 612 167 633 171 657 c 4
 175 681 187 702 207 719 c 4
 227 736 249 745 273 745 c 4x0e
543 745 m 4
 567 745 586 736 601 719 c 4
 616 702 621 681 617 657 c 4
 613 633 601 612 581 595 c 4
 561 578 539 569 515 569 c 4
 491 569 472 578 457 595 c 4
 442 612 437 633 441 657 c 4
 445 681 457 702 477 719 c 4
 497 736 519 745 543 745 c 4
485 500 m 1x1e
 633 500 l 1
 554 0 l 1
 406 0 l 1x5e
 411 33 l 1
 407 30 403 27 399 24 c 4
 362 0 319 -12 271 -12 c 0
 200 -12 145 13 105 64 c 0
 65 115 51 177 63 250 c 0
 75 323 108 385 164 436 c 0
 220 487 283 512 354 512 c 0xae
 402 512 441 499 471 471 c 0
 474 468 476 465 479 462 c 1
 485 500 l 1x1e
344 344 m 0xae
 318 344 295 334 274 316 c 0
 253 298 240 276 236 250 c 0
 232 224 238 202 253 184 c 0
 268 166 289 156 315 156 c 0
 341 156 365 166 386 184 c 0
 407 202 420 224 424 250 c 0
 428 276 422 298 407 316 c 0
 392 334 370 344 344 344 c 0xae
EndSplineSet
EndChar

StartChar: aring
Encoding: 229 229 162
GlifName: aring
Width: 602
Flags: W
HStem: -12 168<260.013 373.873> 0 21G<406 557.16> 344 168<282.774 400.681> 480 20G<481.842 633> 520 97<358.161 415.051> 682 97<358.487 415.662>
LayerCount: 2
Fore
SplineSet
407 779 m 0x0c
 443 779 472 766 493 741 c 0
 514 716 522 686 516 650 c 0
 510 614 493 583 464 558 c 0
 435 533 402 520 366 520 c 0
 330 520 302 533 281 558 c 0
 260 583 251 614 257 650 c 0
 263 686 281 716 310 741 c 0
 339 766 371 779 407 779 c 0x0c
392 682 m 0
 383 682 375 678 368 672 c 0
 361 666 356 659 355 650 c 0
 354 641 355 633 360 627 c 0
 365 621 373 617 382 617 c 0
 391 617 399 621 406 627 c 0
 413 633 418 641 419 650 c 0
 420 659 418 666 413 672 c 0
 408 678 401 682 392 682 c 0
485 500 m 1x1c
 633 500 l 1
 554 0 l 1
 406 0 l 1x5c
 411 33 l 1
 407 30 403 27 399 24 c 4
 362 0 319 -12 271 -12 c 0
 200 -12 145 13 105 64 c 0
 65 115 51 177 63 250 c 0
 75 323 108 385 164 436 c 0
 220 487 283 512 354 512 c 0xac
 402 512 441 499 471 471 c 0
 474 468 476 465 479 462 c 1
 485 500 l 1x1c
344 344 m 0xac
 318 344 295 334 274 316 c 0
 253 298 240 276 236 250 c 0
 232 224 238 202 253 184 c 0
 268 166 289 156 315 156 c 0
 341 156 365 166 386 184 c 0
 407 202 420 224 424 250 c 0
 428 276 422 298 407 316 c 0
 392 334 370 344 344 344 c 0xac
EndSplineSet
EndChar

StartChar: ae
Encoding: 230 230 163
GlifName: ae
Width: 1122
Flags: W
HStem: -12 168<260.013 373.873> -12 136<814.37 959.887> 0 21G<406 557.16> 180 120<807 961> 344 168<282.774 400.681> 356 156<833.993 940.933> 480 20G<481.842 633>
LayerCount: 2
Fore
SplineSet
1114 180 m 5x54
 792 180 l 5
 796 166 806 153 818 141 c 4
 830 129 846 124 867 124 c 4
 910 124 929 132 965 148 c 5
 1034 44 l 5
 966 1 914 -12 846 -12 c 4
 771 -12 709 14 663 65 c 4
 617 116 600 178 611 250 c 4
 623 323 658 385 717 436 c 4
 776 487 841 512 914 512 c 4
 983 512 1039 486 1080 435 c 4
 1121 384 1136 320 1124 244 c 6
 1114 180 l 5x54
894 356 m 4
 875 356 859 352 845 343 c 4
 830 334 817 319 807 300 c 5
 961 300 l 5
 957 320 949 335 937 344 c 4x18
 926 352 912 356 894 356 c 4
485 500 m 1x12
 633 500 l 1
 554 0 l 1
 406 0 l 1x32
 411 33 l 1
 407 30 403 27 399 24 c 0
 362 0 319 -12 271 -12 c 0
 200 -12 145 13 105 64 c 0
 65 115 51 177 63 250 c 0
 75 323 108 385 164 436 c 0
 220 487 283 512 354 512 c 0x98
 402 512 441 499 471 471 c 0
 474 468 476 465 479 462 c 1
 485 500 l 1x12
344 344 m 0x98
 318 344 295 334 274 316 c 0
 253 298 240 276 236 250 c 0
 232 224 238 202 253 184 c 0
 268 166 289 156 315 156 c 0
 341 156 365 166 386 184 c 0
 407 202 420 224 424 250 c 0
 428 276 422 298 407 316 c 0
 392 334 370 344 344 344 c 0x98
EndSplineSet
EndChar

StartChar: ccedilla
Encoding: 231 231 164
GlifName: ccedilla
Width: 482
Flags: W
HStem: -211 120<190.773 278.15> -12 21G<246.5 319> 342 170<277.155 425.012>
LayerCount: 2
Fore
SplineSet
368 82 m 1
 403 49 416 6 408 -46 c 0
 401 -91 378 -130 341 -162 c 0
 304 -194 262 -211 217 -211 c 0
 179 -211 147 -199 121 -176 c 1
 177 -110 206 -77 206 -77 c 4
 213 -86 223 -91 236 -91 c 0
 249 -91 260 -87 270 -78 c 0
 280 -69 286 -59 288 -46 c 0
 290 -35 288 -24 282 -16 c 0
 276 -8 267 -2 256 -1 c 1
 368 82 l 1
366 512 m 0
 438 512 496 486 539 435 c 1
 400 315 l 1
 385 333 364 342 339 342 c 0
 314 342 291 333 270 315 c 0
 249 297 236 275 232 250 c 0
 228 225 234 203 249 185 c 0
 264 167 285 158 310 158 c 0
 335 158 358 167 379 185 c 1
 480 65 l 1
 421 14 355 -12 283 -12 c 0
 210 -12 152 13 109 64 c 0
 66 115 50 177 62 250 c 0
 74 323 109 385 168 436 c 0
 227 487 293 512 366 512 c 0
EndSplineSet
EndChar

StartChar: egrave
Encoding: 232 232 165
GlifName: egrave
Width: 550
Flags: W
HStem: -12 136<266.897 412.718> 180 120<260 414> 356 156<286.993 393.933> 554 147<301 394>
LayerCount: 2
Fore
SplineSet
567 180 m 5
 245 180 l 5
 249 166 259 153 271 141 c 4
 283 129 299 124 320 124 c 4
 363 124 382 132 418 148 c 5
 487 44 l 5
 419 1 366 -12 298 -12 c 4
 223 -12 162 14 116 65 c 4
 70 116 53 178 64 250 c 4
 76 323 111 385 170 436 c 4
 229 487 294 512 367 512 c 4
 436 512 492 486 533 435 c 4
 574 384 589 320 577 244 c 6
 567 180 l 5
347 356 m 4
 328 356 312 352 298 343 c 4
 283 334 270 319 260 300 c 5
 414 300 l 5
 410 320 402 335 390 344 c 4
 379 352 365 356 347 356 c 4
301 554 m 1
 198 701 l 1
 394 701 l 1
 477 554 l 1
 301 554 l 1
EndSplineSet
EndChar

StartChar: eacute
Encoding: 233 233 166
GlifName: eacute
Width: 550
Flags: W
HStem: -12 136<266.897 412.718> 180 120<260 414> 356 156<286.993 393.933> 680 20G<395.329 609>
LayerCount: 2
Fore
SplineSet
567 180 m 5
 245 180 l 5
 249 166 259 153 271 141 c 4
 283 129 299 124 320 124 c 4
 363 124 382 132 418 148 c 5
 487 44 l 5
 419 1 366 -12 298 -12 c 4
 223 -12 162 14 116 65 c 4
 70 116 53 178 64 250 c 4
 76 323 111 385 170 436 c 4
 229 487 294 512 367 512 c 4
 436 512 492 486 533 435 c 4
 574 384 589 320 577 244 c 6
 567 180 l 5
347 356 m 4
 328 356 312 352 298 343 c 4
 283 334 270 319 260 300 c 5
 414 300 l 5
 410 320 402 335 390 344 c 4
 379 352 365 356 347 356 c 4
284 554 m 1
 413 700 l 1
 609 700 l 1
 460 554 l 1
 284 554 l 1
EndSplineSet
EndChar

StartChar: ecircumflex
Encoding: 234 234 167
GlifName: ecircumflex
Width: 550
Flags: W
HStem: -12 136<266.897 412.718> 180 120<260 414> 356 156<286.993 393.933> 554 146<309 321 419 476>
LayerCount: 2
Fore
SplineSet
567 180 m 5
 245 180 l 5
 249 166 259 153 271 141 c 4
 283 129 299 124 320 124 c 4
 363 124 382 132 418 148 c 5
 487 44 l 5
 419 1 366 -12 298 -12 c 4
 223 -12 162 14 116 65 c 4
 70 116 53 178 64 250 c 4
 76 323 111 385 170 436 c 4
 229 487 294 512 367 512 c 4
 436 512 492 486 533 435 c 4
 574 384 589 320 577 244 c 6
 567 180 l 5
347 356 m 4
 328 356 312 352 298 343 c 4
 283 334 270 319 260 300 c 5
 414 300 l 5
 410 320 402 335 390 344 c 4
 379 352 365 356 347 356 c 4
156 554 m 1
 309 700 l 1
 476 700 l 1
 583 554 l 1
 419 554 l 1
 378 606 l 1
 321 554 l 1
 156 554 l 1
EndSplineSet
EndChar

StartChar: edieresis
Encoding: 235 235 168
GlifName: edieresis
Width: 550
Flags: W
HStem: -12 136<266.897 412.718> 180 120<260 414> 356 156<286.993 393.933> 569 176<206.678 299.322 476.678 569.322>
VStem: 165 176<609.375 704.625> 435 176<609.375 704.625>
LayerCount: 2
Fore
SplineSet
567 180 m 5
 245 180 l 5
 249 166 259 153 271 141 c 4
 283 129 299 124 320 124 c 4
 363 124 382 132 418 148 c 5
 487 44 l 5
 419 1 366 -12 298 -12 c 4
 223 -12 162 14 116 65 c 4
 70 116 53 178 64 250 c 4
 76 323 111 385 170 436 c 4
 229 487 294 512 367 512 c 4
 436 512 492 486 533 435 c 4
 574 384 589 320 577 244 c 6
 567 180 l 5
347 356 m 4
 328 356 312 352 298 343 c 4
 283 334 270 319 260 300 c 5
 414 300 l 5
 410 320 402 335 390 344 c 4
 379 352 365 356 347 356 c 4
267 745 m 0
 291 745 310 736 325 719 c 0
 340 702 345 681 341 657 c 0
 337 633 325 612 305 595 c 0
 285 578 263 569 239 569 c 0
 215 569 196 578 181 595 c 0
 166 612 161 633 165 657 c 0
 169 681 181 702 201 719 c 0
 221 736 243 745 267 745 c 0
537 745 m 0
 561 745 580 736 595 719 c 0
 610 702 615 681 611 657 c 0
 607 633 595 612 575 595 c 0
 555 578 533 569 509 569 c 0
 485 569 466 578 451 595 c 0
 436 612 431 633 435 657 c 0
 439 681 451 702 471 719 c 0
 491 736 513 745 537 745 c 0
EndSplineSet
EndChar

StartChar: igrave
Encoding: 236 236 169
GlifName: igrave
Width: 296
Flags: W
HStem: 0 21G<63 236.16> 480 20G<138.84 312> 554 147<150 243>
VStem: 63 170<0 170> 142 170<330 500>
LayerCount: 2
Fore
SplineSet
150 554 m 5xe0
 47 701 l 5
 243 701 l 5
 326 554 l 5
 150 554 l 5xe0
63 0 m 1xf0
 142 500 l 1
 312 500 l 1xe8
 233 0 l 1
 63 0 l 1xf0
EndSplineSet
EndChar

StartChar: iacute
Encoding: 237 237 170
GlifName: iacute
Width: 296
Flags: W
HStem: 0 21G<63 236.16> 480 20G<138.84 312> 680 20G<258.329 472>
VStem: 63 170<0 170> 142 170<330 500>
LayerCount: 2
Fore
SplineSet
147 554 m 5xe0
 276 700 l 5
 472 700 l 5
 323 554 l 5
 147 554 l 5xe0
63 0 m 1xf0
 142 500 l 1
 312 500 l 1xe8
 233 0 l 1
 63 0 l 1xf0
EndSplineSet
EndChar

StartChar: icircumflex
Encoding: 238 238 171
GlifName: icircumflex
Width: 296
Flags: W
HStem: 0 21G<63 236.16> 480 20G<138.84 312> 554 146<179 191 289 346>
VStem: 63 170<0 170> 142 170<330 500>
LayerCount: 2
Fore
SplineSet
26 554 m 1xe0
 179 700 l 1
 346 700 l 1
 453 554 l 1
 289 554 l 1
 248 606 l 1
 191 554 l 1
 26 554 l 1xe0
63 0 m 1xf0
 142 500 l 1
 312 500 l 1xe8
 233 0 l 1
 63 0 l 1xf0
EndSplineSet
EndChar

StartChar: idieresis
Encoding: 239 239 172
GlifName: idieresis
Width: 296
Flags: W
HStem: 0 21G<63 236.16> 480 20G<138.84 312> 569 176<85.6777 178.322 325.678 418.322>
VStem: 44 176<609.375 704.625> 63 170<0 170> 142 170<330 500> 284 176<609.375 704.625>
LayerCount: 2
Fore
SplineSet
63 0 m 1xe8
 142 500 l 1
 312 500 l 1xe4
 233 0 l 1
 63 0 l 1xe8
146 745 m 4
 170 745 189 736 204 719 c 4
 219 702 224 681 220 657 c 4
 216 633 204 612 184 595 c 4
 164 578 142 569 118 569 c 4
 94 569 75 578 60 595 c 4
 45 612 40 633 44 657 c 4xf0
 48 681 60 702 80 719 c 4
 100 736 122 745 146 745 c 4
386 745 m 4
 410 745 429 736 444 719 c 4
 459 702 464 681 460 657 c 4
 456 633 444 612 424 595 c 4
 404 578 382 569 358 569 c 4
 334 569 315 578 300 595 c 4
 285 612 280 633 284 657 c 4xe2
 288 681 300 702 320 719 c 4
 340 736 362 745 386 745 c 4
EndSplineSet
EndChar

StartChar: eth
Encoding: 240 240 173
GlifName: eth
Width: 565
Flags: W
HStem: -12 170<252.198 361.626> 322 170<270.374 366.008> 692 20G<275.532 296.5 453.286 499.372>
LayerCount: 2
Fore
SplineSet
356 492 m 0
 426 492 482 467 523 418 c 0
 564 369 579 310 568 240 c 0
 557 170 523 111 466 62 c 0
 409 13 346 -12 276 -12 c 0
 206 -12 150 13 109 62 c 0
 68 111 53 170 64 240 c 0
 75 310 109 369 166 418 c 0
 223 467 286 492 356 492 c 0
329 322 m 0
 306 322 286 314 267 298 c 0
 248 282 238 263 234 240 c 0
 230 217 236 198 249 182 c 0
 262 166 280 158 303 158 c 0
 326 158 346 166 365 182 c 0
 384 198 394 217 398 240 c 0
 402 263 396 282 383 298 c 0
 370 314 352 322 329 322 c 0
192 558 m 1
 288 712 l 1
 305 711 328 707 356 699 c 4
 379 692 401 683 422 672 c 0
 443 661 465 643 488 619 c 0
 511 595 530 568 545 536 c 0
 560 504 570 462 575 411 c 0
 580 360 578 303 568 240 c 1
 398 240 l 1
 408 302 408 355 397 399 c 0
 390 429 378 456 361 478 c 0
 344 500 323 518 296 532 c 0
 261 550 226 559 192 558 c 1
227 566 m 1
 491 706 l 1
 527 620 l 1
 263 480 l 1
 227 566 l 1
EndSplineSet
EndChar

StartChar: ntilde
Encoding: 241 241 174
GlifName: ntilde
Width: 584
Flags: W
HStem: 0 21G<48 221.182 371 544.203> 342 170<317.694 445> 480 20G<123.84 285> 534 106<441.371 496.753> 606 106<298.959 360.934>
VStem: 48 170<0 170> 371 170<0 170>
LayerCount: 2
Fore
SplineSet
455 534 m 0x96
 414 534 385 546 370 570 c 0
 364 579 359 588 353 595 c 0
 347 602 339 606 328 606 c 0
 313 606 301 593 291 567 c 1
 174 567 l 1
 183 609 204 644 236 671 c 0
 268 698 303 712 339 712 c 0x8e
 384 712 414 700 431 676 c 0
 438 667 443 658 448 651 c 0
 453 644 460 640 470 640 c 0
 484 640 496 653 503 679 c 1
 620 679 l 5
 609 636 587 601 556 574 c 0
 525 547 492 534 455 534 c 0x96
541 0 m 1
 371 0 l 1
 413 264 l 2
 417 287 412 306 400 320 c 0
 388 334 371 342 349 342 c 0xc6
 327 342 308 334 291 320 c 0
 274 306 264 287 260 264 c 2
 218 0 l 1
 48 0 l 1
 127 500 l 1
 285 500 l 1
 279 463 l 1
 286 469 293 475 300 480 c 4xa6
 331 501 369 512 412 512 c 0xc6
 478 512 526 488 555 440 c 0
 584 392 594 331 582 256 c 2
 541 0 l 1
EndSplineSet
EndChar

StartChar: ograve
Encoding: 242 242 175
GlifName: ograve
Width: 570
Flags: W
HStem: -12 170<255.396 371.634> 342 170<277.558 393.604> 554 147<295 389>
LayerCount: 2
Fore
SplineSet
295 554 m 5
 193 701 l 5
 389 701 l 5
 471 554 l 5
 295 554 l 5
339 342 m 0
 314 342 291 333 270 315 c 0
 249 297 237 275 233 250 c 0
 229 225 234 203 249 185 c 0
 264 167 285 158 310 158 c 0
 335 158 358 167 379 185 c 0
 400 203 413 225 417 250 c 0
 421 275 415 297 400 315 c 0
 385 333 364 342 339 342 c 0
366 512 m 0
 438 512 496 486 539 435 c 0
 582 384 598 322 587 250 c 0
 576 178 540 116 481 65 c 0
 422 14 355 -12 283 -12 c 0
 211 -12 153 14 110 65 c 0
 67 116 52 178 63 250 c 0
 74 322 110 384 169 435 c 0
 228 486 294 512 366 512 c 0
EndSplineSet
EndChar

StartChar: oacute
Encoding: 243 243 176
GlifName: oacute
Width: 570
Flags: W
HStem: -12 170<255.396 371.634> 342 170<277.558 393.604> 680 20G<391.329 605>
LayerCount: 2
Fore
SplineSet
280 554 m 5
 409 700 l 5
 605 700 l 5
 456 554 l 5
 280 554 l 5
339 342 m 0
 314 342 291 333 270 315 c 0
 249 297 237 275 233 250 c 0
 229 225 234 203 249 185 c 0
 264 167 285 158 310 158 c 0
 335 158 358 167 379 185 c 0
 400 203 413 225 417 250 c 0
 421 275 415 297 400 315 c 0
 385 333 364 342 339 342 c 0
366 512 m 0
 438 512 496 486 539 435 c 0
 582 384 598 322 587 250 c 0
 576 178 540 116 481 65 c 0
 422 14 355 -12 283 -12 c 0
 211 -12 153 14 110 65 c 0
 67 116 52 178 63 250 c 0
 74 322 110 384 169 435 c 0
 228 486 294 512 366 512 c 0
EndSplineSet
EndChar

StartChar: ocircumflex
Encoding: 244 244 177
GlifName: ocircumflex
Width: 570
Flags: W
HStem: -12 170<255.396 371.634> 342 170<277.558 393.604> 554 146<312 323 421 479>
LayerCount: 2
Fore
SplineSet
158 554 m 1
 312 700 l 1
 479 700 l 1
 586 554 l 1
 421 554 l 1
 380 606 l 1
 323 554 l 1
 158 554 l 1
339 342 m 0
 314 342 291 333 270 315 c 0
 249 297 237 275 233 250 c 0
 229 225 234 203 249 185 c 0
 264 167 285 158 310 158 c 0
 335 158 358 167 379 185 c 0
 400 203 413 225 417 250 c 0
 421 275 415 297 400 315 c 0
 385 333 364 342 339 342 c 0
366 512 m 0
 438 512 496 486 539 435 c 0
 582 384 598 322 587 250 c 0
 576 178 540 116 481 65 c 0
 422 14 355 -12 283 -12 c 0
 211 -12 153 14 110 65 c 0
 67 116 52 178 63 250 c 0
 74 322 110 384 169 435 c 0
 228 486 294 512 366 512 c 0
EndSplineSet
EndChar

StartChar: otilde
Encoding: 245 245 178
GlifName: otilde
Width: 570
Flags: W
HStem: -12 170<255.396 371.634> 342 170<277.558 393.604> 534 106<434.888 490.001> 606 106<292.117 354.473>
LayerCount: 2
Fore
SplineSet
448 534 m 0xe0
 407 534 379 546 364 570 c 0
 358 579 353 588 347 595 c 0
 341 602 332 606 321 606 c 0
 306 606 294 593 284 567 c 1
 167 567 l 1
 176 609 198 644 230 671 c 0
 262 698 296 712 332 712 c 0xd0
 377 712 408 700 425 676 c 0
 432 667 437 658 442 651 c 0
 447 644 454 640 464 640 c 0
 478 640 489 653 496 679 c 1
 613 679 l 5
 602 636 581 601 550 574 c 0
 519 547 485 534 448 534 c 0xe0
339 342 m 0
 314 342 291 333 270 315 c 0
 249 297 237 275 233 250 c 0
 229 225 234 203 249 185 c 0
 264 167 285 158 310 158 c 0
 335 158 358 167 379 185 c 0
 400 203 413 225 417 250 c 0
 421 275 415 297 400 315 c 0
 385 333 364 342 339 342 c 0
366 512 m 0
 438 512 496 486 539 435 c 0
 582 384 598 322 587 250 c 0
 576 178 540 116 481 65 c 0
 422 14 355 -12 283 -12 c 0
 211 -12 153 14 110 65 c 0
 67 116 52 178 63 250 c 0
 74 322 110 384 169 435 c 0
 228 486 294 512 366 512 c 0
EndSplineSet
EndChar

StartChar: odieresis
Encoding: 246 246 179
GlifName: odieresis
Width: 570
Flags: W
HStem: -12 170<255.396 371.634> 342 170<277.558 393.604> 569 176<208.726 302.274 478.726 572.274>
LayerCount: 2
Fore
SplineSet
269 745 m 4
 293 745 312 736 327 719 c 4
 342 702 348 681 344 657 c 4
 340 633 328 612 308 595 c 4
 288 578 266 569 242 569 c 4
 218 569 199 578 184 595 c 4
 169 612 164 633 168 657 c 4
 172 681 183 702 203 719 c 4
 223 736 245 745 269 745 c 4
539 745 m 4
 563 745 582 736 597 719 c 4
 612 702 618 681 614 657 c 4
 610 633 598 612 578 595 c 4
 558 578 536 569 512 569 c 4
 488 569 469 578 454 595 c 4
 439 612 434 633 438 657 c 4
 442 681 453 702 473 719 c 4
 493 736 515 745 539 745 c 4
339 342 m 0
 314 342 291 333 270 315 c 0
 249 297 237 275 233 250 c 0
 229 225 234 203 249 185 c 0
 264 167 285 158 310 158 c 0
 335 158 358 167 379 185 c 0
 400 203 413 225 417 250 c 0
 421 275 415 297 400 315 c 0
 385 333 364 342 339 342 c 0
366 512 m 0
 438 512 496 486 539 435 c 0
 582 384 598 322 587 250 c 0
 576 178 540 116 481 65 c 0
 422 14 355 -12 283 -12 c 0
 211 -12 153 14 110 65 c 0
 67 116 52 178 63 250 c 0
 74 322 110 384 169 435 c 0
 228 486 294 512 366 512 c 0
EndSplineSet
EndChar

StartChar: divide
Encoding: 247 247 180
GlifName: divide
Width: 646
Flags: W
HStem: 50 145<298.254 386.746> 213 170<169 572> 400 145<354.254 441.746>
LayerCount: 2
Fore
SplineSet
409 545 m 0
 429 545 445 538 457 524 c 0
 469 510 473 492 470 472 c 0
 467 452 457 435 441 421 c 0
 425 407 406 400 386 400 c 0
 366 400 350 407 338 421 c 0
 326 435 322 452 325 472 c 0
 328 492 339 510 355 524 c 0
 371 538 389 545 409 545 c 0
169 383 m 1
 599 383 l 1
 572 213 l 1
 142 213 l 1
 169 383 l 1
354 195 m 0
 374 195 390 188 402 174 c 0
 414 160 418 142 415 122 c 0
 412 102 402 85 386 71 c 0
 370 57 351 50 331 50 c 0
 311 50 295 57 283 71 c 0
 271 85 267 102 270 122 c 0
 273 142 283 160 299 174 c 0
 315 188 334 195 354 195 c 0
EndSplineSet
EndChar

StartChar: oslash
Encoding: 248 248 181
GlifName: oslash
Width: 570
Flags: W
HStem: -12 21G<125.231 165.91 247 319> 342 170<277.558 402>
LayerCount: 2
Fore
SplineSet
339 342 m 0
 314 342 291 333 270 315 c 0
 249 297 237 275 233 250 c 0
 229 225 234 203 249 185 c 0
 264 167 285 158 310 158 c 0
 335 158 358 167 379 185 c 0
 400 203 413 225 417 250 c 0
 421 275 415 297 400 315 c 0
 385 333 364 342 339 342 c 0
366 512 m 0
 438 512 496 486 539 435 c 0
 582 384 598 322 587 250 c 0
 576 178 540 116 481 65 c 0
 422 14 355 -12 283 -12 c 0
 211 -12 153 14 110 65 c 0
 67 116 52 178 63 250 c 0
 74 322 110 384 169 435 c 0
 228 486 294 512 366 512 c 0
509 512 m 1
 590 434 l 1
 146 -12 l 1
 65 66 l 1
 509 512 l 1
EndSplineSet
EndChar

StartChar: ugrave
Encoding: 249 249 182
GlifName: ugrave
Width: 579
Flags: W
HStem: -12 170<263.34 371.427> 480 20G<118.875 292 441.818 615> 554 147<295 388>
VStem: 122 170<330 500> 445 170<330 500>
LayerCount: 2
Fore
SplineSet
295 554 m 5
 192 701 l 5
 388 701 l 5
 471 554 l 5
 295 554 l 5
122 500 m 1
 292 500 l 1
 250 236 l 2
 246 213 251 194 263 180 c 0
 275 166 293 158 315 158 c 0
 337 158 355 166 372 180 c 0
 389 194 399 213 403 236 c 2
 445 500 l 1
 615 500 l 1
 575 244 l 2
 564 172 530 111 474 62 c 0
 418 13 356 -12 288 -12 c 0
 220 -12 165 13 125 62 c 0
 85 111 71 172 82 244 c 2
 122 500 l 1
EndSplineSet
EndChar

StartChar: uacute
Encoding: 250 250 183
GlifName: uacute
Width: 579
Flags: W
HStem: -12 170<263.34 371.427> 480 20G<118.875 292 441.818 615> 680 20G<403.329 617>
VStem: 122 170<330 500> 445 170<330 500>
LayerCount: 2
Fore
SplineSet
292 554 m 5
 421 700 l 5
 617 700 l 5
 468 554 l 5
 292 554 l 5
122 500 m 1
 292 500 l 1
 250 236 l 2
 246 213 251 194 263 180 c 0
 275 166 293 158 315 158 c 0
 337 158 355 166 372 180 c 0
 389 194 399 213 403 236 c 2
 445 500 l 1
 615 500 l 1
 575 244 l 2
 564 172 530 111 474 62 c 0
 418 13 356 -12 288 -12 c 0
 220 -12 165 13 125 62 c 0
 85 111 71 172 82 244 c 2
 122 500 l 1
EndSplineSet
EndChar

StartChar: ucircumflex
Encoding: 251 251 184
GlifName: ucircumflex
Width: 579
Flags: W
HStem: -12 170<263.34 371.427> 480 20G<118.875 292 441.818 615> 554 146<313 325 423 480>
VStem: 122 170<330 500> 445 170<330 500>
LayerCount: 2
Fore
SplineSet
160 554 m 1
 313 700 l 1
 480 700 l 1
 587 554 l 1
 423 554 l 1
 382 606 l 1
 325 554 l 1
 160 554 l 1
122 500 m 1
 292 500 l 1
 250 236 l 2
 246 213 251 194 263 180 c 0
 275 166 293 158 315 158 c 0
 337 158 355 166 372 180 c 0
 389 194 399 213 403 236 c 2
 445 500 l 1
 615 500 l 1
 575 244 l 2
 564 172 530 111 474 62 c 0
 418 13 356 -12 288 -12 c 0
 220 -12 165 13 125 62 c 0
 85 111 71 172 82 244 c 2
 122 500 l 1
EndSplineSet
EndChar

StartChar: udieresis
Encoding: 252 252 185
GlifName: udieresis
Width: 579
Flags: W
HStem: -12 170<263.34 371.427> 480 20G<118.875 292 441.818 615> 569 176<216.678 309.322 486.678 579.322>
VStem: 122 170<330 500> 175 176<609.375 704.625> 445 170<603.258 704.625>
LayerCount: 2
Fore
SplineSet
277 745 m 4xec
 301 745 320 736 335 719 c 4
 350 702 355 681 351 657 c 4
 347 633 335 612 315 595 c 4
 295 578 273 569 249 569 c 4
 225 569 206 578 191 595 c 4
 176 612 171 633 175 657 c 4
 179 681 191 702 211 719 c 4
 231 736 253 745 277 745 c 4xec
547 745 m 4
 571 745 590 736 605 719 c 4
 620 702 625 681 621 657 c 4
 617 633 605 612 585 595 c 4
 565 578 543 569 519 569 c 4
 495 569 476 578 461 595 c 4
 446 612 441 633 445 657 c 4
 449 681 461 702 481 719 c 4
 501 736 523 745 547 745 c 4
122 500 m 1xf4
 292 500 l 1
 250 236 l 2
 246 213 251 194 263 180 c 0
 275 166 293 158 315 158 c 0
 337 158 355 166 372 180 c 0
 389 194 399 213 403 236 c 2
 445 500 l 1
 615 500 l 1
 575 244 l 2
 564 172 530 111 474 62 c 0
 418 13 356 -12 288 -12 c 0
 220 -12 165 13 125 62 c 0
 85 111 71 172 82 244 c 2
 122 500 l 1xf4
EndSplineSet
EndChar

StartChar: yacute
Encoding: 253 253 186
GlifName: yacute
Width: 622
Flags: W
HStem: -212 170<86 209.032> 480 20G<84 275.806 500.459 696> 680 20G<420.329 634>
VStem: 84 186<314 500>
LayerCount: 2
Fore
SplineSet
309 554 m 5
 438 700 l 5
 634 700 l 5
 485 554 l 5
 309 554 l 5
84 500 m 1
 270 500 l 1
 351 221 l 1
 512 500 l 1
 696 500 l 1
 363 -78 l 2
 338 -119 305 -151 262 -175 c 0
 219 -199 175 -212 129 -212 c 2
 59 -212 l 1
 86 -42 l 1
 156 -42 l 2
 170 -42 183 -39 193 -34 c 0
 203 -29 211 -21 217 -10 c 2
 227 6 l 1
 84 500 l 1
EndSplineSet
EndChar

StartChar: thorn
Encoding: 254 254 187
GlifName: thorn
Width: 617
Flags: W
HStem: -200 21G<16 189.226> -12 168<280.737 398.842> 344 168<312.526 423.095> 680 20G<155.822 329>
VStem: 16 170<-200 -30> 159 170<530 700>
LayerCount: 2
Fore
SplineSet
186 -200 m 1xf8
 16 -200 l 1xf8
 159 700 l 1
 329 700 l 1xf4
 294 480 l 1
 299 483 304 486 310 489 c 0
 341 504 374 512 410 512 c 0
 481 512 537 487 577 436 c 0
 617 385 631 323 619 250 c 0
 607 177 574 115 518 64 c 0
 462 13 398 -12 327 -12 c 0
 289 -12 257 -5 231 10 c 0
 228 12 224 15 221 17 c 1
 186 -200 l 1xf8
366 344 m 0
 340 344 317 334 296 316 c 0
 275 298 262 276 258 250 c 0
 254 224 260 202 275 184 c 0
 290 166 311 156 337 156 c 0
 363 156 387 166 408 184 c 0
 429 202 442 224 446 250 c 0
 450 276 444 298 429 316 c 0
 414 334 392 344 366 344 c 0
EndSplineSet
EndChar

StartChar: ydieresis
Encoding: 255 255 188
GlifName: ydieresis
Width: 622
Flags: W
HStem: -212 170<86 209.032> 480 20G<84 275.806 500.459 696> 569 176<228.678 321.322 498.678 591.322>
VStem: 84 186<314 500> 187 176<609.375 704.625> 457 176<609.375 704.625>
LayerCount: 2
Fore
SplineSet
289 745 m 4xec
 313 745 332 736 347 719 c 4
 362 702 367 681 363 657 c 4
 359 633 347 612 327 595 c 4
 307 578 285 569 261 569 c 4
 237 569 218 578 203 595 c 4
 188 612 183 633 187 657 c 4
 191 681 203 702 223 719 c 4
 243 736 265 745 289 745 c 4xec
559 745 m 4
 583 745 602 736 617 719 c 4
 632 702 637 681 633 657 c 4
 629 633 617 612 597 595 c 4
 577 578 555 569 531 569 c 4
 507 569 488 578 473 595 c 4
 458 612 453 633 457 657 c 4
 461 681 473 702 493 719 c 4
 513 736 535 745 559 745 c 4
84 500 m 1xf4
 270 500 l 1xf4
 351 221 l 1
 512 500 l 1
 696 500 l 1
 363 -78 l 2xec
 338 -119 305 -151 262 -175 c 0
 219 -199 175 -212 129 -212 c 2
 59 -212 l 1
 86 -42 l 1
 156 -42 l 2
 170 -42 183 -39 193 -34 c 0
 203 -29 211 -21 217 -10 c 2
 227 6 l 1
 84 500 l 1xf4
EndSplineSet
EndChar

StartChar: Amacron
Encoding: 256 256 189
GlifName: A_macron
Width: 695
Flags: W
HStem: 0 21G<10 199.892 500.914 685> 93 170<321 451> 680 20G<350.971 544.143> 749 151<313 629>
LayerCount: 2
Fore
SplineSet
289 749 m 1
 313 900 l 1
 653 900 l 1
 629 749 l 1
 289 749 l 1
321 263 m 1
 451 263 l 1
 413 446 l 1
 321 263 l 1
236 93 m 1
 190 0 l 1
 10 0 l 1
 361 700 l 1
 540 700 l 1
 685 0 l 1
 505 0 l 1
 486 93 l 1
 236 93 l 1
EndSplineSet
EndChar

StartChar: amacron
Encoding: 257 257 190
GlifName: amacron
Width: 602
Flags: W
HStem: -12 168<260.013 373.873> 0 21G<406 557.16> 344 168<282.774 400.681> 480 20G<481.842 633> 549 151<229 545>
LayerCount: 2
Fore
SplineSet
205 549 m 1x08
 229 700 l 1
 569 700 l 1
 545 549 l 1
 205 549 l 1x08
485 500 m 1x18
 633 500 l 1
 554 0 l 1
 406 0 l 1x58
 411 33 l 1
 407 30 403 27 399 24 c 4
 362 0 319 -12 271 -12 c 0
 200 -12 145 13 105 64 c 0
 65 115 51 177 63 250 c 0
 75 323 108 385 164 436 c 0
 220 487 283 512 354 512 c 0xa8
 402 512 441 499 471 471 c 0
 474 468 476 465 479 462 c 1
 485 500 l 1x18
344 344 m 0xa8
 318 344 295 334 274 316 c 0
 253 298 240 276 236 250 c 0
 232 224 238 202 253 184 c 0
 268 166 289 156 315 156 c 0
 341 156 365 166 386 184 c 0
 407 202 420 224 424 250 c 0
 428 276 422 298 407 316 c 0
 392 334 370 344 344 344 c 0xa8
EndSplineSet
EndChar

StartChar: Abreve
Encoding: 258 258 191
GlifName: A_breve
Width: 695
Flags: W
HStem: 0 21G<10 199.892 500.914 685> 93 170<321 451> 680 20G<350.971 544.143> 742 119<438.629 525.511>
LayerCount: 2
Fore
SplineSet
305 900 m 1
 432 900 l 1
 430 889 433 880 442 872 c 0
 451 864 462 861 476 861 c 0
 490 861 503 864 514 872 c 0
 525 880 532 889 534 900 c 1
 661 900 l 1
 654 856 631 819 592 788 c 0
 553 757 509 742 458 742 c 0
 407 742 366 757 337 788 c 0
 308 819 298 856 305 900 c 1
321 263 m 1
 451 263 l 1
 413 446 l 1
 321 263 l 1
236 93 m 1
 190 0 l 1
 10 0 l 1
 361 700 l 1
 540 700 l 1
 685 0 l 1
 505 0 l 1
 486 93 l 1
 236 93 l 1
EndSplineSet
EndChar

StartChar: abreve
Encoding: 259 259 192
GlifName: abreve
Width: 602
Flags: W
HStem: -12 168<260.013 373.873> 0 21G<406 557.16> 344 168<282.774 400.681> 480 20G<481.842 633> 542 119<349.161 436.045>
LayerCount: 2
Fore
SplineSet
215 700 m 1x08
 342 700 l 1
 340 689 344 680 353 672 c 0
 362 664 373 661 387 661 c 0
 401 661 414 664 425 672 c 0
 436 680 442 689 444 700 c 1
 571 700 l 1
 564 656 542 619 503 588 c 0
 464 557 419 542 368 542 c 0
 317 542 277 557 248 588 c 0
 219 619 208 656 215 700 c 1x08
485 500 m 1x18
 633 500 l 1
 554 0 l 1
 406 0 l 1x58
 411 33 l 1
 407 30 403 27 399 24 c 4
 362 0 319 -12 271 -12 c 0
 200 -12 145 13 105 64 c 0
 65 115 51 177 63 250 c 0
 75 323 108 385 164 436 c 0
 220 487 283 512 354 512 c 0xa8
 402 512 441 499 471 471 c 0
 474 468 476 465 479 462 c 1
 485 500 l 1x18
344 344 m 0xa8
 318 344 295 334 274 316 c 0
 253 298 240 276 236 250 c 0
 232 224 238 202 253 184 c 0
 268 166 289 156 315 156 c 0
 341 156 365 166 386 184 c 0
 407 202 420 224 424 250 c 0
 428 276 422 298 407 316 c 0
 392 334 370 344 344 344 c 0xa8
EndSplineSet
EndChar

StartChar: Aogonek
Encoding: 260 260 193
GlifName: A_ogonek
Width: 695
Flags: W
HStem: -212 114<524 591.343> 0 21G<10 199.892 500.914 685> 93 170<321 451> 680 20G<350.971 544.143>
LayerCount: 2
Fore
SplineSet
657 -157 m 1
 652 -163 646 -169 640 -174 c 0
 611 -199 578 -212 542 -212 c 0
 506 -212 478 -199 457 -174 c 0
 436 -149 428 -119 434 -83 c 0
 440 -47 457 -17 486 8 c 0
 492 13 499 16 506 18 c 1
 658 18 l 1
 554 -72 l 2
 550 -75 548 -79 547 -83 c 0
 546 -87 547 -91 550 -94 c 0
 553 -97 556 -98 560 -98 c 0
 564 -98 568 -97 572 -94 c 0
 573 -93 573 -93 574 -92 c 9
 657 -157 l 1
321 263 m 1
 451 263 l 1
 413 446 l 1
 321 263 l 1
236 93 m 1
 190 0 l 1
 10 0 l 1
 361 700 l 1
 540 700 l 1
 685 0 l 1
 505 0 l 1
 486 93 l 1
 236 93 l 1
EndSplineSet
EndChar

StartChar: aogonek
Encoding: 261 261 194
GlifName: aogonek
Width: 602
Flags: W
HStem: -212 114<422 489.343> -12 168<260.013 373.873> 0 21G<406 557.16> 344 168<282.774 400.681> 480 20G<481.842 633>
LayerCount: 2
Fore
SplineSet
555 -157 m 1x80
 550 -163 544 -169 538 -174 c 0
 509 -199 476 -212 440 -212 c 0
 404 -212 376 -199 355 -174 c 0
 334 -149 326 -119 332 -83 c 0
 338 -47 355 -17 384 8 c 0
 390 13 397 16 404 18 c 1
 556 18 l 1
 452 -72 l 2
 448 -75 446 -79 445 -83 c 0
 444 -87 445 -91 448 -94 c 0
 451 -97 454 -98 458 -98 c 0
 462 -98 466 -97 470 -94 c 0
 471 -93 471 -93 472 -92 c 9
 555 -157 l 1x80
485 500 m 1x88
 633 500 l 1
 554 0 l 1
 406 0 l 1xa8
 411 33 l 1
 407 30 403 27 399 24 c 4
 362 0 319 -12 271 -12 c 0
 200 -12 145 13 105 64 c 0
 65 115 51 177 63 250 c 0
 75 323 108 385 164 436 c 0
 220 487 283 512 354 512 c 0xd0
 402 512 441 499 471 471 c 0
 474 468 476 465 479 462 c 1
 485 500 l 1x88
344 344 m 0xd0
 318 344 295 334 274 316 c 0
 253 298 240 276 236 250 c 0
 232 224 238 202 253 184 c 0
 268 166 289 156 315 156 c 0
 341 156 365 166 386 184 c 0
 407 202 420 224 424 250 c 0
 428 276 422 298 407 316 c 0
 392 334 370 344 344 344 c 0xd0
EndSplineSet
EndChar

StartChar: Cacute
Encoding: 262 262 195
GlifName: C_acute
Width: 664
Flags: W
HStem: -12 170<328.115 506.999> 542 170<385.145 561.563>
LayerCount: 2
Fore
SplineSet
403 754 m 5
 532 900 l 5
 728 900 l 5
 579 754 l 5
 403 754 l 5
502 712 m 0
 551 712 597 702 638 683 c 0
 679 664 714 638 742 605 c 1
 603 485 l 1
 571 523 529 542 476 542 c 0
 423 542 374 523 331 485 c 0
 288 447 261 403 253 350 c 0
 245 297 256 252 288 214 c 0
 320 176 362 158 415 158 c 0
 468 158 516 177 559 214 c 1
 660 94 l 1
 621 61 579 35 532 16 c 0
 485 -3 437 -12 388 -12 c 0
 285 -12 204 24 145 97 c 0
 88 167 67 252 83 350 c 0
 99 448 146 532 225 602 c 0
 307 675 399 712 502 712 c 0
EndSplineSet
EndChar

StartChar: cacute
Encoding: 263 263 196
GlifName: cacute
Width: 482
Flags: W
HStem: -12 170<255.231 382.279> 342 170<277.155 425.012> 680 20G<388.329 602>
LayerCount: 2
Fore
SplineSet
277 554 m 5
 406 700 l 5
 602 700 l 5
 453 554 l 5
 277 554 l 5
366 512 m 0
 438 512 496 486 539 435 c 1
 400 315 l 1
 385 333 364 342 339 342 c 0
 314 342 291 333 270 315 c 0
 249 297 236 275 232 250 c 0
 228 225 234 203 249 185 c 0
 264 167 285 158 310 158 c 0
 335 158 358 167 379 185 c 1
 480 65 l 1
 421 14 355 -12 283 -12 c 0
 210 -12 152 13 109 64 c 0
 66 115 50 177 62 250 c 0
 74 323 109 385 168 436 c 0
 227 487 293 512 366 512 c 0
EndSplineSet
EndChar

StartChar: Ccircumflex
Encoding: 264 264 197
GlifName: C_circumflex
Width: 664
Flags: W
HStem: -12 170<328.115 506.999> 542 170<385.145 561.563> 754 146<444 456 554 611>
LayerCount: 2
Fore
SplineSet
291 754 m 1
 444 900 l 1
 611 900 l 1
 718 754 l 1
 554 754 l 1
 513 806 l 1
 456 754 l 1
 291 754 l 1
502 712 m 0
 551 712 597 702 638 683 c 0
 679 664 714 638 742 605 c 1
 603 485 l 1
 571 523 529 542 476 542 c 0
 423 542 374 523 331 485 c 0
 288 447 261 403 253 350 c 0
 245 297 256 252 288 214 c 0
 320 176 362 158 415 158 c 0
 468 158 516 177 559 214 c 1
 660 94 l 1
 621 61 579 35 532 16 c 0
 485 -3 437 -12 388 -12 c 0
 285 -12 204 24 145 97 c 0
 88 167 67 252 83 350 c 0
 99 448 146 532 225 602 c 0
 307 675 399 712 502 712 c 0
EndSplineSet
EndChar

StartChar: ccircumflex
Encoding: 265 265 198
GlifName: ccircumflex
Width: 482
Flags: W
HStem: -12 170<255.231 382.279> 342 170<277.155 425.012> 554 146<284 295 393 451>
LayerCount: 2
Fore
SplineSet
130 554 m 1
 284 700 l 1
 451 700 l 1
 558 554 l 1
 393 554 l 1
 352 606 l 1
 295 554 l 1
 130 554 l 1
366 512 m 0
 438 512 496 486 539 435 c 1
 400 315 l 1
 385 333 364 342 339 342 c 0
 314 342 291 333 270 315 c 0
 249 297 236 275 232 250 c 0
 228 225 234 203 249 185 c 0
 264 167 285 158 310 158 c 0
 335 158 358 167 379 185 c 1
 480 65 l 1
 421 14 355 -12 283 -12 c 0
 210 -12 152 13 109 64 c 0
 66 115 50 177 62 250 c 0
 74 323 109 385 168 436 c 0
 227 487 293 512 366 512 c 0
EndSplineSet
EndChar

StartChar: Cdotaccent
Encoding: 266 266 199
GlifName: C_dotaccent
Width: 664
Flags: W
HStem: -12 170<328.115 506.999> 542 170<385.145 561.563> 748 200<461.928 559.072>
LayerCount: 2
Fore
SplineSet
610 848 m 4
 606 821 593 798 570 778 c 4
 547 758 522 748 495 748 c 4
 468 748 446 758 429 778 c 4
 412 798 406 821 410 848 c 4
 414 875 428 898 451 918 c 4
 474 938 499 948 526 948 c 4
 553 948 575 938 592 918 c 4
 609 898 614 875 610 848 c 4
502 712 m 0
 551 712 597 702 638 683 c 0
 679 664 714 638 742 605 c 1
 603 485 l 1
 571 523 529 542 476 542 c 0
 423 542 374 523 331 485 c 0
 288 447 261 403 253 350 c 0
 245 297 256 252 288 214 c 0
 320 176 362 158 415 158 c 0
 468 158 516 177 559 214 c 1
 660 94 l 1
 621 61 579 35 532 16 c 0
 485 -3 437 -12 388 -12 c 0
 285 -12 204 24 145 97 c 0
 88 167 67 252 83 350 c 0
 99 448 146 532 225 602 c 0
 307 675 399 712 502 712 c 0
EndSplineSet
EndChar

StartChar: cdotaccent
Encoding: 267 267 200
GlifName: cdotaccent
Width: 482
Flags: W
HStem: -12 170<255.231 382.279> 342 170<277.155 425.012> 548 200<336.928 433.072>
LayerCount: 2
Fore
SplineSet
485 648 m 4
 481 621 467 598 444 578 c 4
 421 558 396 548 369 548 c 4
 342 548 320 558 303 578 c 4
 286 598 281 621 285 648 c 4
 289 675 303 698 326 718 c 4
 349 738 374 748 401 748 c 4
 428 748 450 738 467 718 c 4
 484 698 489 675 485 648 c 4
366 512 m 0
 438 512 496 486 539 435 c 1
 400 315 l 1
 385 333 364 342 339 342 c 0
 314 342 291 333 270 315 c 0
 249 297 236 275 232 250 c 0
 228 225 234 203 249 185 c 0
 264 167 285 158 310 158 c 0
 335 158 358 167 379 185 c 1
 480 65 l 1
 421 14 355 -12 283 -12 c 0
 210 -12 152 13 109 64 c 0
 66 115 50 177 62 250 c 0
 74 323 109 385 168 436 c 0
 227 487 293 512 366 512 c 0
EndSplineSet
EndChar

StartChar: Ccaron
Encoding: 268 268 201
GlifName: C_caron
Width: 664
Flags: W
HStem: -12 170<328.115 506.999> 542 170<385.145 561.563> 754 146<408 474 572 591>
LayerCount: 2
Fore
SplineSet
311 900 m 5
 474 900 l 5
 514 844 l 5
 572 900 l 5
 734 900 l 5
 591 754 l 5
 408 754 l 5
 311 900 l 5
502 712 m 0
 551 712 597 702 638 683 c 0
 679 664 714 638 742 605 c 1
 603 485 l 1
 571 523 529 542 476 542 c 0
 423 542 374 523 331 485 c 0
 288 447 261 403 253 350 c 0
 245 297 256 252 288 214 c 0
 320 176 362 158 415 158 c 0
 468 158 516 177 559 214 c 1
 660 94 l 1
 621 61 579 35 532 16 c 0
 485 -3 437 -12 388 -12 c 0
 285 -12 204 24 145 97 c 0
 88 167 67 252 83 350 c 0
 99 448 146 532 225 602 c 0
 307 675 399 712 502 712 c 0
EndSplineSet
EndChar

StartChar: ccaron
Encoding: 269 269 202
GlifName: ccaron
Width: 482
Flags: W
HStem: -12 170<255.231 382.279> 342 170<277.155 425.012> 554 146<262 327 425 444>
LayerCount: 2
Fore
SplineSet
165 700 m 5
 327 700 l 5
 367 644 l 5
 425 700 l 5
 588 700 l 5
 444 554 l 5
 262 554 l 5
 165 700 l 5
366 512 m 0
 438 512 496 486 539 435 c 1
 400 315 l 1
 385 333 364 342 339 342 c 0
 314 342 291 333 270 315 c 0
 249 297 236 275 232 250 c 0
 228 225 234 203 249 185 c 0
 264 167 285 158 310 158 c 0
 335 158 358 167 379 185 c 1
 480 65 l 1
 421 14 355 -12 283 -12 c 0
 210 -12 152 13 109 64 c 0
 66 115 50 177 62 250 c 0
 74 323 109 385 168 436 c 0
 227 487 293 512 366 512 c 0
EndSplineSet
EndChar

StartChar: Dcaron
Encoding: 270 270 203
GlifName: D_caron
Width: 713
Flags: W
HStem: 0 170<260 452.201> 530 170<317 502.519> 754 146<328 394 492 511>
LayerCount: 2
Fore
SplineSet
231 900 m 5
 394 900 l 5
 434 844 l 5
 492 900 l 5
 654 900 l 5
 511 754 l 5
 328 754 l 5
 231 900 l 5
419 530 m 2
 317 530 l 1
 260 170 l 1
 362 170 l 2
 412 170 457 187 498 222 c 0
 539 257 562 300 570 350 c 0
 578 400 567 443 538 478 c 0
 509 513 469 530 419 530 c 2
446 700 m 2
 543 700 619 666 677 598 c 0
 735 530 755 447 740 350 c 0
 725 253 678 170 599 102 c 0
 520 34 432 0 335 0 c 2
 63 0 l 1
 174 700 l 1
 446 700 l 2
EndSplineSet
EndChar

StartChar: dcaron
Encoding: 271 271 204
GlifName: dcaron
Width: 602
Flags: W
HStem: -12 168<260.013 372.601> 344 168<282.774 401.06> 550 150<690 774>
VStem: 495 170<530 700>
LayerCount: 2
Fore
SplineSet
644 550 m 5
 690 700 l 1
 840 700 l 1
 774 550 l 5
 644 550 l 5
344 344 m 0
 370 344 392 334 407 316 c 0
 422 298 428 276 424 250 c 0
 420 224 407 202 386 184 c 0
 365 166 341 156 315 156 c 0
 289 156 268 166 253 184 c 0
 238 202 232 224 236 250 c 0
 240 276 253 298 274 316 c 0
 295 334 318 344 344 344 c 0
354 512 m 0
 283 512 220 487 164 436 c 0
 108 385 75 323 63 250 c 0
 51 177 65 115 105 64 c 0
 145 13 200 -12 271 -12 c 0
 314 -12 353 -2 387 17 c 4
 395 22 403 27 411 33 c 1
 406 0 l 1
 554 0 l 1
 665 700 l 1
 495 700 l 1
 460 480 l 1
 453 485 445 490 437 494 c 0
 413 506 386 512 354 512 c 0
EndSplineSet
EndChar

StartChar: Dcroat
Encoding: 272 272 205
GlifName: D_croat
Width: 713
Flags: W
HStem: 0 170<260 452.201> 266 169<92 403> 530 170<317 502.519>
LayerCount: 2
Fore
SplineSet
419 530 m 2
 317 530 l 1
 260 170 l 1
 362 170 l 2
 412 170 457 187 498 222 c 0
 539 257 562 300 570 350 c 0
 578 400 567 443 538 478 c 0
 509 513 469 530 419 530 c 2
446 700 m 2
 543 700 619 666 677 598 c 0
 735 530 755 447 740 350 c 0
 725 253 678 170 599 102 c 0
 520 34 432 0 335 0 c 2
 63 0 l 1
 174 700 l 1
 446 700 l 2
65 266 m 5
 92 435 l 5
 430 435 l 5
 403 266 l 5
 65 266 l 5
EndSplineSet
EndChar

StartChar: dcroat
Encoding: 273 273 206
GlifName: dcroat
Width: 658
Flags: W
HStem: -12 168<260.013 372.601> 344 168<282.774 401.06>
VStem: 495 170<530 700>
LayerCount: 2
Fore
SplineSet
344 344 m 0
 370 344 392 334 407 316 c 0
 422 298 428 276 424 250 c 0
 420 224 407 202 386 184 c 0
 365 166 341 156 315 156 c 0
 289 156 268 166 253 184 c 0
 238 202 232 224 236 250 c 0
 240 276 253 298 274 316 c 0
 295 334 318 344 344 344 c 0
354 512 m 0
 283 512 220 487 164 436 c 0
 108 385 75 323 63 250 c 0
 51 177 65 115 105 64 c 0
 145 13 200 -12 271 -12 c 0
 314 -12 353 -2 387 17 c 4
 395 22 403 27 411 33 c 1
 406 0 l 1
 554 0 l 1
 665 700 l 1
 495 700 l 1
 460 480 l 1
 453 485 445 490 437 494 c 0
 413 506 386 512 354 512 c 0
728 524 m 5
 748 650 l 1
 398 650 l 1
 378 524 l 1
 728 524 l 5
EndSplineSet
EndChar

StartChar: Emacron
Encoding: 274 274 207
GlifName: E_macron
Width: 592
Flags: W
HStem: 0 170<260 539> 266 169<302 510> 530 170<317 622> 749 151<264 580>
LayerCount: 2
Fore
SplineSet
240 749 m 1
 264 900 l 1
 604 900 l 1
 580 749 l 1
 240 749 l 1
63 0 m 1
 174 700 l 1
 649 700 l 1
 622 530 l 1
 317 530 l 1
 302 435 l 1
 537 435 l 1
 510 266 l 1
 275 266 l 1
 260 170 l 1
 566 170 l 1
 539 0 l 1
 63 0 l 1
EndSplineSet
EndChar

StartChar: emacron
Encoding: 275 275 208
GlifName: emacron
Width: 550
Flags: W
HStem: -12 136<266.897 412.718> 180 120<260 414> 356 156<286.993 393.933> 549 151<229 545>
LayerCount: 2
Fore
SplineSet
567 180 m 5
 245 180 l 5
 249 166 259 153 271 141 c 4
 283 129 299 124 320 124 c 4
 363 124 382 132 418 148 c 5
 487 44 l 5
 419 1 366 -12 298 -12 c 4
 223 -12 162 14 116 65 c 4
 70 116 53 178 64 250 c 4
 76 323 111 385 170 436 c 4
 229 487 294 512 367 512 c 4
 436 512 492 486 533 435 c 4
 574 384 589 320 577 244 c 6
 567 180 l 5
347 356 m 4
 328 356 312 352 298 343 c 4
 283 334 270 319 260 300 c 5
 414 300 l 5
 410 320 402 335 390 344 c 4
 379 352 365 356 347 356 c 4
205 549 m 1
 229 700 l 1
 569 700 l 1
 545 549 l 1
 205 549 l 1
EndSplineSet
EndChar

StartChar: Ebreve
Encoding: 276 276 209
GlifName: E_breve
Width: 592
Flags: W
HStem: 0 170<260 539> 266 169<302 510> 530 170<317 622> 742 119<394.629 481.511>
LayerCount: 2
Fore
SplineSet
63 0 m 1
 174 700 l 1
 649 700 l 1
 622 530 l 1
 317 530 l 1
 302 435 l 1
 537 435 l 1
 510 266 l 1
 275 266 l 1
 260 170 l 1
 566 170 l 1
 539 0 l 1
 63 0 l 1
261 900 m 1
 388 900 l 1
 386 889 389 880 398 872 c 0
 407 864 418 861 432 861 c 0
 446 861 459 864 470 872 c 0
 481 880 488 889 490 900 c 1
 617 900 l 1
 610 856 587 819 548 788 c 0
 509 757 465 742 414 742 c 0
 363 742 322 757 293 788 c 0
 264 819 254 856 261 900 c 1
EndSplineSet
EndChar

StartChar: ebreve
Encoding: 277 277 210
GlifName: ebreve
Width: 550
Flags: W
HStem: -12 136<266.897 412.718> 180 120<260 414> 356 156<286.993 393.933> 542 119<354.161 441.045>
LayerCount: 2
Fore
SplineSet
567 180 m 5
 245 180 l 5
 249 166 259 153 271 141 c 4
 283 129 299 124 320 124 c 4
 363 124 382 132 418 148 c 5
 487 44 l 5
 419 1 366 -12 298 -12 c 4
 223 -12 162 14 116 65 c 4
 70 116 53 178 64 250 c 4
 76 323 111 385 170 436 c 4
 229 487 294 512 367 512 c 4
 436 512 492 486 533 435 c 4
 574 384 589 320 577 244 c 6
 567 180 l 5
347 356 m 4
 328 356 312 352 298 343 c 4
 283 334 270 319 260 300 c 5
 414 300 l 5
 410 320 402 335 390 344 c 4
 379 352 365 356 347 356 c 4
220 700 m 1
 347 700 l 1
 345 689 349 680 358 672 c 0
 367 664 378 661 392 661 c 0
 406 661 419 664 430 672 c 0
 441 680 447 689 449 700 c 1
 576 700 l 1
 569 656 547 619 508 588 c 0
 469 557 424 542 373 542 c 0
 322 542 282 557 253 588 c 0
 224 619 213 656 220 700 c 1
EndSplineSet
EndChar

StartChar: Edotaccent
Encoding: 278 278 211
GlifName: E_dotaccent
Width: 592
Flags: W
HStem: 0 170<260 539> 266 169<302 510> 530 170<317 622> 748 200<376.928 474.007>
LayerCount: 2
Fore
SplineSet
525 848 m 4
 521 821 508 798 485 778 c 4
 462 758 436 748 409 748 c 4
 382 748 361 758 344 778 c 4
 327 798 321 821 325 848 c 4
 329 875 343 898 366 918 c 4
 389 938 414 948 441 948 c 4
 468 948 490 938 507 918 c 4
 524 898 529 875 525 848 c 4
63 0 m 1
 174 700 l 1
 649 700 l 1
 622 530 l 1
 317 530 l 1
 302 435 l 1
 537 435 l 1
 510 266 l 1
 275 266 l 1
 260 170 l 1
 566 170 l 1
 539 0 l 1
 63 0 l 1
EndSplineSet
EndChar

StartChar: edotaccent
Encoding: 279 279 212
GlifName: edotaccent
Width: 550
Flags: W
HStem: -12 136<266.897 412.718> 180 120<260 414> 356 156<286.993 393.933> 548 200<351.928 449.072>
LayerCount: 2
Fore
SplineSet
567 180 m 5
 245 180 l 5
 249 166 259 153 271 141 c 4
 283 129 299 124 320 124 c 4
 363 124 382 132 418 148 c 5
 487 44 l 5
 419 1 366 -12 298 -12 c 4
 223 -12 162 14 116 65 c 4
 70 116 53 178 64 250 c 4
 76 323 111 385 170 436 c 4
 229 487 294 512 367 512 c 4
 436 512 492 486 533 435 c 4
 574 384 589 320 577 244 c 6
 567 180 l 5
347 356 m 4
 328 356 312 352 298 343 c 4
 283 334 270 319 260 300 c 5
 414 300 l 5
 410 320 402 335 390 344 c 4
 379 352 365 356 347 356 c 4
501 648 m 0
 497 621 483 598 460 578 c 0
 437 558 412 548 385 548 c 0
 358 548 336 558 319 578 c 0
 302 598 297 621 301 648 c 0
 305 675 318 698 341 718 c 0
 364 738 389 748 416 748 c 0
 443 748 465 738 482 718 c 0
 499 698 505 675 501 648 c 0
EndSplineSet
EndChar

StartChar: Eogonek
Encoding: 280 280 213
GlifName: E_ogonek
Width: 592
Flags: W
HStem: -212 114<407 474.343> 0 170<260 369 389 539> 266 169<302 510> 530 170<317 622>
LayerCount: 2
Fore
SplineSet
540 -157 m 5
 535 -163 529 -169 523 -174 c 4
 494 -199 461 -212 425 -212 c 4
 389 -212 361 -199 340 -174 c 4
 319 -149 311 -119 317 -83 c 4
 323 -47 340 -17 369 8 c 4
 375 13 382 16 389 18 c 5
 541 18 l 5
 437 -72 l 6
 433 -75 431 -79 430 -83 c 4
 429 -87 430 -91 433 -94 c 4
 436 -97 439 -98 443 -98 c 4
 447 -98 451 -97 455 -94 c 4
 456 -93 456 -93 457 -92 c 13
 540 -157 l 5
63 0 m 1
 174 700 l 1
 649 700 l 1
 622 530 l 1
 317 530 l 1
 302 435 l 1
 537 435 l 1
 510 266 l 1
 275 266 l 1
 260 170 l 1
 566 170 l 1
 539 0 l 1
 63 0 l 1
EndSplineSet
EndChar

StartChar: eogonek
Encoding: 281 281 214
GlifName: eogonek
Width: 550
Flags: W
HStem: -212 114<290 357.343> -12 30<272 366> 180 120<260 414> 356 156<286.993 393.933>
LayerCount: 2
Fore
SplineSet
567 180 m 5
 245 180 l 5
 249 166 259 153 271 141 c 4
 283 129 299 124 320 124 c 4
 363 124 382 132 418 148 c 5
 487 44 l 5
 419 1 366 -12 298 -12 c 4
 223 -12 162 14 116 65 c 4
 70 116 53 178 64 250 c 4
 76 323 111 385 170 436 c 4
 229 487 294 512 367 512 c 4
 436 512 492 486 533 435 c 4
 574 384 589 320 577 244 c 6
 567 180 l 5
347 356 m 4
 328 356 312 352 298 343 c 4
 283 334 270 319 260 300 c 5
 414 300 l 5
 410 320 402 335 390 344 c 4
 379 352 365 356 347 356 c 4
423 -157 m 1
 418 -163 412 -169 406 -174 c 0
 377 -199 344 -212 308 -212 c 0
 272 -212 244 -199 223 -174 c 0
 202 -149 194 -119 200 -83 c 0
 206 -47 223 -17 252 8 c 0
 258 13 265 16 272 18 c 1
 424 18 l 1
 320 -72 l 2
 316 -75 314 -79 313 -83 c 0
 312 -87 313 -91 316 -94 c 0
 319 -97 322 -98 326 -98 c 0
 330 -98 334 -97 338 -94 c 0
 339 -93 339 -93 340 -92 c 9
 423 -157 l 1
EndSplineSet
EndChar

StartChar: Ecaron
Encoding: 282 282 215
GlifName: E_caron
Width: 592
Flags: W
HStem: 0 170<260 539> 266 169<302 510> 530 170<317 622> 754 146<313 379 477 496>
LayerCount: 2
Fore
SplineSet
216 900 m 5
 379 900 l 5
 419 844 l 5
 477 900 l 5
 639 900 l 5
 496 754 l 5
 313 754 l 5
 216 900 l 5
63 0 m 1
 174 700 l 1
 649 700 l 1
 622 530 l 1
 317 530 l 1
 302 435 l 1
 537 435 l 1
 510 266 l 1
 275 266 l 1
 260 170 l 1
 566 170 l 1
 539 0 l 1
 63 0 l 1
EndSplineSet
EndChar

StartChar: ecaron
Encoding: 283 283 216
GlifName: ecaron
Width: 550
Flags: W
HStem: -12 136<266.897 412.718> 180 120<260 414> 356 156<286.993 393.933> 554 146<288 354 452 471>
LayerCount: 2
Fore
SplineSet
567 180 m 5
 245 180 l 5
 249 166 259 153 271 141 c 4
 283 129 299 124 320 124 c 4
 363 124 382 132 418 148 c 5
 487 44 l 5
 419 1 366 -12 298 -12 c 4
 223 -12 162 14 116 65 c 4
 70 116 53 178 64 250 c 4
 76 323 111 385 170 436 c 4
 229 487 294 512 367 512 c 4
 436 512 492 486 533 435 c 4
 574 384 589 320 577 244 c 6
 567 180 l 5
347 356 m 4
 328 356 312 352 298 343 c 4
 283 334 270 319 260 300 c 5
 414 300 l 5
 410 320 402 335 390 344 c 4
 379 352 365 356 347 356 c 4
191 700 m 1
 354 700 l 1
 394 644 l 1
 452 700 l 1
 615 700 l 1
 471 554 l 1
 288 554 l 1
 191 700 l 1
EndSplineSet
EndChar

StartChar: Gcircumflex
Encoding: 284 284 217
GlifName: G_circumflex
Width: 770
Flags: W
HStem: -12 170<329.541 506.501> 264 170<456 604> 542 170<384.833 561.468>
LayerCount: 2
Fore
SplineSet
299 754 m 1
 453 900 l 1
 619 900 l 1
 727 754 l 1
 562 754 l 1
 521 806 l 1
 464 754 l 1
 299 754 l 1
503 712 m 0
 551 712 596 702 637 684 c 0
 678 666 713 639 742 605 c 1
 603 485 l 1
 571 523 529 542 476 542 c 0
 423 542 374 522 331 485 c 0
 288 448 261 403 253 350 c 0
 245 297 256 251 288 214 c 0
 320 177 362 158 415 158 c 0
 468 158 516 177 559 214 c 0
 576 229 591 245 604 264 c 1
 429 264 l 1
 456 434 l 1
 821 434 l 1
 807 350 l 2
 791 251 743 165 660 94 c 0
 621 60 578 33 531 15 c 0
 484 -3 436 -12 388 -12 c 0
 287 -12 206 23 147 94 c 0
 88 164 67 250 83 350 c 0
 99 451 149 536 231 607 c 0
 312 677 403 712 503 712 c 0
EndSplineSet
EndChar

StartChar: gcircumflex
Encoding: 285 285 218
GlifName: gcircumflex
Width: 562
Flags: W
HStem: -215 158<141.292 315.025> -33 20G<87.0725 122.5> 20 170<253.121 350.764> 36 154<264.497 350.574> 339 171<268.577 373.685> 479 20G<433 594> 680 20G<281.904 483.795>
LayerCount: 2
Fore
SplineSet
149 554 m 1xc2
 303 700 l 1
 469 700 l 1
 577 554 l 1
 412 554 l 1
 371 606 l 1
 314 554 l 1
 149 554 l 1xc2
325 339 m 0xea
 304 339 286 333 269 318 c 0
 252 303 241 286 238 265 c 0
 235 244 240 227 252 212 c 0
 264 197 280 190 301 190 c 0
 322 190 340 197 357 212 c 0
 374 227 384 244 387 265 c 4
 390 286 386 303 374 318 c 0
 362 333 346 339 325 339 c 0xea
341 510 m 0
 375 510 403 502 425 487 c 0
 428 485 430 483 433 481 c 1
 436 499 l 1
 594 499 l 1
 524 59 l 2
 510 -27 478 -95 425 -143 c 0
 372 -191 306 -215 228 -215 c 0
 117 -215 40 -194 -1 -151 c 1
 102 -13 l 1
 143 -42 190 -57 244 -57 c 0
 275 -57 300 -50 317 -35 c 0
 334 -20 346 3 351 36 c 2
 351 38 l 1
 350 37 349 36 348 36 c 0xd6
 323 25 295 20 263 20 c 0
 196 20 144 44 107 91 c 0
 70 138 57 197 68 265 c 0
 79 333 111 392 163 439 c 0
 215 486 274 510 341 510 c 0
EndSplineSet
EndChar

StartChar: Gbreve
Encoding: 286 286 219
GlifName: G_breve
Width: 770
Flags: W
HStem: -12 170<329.541 506.501> 264 170<456 604> 542 170<384.833 561.468> 742 119<489.161 576.045>
LayerCount: 2
Fore
SplineSet
355 900 m 1
 482 900 l 1
 480 889 484 880 493 872 c 0
 502 864 513 861 527 861 c 0
 541 861 554 864 565 872 c 0
 576 880 582 889 584 900 c 1
 711 900 l 1
 704 856 682 819 643 788 c 0
 604 757 559 742 508 742 c 0
 457 742 417 757 388 788 c 0
 359 819 348 856 355 900 c 1
503 712 m 0
 551 712 596 702 637 684 c 0
 678 666 713 639 742 605 c 1
 603 485 l 1
 571 523 529 542 476 542 c 0
 423 542 374 522 331 485 c 0
 288 448 261 403 253 350 c 0
 245 297 256 251 288 214 c 0
 320 177 362 158 415 158 c 0
 468 158 516 177 559 214 c 0
 576 229 591 245 604 264 c 1
 429 264 l 1
 456 434 l 1
 821 434 l 1
 807 350 l 2
 791 251 743 165 660 94 c 0
 621 60 578 33 531 15 c 0
 484 -3 436 -12 388 -12 c 0
 287 -12 206 23 147 94 c 0
 88 164 67 250 83 350 c 0
 99 451 149 536 231 607 c 0
 312 677 403 712 503 712 c 0
EndSplineSet
EndChar

StartChar: gbreve
Encoding: 287 287 220
GlifName: gbreve
Width: 562
Flags: W
HStem: -215 158<141.292 315.025> -33 20G<87.0725 122.5> 20 170<253.121 350.764> 36 154<264.497 350.574> 339 171<268.577 373.685> 479 20G<433 594> 542 119<339.161 426.045>
LayerCount: 2
Fore
SplineSet
205 700 m 1xc2
 332 700 l 1
 330 689 334 680 343 672 c 0
 352 664 363 661 377 661 c 0
 391 661 404 664 415 672 c 0
 426 680 432 689 434 700 c 1
 561 700 l 1
 554 656 532 619 493 588 c 0
 454 557 409 542 358 542 c 0
 307 542 267 557 238 588 c 0
 209 619 198 656 205 700 c 1xc2
325 339 m 0xea
 304 339 286 333 269 318 c 0
 252 303 241 286 238 265 c 0
 235 244 240 227 252 212 c 0
 264 197 280 190 301 190 c 0
 322 190 340 197 357 212 c 0
 374 227 384 244 387 265 c 4
 390 286 386 303 374 318 c 0
 362 333 346 339 325 339 c 0xea
341 510 m 0
 375 510 403 502 425 487 c 0
 428 485 430 483 433 481 c 1
 436 499 l 1
 594 499 l 1
 524 59 l 2
 510 -27 478 -95 425 -143 c 0
 372 -191 306 -215 228 -215 c 0
 117 -215 40 -194 -1 -151 c 1
 102 -13 l 1
 143 -42 190 -57 244 -57 c 0
 275 -57 300 -50 317 -35 c 0
 334 -20 346 3 351 36 c 2
 351 38 l 1
 350 37 349 36 348 36 c 0xd6
 323 25 295 20 263 20 c 0
 196 20 144 44 107 91 c 0
 70 138 57 197 68 265 c 0
 79 333 111 392 163 439 c 0
 215 486 274 510 341 510 c 0
EndSplineSet
EndChar

StartChar: Gdotaccent
Encoding: 288 288 221
GlifName: G_dotaccent
Width: 770
Flags: W
HStem: -12 170<329.541 506.501> 264 170<456 604> 542 170<384.833 561.468> 748 200<474.993 572.072>
LayerCount: 2
Fore
SplineSet
624 848 m 4
 620 821 606 798 583 778 c 4
 560 758 535 748 508 748 c 4
 481 748 459 758 442 778 c 4
 425 798 420 821 424 848 c 4
 428 875 441 898 464 918 c 4
 487 938 513 948 540 948 c 4
 567 948 588 938 605 918 c 4
 622 898 628 875 624 848 c 4
503 712 m 0
 551 712 596 702 637 684 c 0
 678 666 713 639 742 605 c 1
 603 485 l 1
 571 523 529 542 476 542 c 0
 423 542 374 522 331 485 c 0
 288 448 261 403 253 350 c 0
 245 297 256 251 288 214 c 0
 320 177 362 158 415 158 c 0
 468 158 516 177 559 214 c 0
 576 229 591 245 604 264 c 1
 429 264 l 1
 456 434 l 1
 821 434 l 1
 807 350 l 2
 791 251 743 165 660 94 c 0
 621 60 578 33 531 15 c 0
 484 -3 436 -12 388 -12 c 0
 287 -12 206 23 147 94 c 0
 88 164 67 250 83 350 c 0
 99 451 149 536 231 607 c 0
 312 677 403 712 503 712 c 0
EndSplineSet
EndChar

StartChar: gdotaccent
Encoding: 289 289 222
GlifName: gdotaccent
Width: 562
Flags: W
HStem: -215 158<141.292 315.025> -33 20G<87.0725 122.5> 20 170<253.121 350.764> 36 154<264.497 350.574> 339 171<268.577 373.685> 479 20G<433 594> 548 200<324.993 422.072>
LayerCount: 2
Fore
SplineSet
474 648 m 4xc2
 470 621 456 598 433 578 c 4
 410 558 385 548 358 548 c 4
 331 548 309 558 292 578 c 4
 275 598 270 621 274 648 c 4
 278 675 291 698 314 718 c 4
 337 738 363 748 390 748 c 4
 417 748 438 738 455 718 c 4
 472 698 478 675 474 648 c 4xc2
325 339 m 0xea
 304 339 286 333 269 318 c 0
 252 303 241 286 238 265 c 0
 235 244 240 227 252 212 c 0
 264 197 280 190 301 190 c 0
 322 190 340 197 357 212 c 0
 374 227 384 244 387 265 c 4
 390 286 386 303 374 318 c 0
 362 333 346 339 325 339 c 0xea
341 510 m 0
 375 510 403 502 425 487 c 0
 428 485 430 483 433 481 c 1
 436 499 l 1
 594 499 l 1
 524 59 l 2
 510 -27 478 -95 425 -143 c 0
 372 -191 306 -215 228 -215 c 0
 117 -215 40 -194 -1 -151 c 1
 102 -13 l 1
 143 -42 190 -57 244 -57 c 0
 275 -57 300 -50 317 -35 c 0
 334 -20 346 3 351 36 c 2
 351 38 l 1
 350 37 349 36 348 36 c 0xd6
 323 25 295 20 263 20 c 0
 196 20 144 44 107 91 c 0
 70 138 57 197 68 265 c 0
 79 333 111 392 163 439 c 0
 215 486 274 510 341 510 c 0
EndSplineSet
EndChar

StartChar: uni0122
Encoding: 290 290 223
GlifName: uni0122
Width: 770
Flags: W
HStem: -200 21G<245 387.875> -12 170<329.541 506.501> 264 170<456 604> 542 170<384.833 561.468>
LayerCount: 2
Fore
SplineSet
245 -200 m 5
 310 -40 l 1
 478 -40 l 1
 375 -200 l 5
 245 -200 l 5
503 712 m 0
 551 712 596 702 637 684 c 0
 678 666 713 639 742 605 c 1
 603 485 l 1
 571 523 529 542 476 542 c 0
 423 542 374 522 331 485 c 0
 288 448 261 403 253 350 c 0
 245 297 256 251 288 214 c 0
 320 177 362 158 415 158 c 0
 468 158 516 177 559 214 c 0
 576 229 591 245 604 264 c 1
 429 264 l 1
 456 434 l 1
 821 434 l 1
 807 350 l 2
 791 251 743 165 660 94 c 0
 621 60 578 33 531 15 c 0
 484 -3 436 -12 388 -12 c 0
 287 -12 206 23 147 94 c 0
 88 164 67 250 83 350 c 0
 99 451 149 536 231 607 c 0
 312 677 403 712 503 712 c 0
EndSplineSet
EndChar

StartChar: uni0123
Encoding: 291 291 224
GlifName: uni0123
Width: 562
Flags: W
HStem: -215 158<141.292 315.025> -33 20G<87.0725 122.5> 20 170<253.121 350.764> 36 154<264.497 350.574> 339 171<268.577 373.685> 479 20G<433 594> 693 20G<383.953 541>
LayerCount: 2
Fore
SplineSet
325 339 m 0xea
 304 339 286 333 269 318 c 0
 252 303 241 286 238 265 c 0
 235 244 240 227 252 212 c 0
 264 197 280 190 301 190 c 0
 322 190 340 197 357 212 c 0
 374 227 384 244 387 265 c 4
 390 286 386 303 374 318 c 0
 362 333 346 339 325 339 c 0xea
341 510 m 0
 375 510 403 502 425 487 c 0
 428 485 430 483 433 481 c 1
 436 499 l 1
 594 499 l 1
 524 59 l 2
 510 -27 478 -95 425 -143 c 0
 372 -191 306 -215 228 -215 c 0
 117 -215 40 -194 -1 -151 c 1
 102 -13 l 1
 143 -42 190 -57 244 -57 c 0
 275 -57 300 -50 317 -35 c 0
 334 -20 346 3 351 36 c 2
 351 38 l 1
 350 37 349 36 348 36 c 0xd6
 323 25 295 20 263 20 c 0
 196 20 144 44 107 91 c 0
 70 138 57 197 68 265 c 0
 79 333 111 392 163 439 c 0
 215 486 274 510 341 510 c 0
541 713 m 5
 454 564 l 5
 274 564 l 5
 401 713 l 5
 541 713 l 5
EndSplineSet
EndChar

StartChar: Hcircumflex
Encoding: 292 292 225
GlifName: H_circumflex
Width: 734
Flags: W
HStem: 0 21G<63 236.173 501 674.171> 271 170<303 544> 681 20G<170.833 344 608.834 782> 755 146<426 438 536 593>
VStem: 63 170<0 170> 174 170<531 701> 501 170<0 170> 612 170<530 700>
LayerCount: 2
Fore
SplineSet
273 755 m 1xf0
 426 901 l 1
 593 901 l 1
 700 755 l 1
 536 755 l 1
 495 807 l 1
 438 755 l 1
 273 755 l 1xf0
63 0 m 1xfa
 174 701 l 1
 344 701 l 1
 303 441 l 1
 571 441 l 1
 612 700 l 1
 782 700 l 1xf5
 671 0 l 1
 501 0 l 1
 544 271 l 1
 276 271 l 1
 233 0 l 1
 63 0 l 1xfa
EndSplineSet
EndChar

StartChar: hcircumflex
Encoding: 293 293 226
GlifName: hcircumflex
Width: 586
Flags: W
HStem: 0 21G<50 223.182 373 546.203> 342 170<318.117 447> 680 20G<157.829 331> 754 146<197 208 306 364>
VStem: 50 170<0 170> 161 170<530 700> 373 170<0 170>
LayerCount: 2
Fore
SplineSet
44 754 m 1xf2
 197 900 l 1
 364 900 l 1
 471 754 l 1
 306 754 l 1
 266 806 l 1
 208 754 l 1
 44 754 l 1xf2
543 0 m 1
 373 0 l 1
 415 264 l 2
 419 287 414 306 402 320 c 0
 390 334 373 342 351 342 c 0
 329 342 310 334 293 320 c 0
 276 306 266 287 262 264 c 2
 220 0 l 5
 50 0 l 5xfa
 161 700 l 1
 331 700 l 1xf6
 295 475 l 1
 300 479 306 483 311 486 c 0
 340 504 375 512 414 512 c 0
 480 512 528 488 557 440 c 0
 586 392 596 331 584 256 c 2
 543 0 l 1
EndSplineSet
EndChar

StartChar: Hbar
Encoding: 294 294 227
GlifName: H_bar
Width: 734
Flags: W
HStem: 0 21G<63 236.173 501 674.171> 271 170<303 544> 488 170<112 802> 681 20G<170.833 344 608.834 782>
VStem: 63 170<0 170> 174 170<531 701> 501 170<0 170> 612 170<530 700>
LayerCount: 2
Fore
SplineSet
63 0 m 1xfa
 174 701 l 1
 344 701 l 1
 303 441 l 1
 571 441 l 1
 612 700 l 1
 782 700 l 1xf5
 671 0 l 1
 501 0 l 1
 544 271 l 1
 276 271 l 1
 233 0 l 1
 63 0 l 1xfa
85 488 m 5
 112 658 l 5
 829 658 l 5
 802 488 l 5
 85 488 l 5
EndSplineSet
EndChar

StartChar: hbar
Encoding: 295 295 228
GlifName: hbar
Width: 586
Flags: W
HStem: 0 21G<50 223.182 373 546.203> 342 170<318.117 447> 543 110<106 443> 680 20G<157.829 331>
VStem: 50 170<0 170> 161 170<530 700> 373 170<0 170>
LayerCount: 2
Fore
SplineSet
543 0 m 1xf6
 373 0 l 1
 415 264 l 2
 419 287 414 306 402 320 c 0
 390 334 373 342 351 342 c 0
 329 342 310 334 293 320 c 0
 276 306 266 287 262 264 c 2
 220 0 l 5
 50 0 l 5xfa
 161 700 l 1
 331 700 l 1
 295 475 l 1
 300 479 306 483 311 486 c 0
 340 504 375 512 414 512 c 0
 480 512 528 488 557 440 c 0
 586 392 596 331 584 256 c 2
 543 0 l 1xf6
89 543 m 1
 106 653 l 1
 460 653 l 1
 443 543 l 1
 89 543 l 1
EndSplineSet
EndChar

StartChar: Itilde
Encoding: 296 296 229
GlifName: I_tilde
Width: 296
Flags: W
HStem: 0 21G<63 236.171> 680 20G<170.829 344> 734 106<323.371 379.001> 806 106<180.959 242.934>
VStem: 63 170<0 170> 174 170<530 700>
LayerCount: 2
Fore
SplineSet
63 0 m 1xc8
 174 700 l 1
 344 700 l 1xc4
 233 0 l 1
 63 0 l 1xc8
337 734 m 0xe0
 296 734 267 746 252 770 c 0
 246 779 241 788 235 795 c 0
 229 802 221 806 210 806 c 0
 195 806 183 793 173 767 c 1
 56 767 l 1
 65 809 86 844 118 871 c 0
 150 898 185 912 221 912 c 0xd0
 266 912 296 900 313 876 c 0
 320 867 325 858 330 851 c 0
 335 844 343 840 353 840 c 0
 367 840 378 853 385 879 c 1
 502 879 l 5
 491 836 470 801 439 774 c 0
 408 747 374 734 337 734 c 0xe0
EndSplineSet
EndChar

StartChar: itilde
Encoding: 297 297 230
GlifName: itilde
Width: 296
Flags: W
HStem: 0 21G<63 236.16> 480 20G<138.84 312> 534 106<290.371 345.753> 606 106<147.959 209.934>
VStem: 63 170<0 170> 142 170<330 500>
LayerCount: 2
Fore
SplineSet
63 0 m 1xc8
 142 500 l 1
 312 500 l 1xc4
 233 0 l 1
 63 0 l 1xc8
304 534 m 0xe0
 263 534 234 546 219 570 c 0
 213 579 208 588 202 595 c 0
 196 602 188 606 177 606 c 0
 162 606 150 593 140 567 c 1
 23 567 l 1
 32 609 53 644 85 671 c 0
 117 698 152 712 188 712 c 0xd0
 233 712 263 700 280 676 c 0
 287 667 292 658 297 651 c 0
 302 644 309 640 319 640 c 0
 333 640 345 653 352 679 c 1
 469 679 l 5
 458 636 436 601 405 574 c 0
 374 547 341 534 304 534 c 0xe0
EndSplineSet
EndChar

StartChar: Imacron
Encoding: 298 298 231
GlifName: I_macron
Width: 296
Flags: W
HStem: 0 21G<63 236.171> 680 20G<170.829 344> 749 151<120 436>
VStem: 63 170<0 170> 174 170<530 700>
LayerCount: 2
Fore
SplineSet
96 749 m 1xe0
 120 900 l 1
 460 900 l 1
 436 749 l 1
 96 749 l 1xe0
63 0 m 1xf0
 174 700 l 1
 344 700 l 1xe8
 233 0 l 1
 63 0 l 1xf0
EndSplineSet
EndChar

StartChar: imacron
Encoding: 299 299 232
GlifName: imacron
Width: 296
Flags: W
HStem: 0 21G<63 236.16> 480 20G<138.84 312> 549 151<108 384>
VStem: 63 170<0 170> 142 170<330 500>
LayerCount: 2
Fore
SplineSet
84 549 m 1xe0
 108 700 l 1
 408 700 l 1
 384 549 l 1
 84 549 l 1xe0
63 0 m 1xf0
 142 500 l 1
 312 500 l 1xe8
 233 0 l 1
 63 0 l 1xf0
EndSplineSet
EndChar

StartChar: Ibreve
Encoding: 300 300 233
GlifName: I_breve
Width: 296
Flags: W
HStem: 0 21G<63 236.171> 680 20G<170.829 344> 742 119<247.161 334.045>
VStem: 63 170<0 170> 174 170<530 700>
LayerCount: 2
Fore
SplineSet
63 0 m 1xf0
 174 700 l 1
 344 700 l 1xe8
 233 0 l 1
 63 0 l 1xf0
113 900 m 1
 240 900 l 1
 238 889 242 880 251 872 c 0
 260 864 271 861 285 861 c 0
 299 861 312 864 323 872 c 0
 334 880 340 889 342 900 c 1
 469 900 l 1
 462 856 440 819 401 788 c 0
 362 757 317 742 266 742 c 0
 215 742 175 757 146 788 c 0
 117 819 106 856 113 900 c 1
EndSplineSet
EndChar

StartChar: ibreve
Encoding: 301 301 234
GlifName: ibreve
Width: 296
Flags: W
HStem: 0 21G<63 236.16> 480 20G<138.84 312> 542 119<217.161 304.045>
VStem: 63 170<0 170> 142 170<330 500>
LayerCount: 2
Fore
SplineSet
63 0 m 1xf0
 142 500 l 1
 312 500 l 1xe8
 233 0 l 1
 63 0 l 1xf0
83 700 m 1
 210 700 l 1
 208 689 212 680 221 672 c 0
 230 664 241 661 255 661 c 0
 269 661 282 664 293 672 c 0
 304 680 310 689 312 700 c 1
 439 700 l 1
 432 656 410 619 371 588 c 0
 332 557 287 542 236 542 c 0
 185 542 145 557 116 588 c 0
 87 619 76 656 83 700 c 1
EndSplineSet
EndChar

StartChar: Iogonek
Encoding: 302 302 235
GlifName: I_ogonek
Width: 296
Flags: W
HStem: -212 114<100 166.979> 0 21G<63 236.171> 680 20G<170.829 344>
VStem: 174 170<530 700>
LayerCount: 2
Fore
SplineSet
232 -157 m 1
 227 -163 221 -169 215 -174 c 0
 186 -199 154 -212 118 -212 c 0
 82 -212 54 -199 33 -174 c 0
 12 -149 3 -119 9 -83 c 0
 15 -47 33 -17 62 8 c 0
 68 13 74 16 81 18 c 1
 234 18 l 1
 129 -72 l 2
 125 -75 124 -79 123 -83 c 0
 122 -87 123 -91 126 -94 c 0
 129 -97 132 -98 136 -98 c 0
 140 -98 144 -97 148 -94 c 0
 149 -93 149 -93 150 -92 c 9
 232 -157 l 1
63 0 m 1
 174 700 l 1
 344 700 l 1
 233 0 l 1
 63 0 l 1
EndSplineSet
EndChar

StartChar: iogonek
Encoding: 303 303 236
GlifName: iogonek
Width: 296
Flags: W
HStem: -212 114<99 166.343> 0 21G<63 236.16> 480 20G<138.84 312> 548 200<201.928 299.072>
VStem: 142 170<330 500>
LayerCount: 2
Fore
SplineSet
232 -157 m 1
 227 -163 221 -169 215 -174 c 0
 186 -199 153 -212 117 -212 c 0
 81 -212 53 -199 32 -174 c 0
 11 -149 3 -119 9 -83 c 0
 15 -47 32 -17 61 8 c 0
 67 13 74 16 81 18 c 1
 233 18 l 1
 129 -72 l 2
 125 -75 123 -79 122 -83 c 0
 121 -87 122 -91 125 -94 c 0
 128 -97 131 -98 135 -98 c 0
 139 -98 143 -97 147 -94 c 0
 148 -93 148 -93 149 -92 c 9
 232 -157 l 1
351 648 m 4
 347 621 333 598 310 578 c 4
 287 558 262 548 235 548 c 4
 208 548 186 558 169 578 c 4
 152 598 147 621 151 648 c 4
 155 675 168 698 191 718 c 4
 214 738 239 748 266 748 c 4
 293 748 315 738 332 718 c 4
 349 698 355 675 351 648 c 4
63 0 m 1
 142 500 l 1
 312 500 l 1
 233 0 l 1
 63 0 l 1
EndSplineSet
EndChar

StartChar: Idotaccent
Encoding: 304 304 237
GlifName: I_dotaccent
Width: 296
Flags: W
HStem: 0 21G<63 236.171> 680 20G<170.829 344> 748 200<235.993 333.072>
VStem: 63 170<0 170> 174 170<530 700>
LayerCount: 2
Fore
SplineSet
385 848 m 4xe8
 381 821 367 798 344 778 c 4
 321 758 296 748 269 748 c 4
 242 748 220 758 203 778 c 4
 186 798 181 821 185 848 c 4
 189 875 202 898 225 918 c 4
 248 938 274 948 301 948 c 4
 328 948 349 938 366 918 c 4
 383 898 389 875 385 848 c 4xe8
63 0 m 1xf0
 174 700 l 1
 344 700 l 1xe8
 233 0 l 1
 63 0 l 1xf0
EndSplineSet
EndChar

StartChar: dotlessi
Encoding: 305 305 238
GlifName: dotlessi
Width: 296
Flags: W
HStem: 0 21G<63 236.16> 480 20G<138.84 312>
VStem: 63 170<0 170> 142 170<330 500>
LayerCount: 2
Fore
SplineSet
63 0 m 1xe0
 142 500 l 1
 312 500 l 1xd0
 233 0 l 1
 63 0 l 1xe0
EndSplineSet
EndChar

StartChar: IJ
Encoding: 306 306 239
GlifName: I_J_
Width: 898
Flags: W
HStem: -16 170<442.704 558.676> 0 21G<63 236.171> 680 20G<170.829 344 656.84 830>
VStem: 63 170<0 170> 174 170<530 700> 660 170<530 700>
LayerCount: 2
Fore
SplineSet
660 700 m 1xa4
 830 700 l 1
 754 219 l 2
 744 154 712 99 659 53 c 0
 606 7 546 -16 481 -16 c 0
 416 -16 365 7 327 53 c 1
 466 173 l 1
 477 160 490 154 508 154 c 0
 526 154 542 160 557 173 c 0
 572 186 581 201 584 219 c 2
 660 700 l 1xa4
63 0 m 1x74
 174 700 l 1
 344 700 l 1x6c
 233 0 l 1
 63 0 l 1x74
EndSplineSet
EndChar

StartChar: ij
Encoding: 307 307 240
GlifName: ij
Width: 607
Flags: W
HStem: 0 21G<63 236.16> 480 20G<138.84 312 407.861 581> 548 200<201.928 299.072 468.935 577.746>
VStem: 63 170<0 170> 142 170<330 500> 411 170<330 500>
LayerCount: 2
Fore
SplineSet
411 500 m 1xe4
 581 500 l 1
 511 54 l 2
 499 -20 462 -83 401 -136 c 0
 340 -189 273 -215 199 -215 c 1
 226 -45 l 1
 253 -45 278 -35 300 -16 c 0
 322 3 337 27 341 54 c 2
 411 500 l 1xe4
622 645 m 0
 617 616 604 592 581 572 c 0
 558 552 532 542 503 542 c 0
 474 542 452 552 435 572 c 0
 418 592 411 616 416 645 c 0
 421 674 435 698 458 718 c 0
 481 738 506 748 535 748 c 0
 564 748 587 738 604 718 c 0
 621 698 627 674 622 645 c 0
351 648 m 4
 347 621 333 598 310 578 c 4
 287 558 262 548 235 548 c 4
 208 548 186 558 169 578 c 4
 152 598 147 621 151 648 c 4
 155 675 168 698 191 718 c 4
 214 738 239 748 266 748 c 4
 293 748 315 738 332 718 c 4
 349 698 355 675 351 648 c 4
63 0 m 1xf4
 142 500 l 1
 312 500 l 1xec
 233 0 l 1
 63 0 l 1xf4
EndSplineSet
EndChar

StartChar: Jcircumflex
Encoding: 308 308 241
GlifName: J_circumflex
Width: 467
Flags: W
HStem: -16 170<137.704 253.676> 680 20G<351.84 525> 757 146<381 392 490 548>
VStem: 355 170<530 700>
LayerCount: 2
Fore
SplineSet
227 757 m 1
 381 903 l 1
 548 903 l 1
 655 757 l 1
 490 757 l 1
 449 809 l 1
 392 757 l 1
 227 757 l 1
355 700 m 1
 525 700 l 1
 449 219 l 2
 439 154 407 99 354 53 c 0
 301 7 241 -16 176 -16 c 0
 111 -16 60 7 22 53 c 1
 161 173 l 1
 172 160 185 154 203 154 c 0
 221 154 237 160 252 173 c 0
 267 186 276 201 279 219 c 2
 355 700 l 1
EndSplineSet
EndChar

StartChar: jcircumflex
Encoding: 309 309 242
GlifName: jcircumflex
Width: 278
Flags: W
HStem: 480 20G<117.861 291> 554 146<193 205 303 360>
VStem: 121 170<330 500>
LayerCount: 2
Fore
SplineSet
40 554 m 1
 193 700 l 1
 360 700 l 1
 467 554 l 1
 303 554 l 1
 262 606 l 1
 205 554 l 1
 40 554 l 1
121 500 m 1
 291 500 l 1
 221 54 l 2
 209 -20 172 -83 111 -136 c 0
 50 -189 -17 -215 -91 -215 c 1
 -64 -45 l 1
 -37 -45 -12 -35 10 -16 c 0
 32 3 47 27 51 54 c 2
 121 500 l 1
EndSplineSet
EndChar

StartChar: uni0136
Encoding: 310 310 243
GlifName: uni0136
Width: 684
Flags: W
HStem: -200 21G<217 360> 0 21G<63 236.116 454.349 671> 680 20G<170.829 344 519.254 760>
VStem: 63 170<0 170> 174 170<530 700>
LayerCount: 2
Fore
SplineSet
217 -200 m 5xe0
 283 -40 l 1
 451 -40 l 1
 347 -200 l 5
 217 -200 l 5xe0
63 0 m 1xf0
 174 700 l 1
 344 700 l 1xe8
 306 464 l 1
 539 700 l 1
 760 700 l 1
 460 397 l 1
 671 0 l 1
 465 0 l 1
 326 261 l 1
 264 199 l 1
 233 0 l 1
 63 0 l 1xf0
EndSplineSet
EndChar

StartChar: uni0137
Encoding: 311 311 244
GlifName: uni0137
Width: 594
Flags: W
HStem: -200 21G<147 290> 0 21G<48 221.158 358.493 581> 480 20G<410.94 660> 680 20G<155.829 329>
VStem: 159 170<530 700>
LayerCount: 2
Fore
SplineSet
147 -200 m 5
 213 -40 l 1
 381 -40 l 1
 277 -200 l 5
 147 -200 l 5
48 0 m 1
 159 700 l 1
 329 700 l 1
 273 349 l 1
 432 500 l 1
 660 500 l 1
 423 275 l 1
 581 0 l 1
 370 0 l 1
 286 146 l 1
 233 95 l 1
 218 0 l 1
 48 0 l 1
EndSplineSet
EndChar

StartChar: Lacute
Encoding: 313 313 245
GlifName: L_acute
Width: 559
Flags: W
HStem: 0 170<260 536> 680 20G<170.829 344>
VStem: 174 170<530 700>
LayerCount: 2
Fore
SplineSet
182 754 m 5
 312 900 l 5
 508 900 l 5
 358 754 l 5
 182 754 l 5
63 0 m 1
 174 700 l 1
 344 700 l 1
 260 170 l 1
 563 170 l 1
 536 0 l 1
 63 0 l 1
EndSplineSet
EndChar

StartChar: lacute
Encoding: 314 314 246
GlifName: lacute
Width: 266
Flags: W
HStem: 0 21G<48 221.171> 680 20G<155.829 329>
VStem: 48 170<0 170> 159 170<530 700>
LayerCount: 2
Fore
SplineSet
159 754 m 5xd0
 289 900 l 5
 485 900 l 5
 335 754 l 5
 159 754 l 5xd0
159 700 m 1
 329 700 l 1xd0
 218 0 l 1
 48 0 l 1xe0
 159 700 l 1
EndSplineSet
EndChar

StartChar: uni013B
Encoding: 315 315 247
GlifName: uni013B_
Width: 559
Flags: W
HStem: -200 21G<145 288> 0 170<260 536> 680 20G<170.829 344>
VStem: 174 170<530 700>
LayerCount: 2
Fore
SplineSet
145 -200 m 5
 211 -40 l 1
 379 -40 l 1
 275 -200 l 5
 145 -200 l 5
63 0 m 1
 174 700 l 1
 344 700 l 1
 260 170 l 1
 563 170 l 1
 536 0 l 1
 63 0 l 1
EndSplineSet
EndChar

StartChar: uni013C
Encoding: 316 316 248
GlifName: uni013C_
Width: 266
Flags: W
HStem: -200 21G<-22 121> 0 21G<48 221.171> 680 20G<155.829 329>
VStem: 48 170<0 170> 159 170<530 700>
LayerCount: 2
Fore
SplineSet
-22 -200 m 5xe0
 44 -40 l 1
 212 -40 l 1
 108 -200 l 5
 -22 -200 l 5xe0
159 700 m 1xe8
 329 700 l 1xe8
 218 0 l 1
 48 0 l 1xf0
 159 700 l 1xe8
EndSplineSet
EndChar

StartChar: Lcaron
Encoding: 317 317 249
GlifName: L_caron
Width: 559
Flags: W
HStem: 0 170<260 536> 609 150<417 501> 680 20G<170.829 344>
VStem: 174 170<530 700>
LayerCount: 2
Fore
SplineSet
371 609 m 5xd0
 417 759 l 1
 567 759 l 1
 501 609 l 5
 371 609 l 5xd0
63 0 m 1
 174 700 l 1
 344 700 l 1xb0
 260 170 l 1
 563 170 l 1
 536 0 l 1
 63 0 l 1
EndSplineSet
EndChar

StartChar: lcaron
Encoding: 318 318 250
GlifName: lcaron
Width: 266
Flags: W
HStem: 0 21G<48 221.171> 550 150<373 457>
VStem: 48 170<0 170> 159 170<530 700>
LayerCount: 2
Fore
SplineSet
327 550 m 5xc0
 373 700 l 1
 523 700 l 1
 457 550 l 5
 327 550 l 5xc0
159 700 m 1xd0
 329 700 l 1xd0
 218 0 l 1
 48 0 l 1xe0
 159 700 l 1xd0
EndSplineSet
EndChar

StartChar: Ldot
Encoding: 319 319 251
GlifName: L_dot
Width: 559
Flags: W
HStem: 0 170<260 536> 308 200<423.928 521.072> 680 20G<170.829 344>
VStem: 174 170<530 700>
LayerCount: 2
Fore
SplineSet
63 0 m 1
 174 700 l 1
 344 700 l 1
 260 170 l 1
 563 170 l 1
 536 0 l 1
 63 0 l 1
573 408 m 4
 569 381 555 358 532 338 c 4
 509 318 484 308 457 308 c 4
 430 308 408 318 391 338 c 4
 374 358 369 381 373 408 c 4
 377 435 390 458 413 478 c 4
 436 498 461 508 488 508 c 4
 515 508 537 498 554 478 c 4
 571 458 577 435 573 408 c 4
EndSplineSet
EndChar

StartChar: ldot
Encoding: 320 320 252
GlifName: ldot
Width: 472
Flags: W
HStem: 0 21G<48 221.171> 268 200<352.928 450.007> 680 20G<155.829 329>
VStem: 48 170<0 170> 159 170<530 700>
LayerCount: 2
Fore
SplineSet
159 700 m 1xe8
 329 700 l 1xe8
 218 0 l 1
 48 0 l 1xf0
 159 700 l 1xe8
501 368 m 4
 497 341 484 318 461 298 c 4
 438 278 412 268 385 268 c 4
 358 268 337 278 320 298 c 4
 303 318 297 341 301 368 c 4
 305 395 319 418 342 438 c 4
 365 458 390 468 417 468 c 4
 444 468 466 458 483 438 c 4
 500 418 505 395 501 368 c 4
EndSplineSet
EndChar

StartChar: Lslash
Encoding: 321 321 253
GlifName: L_slash
Width: 559
Flags: W
HStem: 0 170<260 536> 680 20G<170.829 344>
VStem: 174 170<530 700>
LayerCount: 2
Fore
SplineSet
63 0 m 1
 174 700 l 1
 344 700 l 1
 260 170 l 1
 563 170 l 1
 536 0 l 1
 63 0 l 1
37 212 m 1
 67 405 l 1
 430 586 l 1
 399 393 l 1
 37 212 l 1
EndSplineSet
EndChar

StartChar: lslash
Encoding: 322 322 254
GlifName: lslash
Width: 296
Flags: W
HStem: 0 21G<58 241.171> 680 20G<165.829 349>
VStem: 58 180<0 180> 169 180<520 700>
LayerCount: 2
Fore
SplineSet
33 190 m 1xc0
 64 383 l 1
 378 537 l 1
 348 344 l 1
 33 190 l 1xc0
58 0 m 1xe0
 169 700 l 1
 349 700 l 1xd0
 238 0 l 1
 58 0 l 1xe0
EndSplineSet
EndChar

StartChar: Nacute
Encoding: 323 323 255
GlifName: N_acute
Width: 719
Flags: W
HStem: 0 21G<63 236.188 476.18 659.171> 680 20G<170.829 353.82 593.812 767>
VStem: 63 170<0 170> 597 170<530 700>
LayerCount: 2
Fore
SplineSet
391 734 m 5
 520 880 l 5
 716 880 l 5
 567 734 l 5
 391 734 l 5
174 700 m 1
 344 700 l 1
 535 311 l 1
 597 700 l 1
 767 700 l 1
 656 0 l 1
 486 0 l 1
 295 389 l 1
 233 0 l 1
 63 0 l 1
 174 700 l 1
EndSplineSet
EndChar

StartChar: nacute
Encoding: 324 324 256
GlifName: nacute
Width: 584
Flags: W
HStem: 0 21G<48 221.182 371 544.203> 342 170<317.694 445> 480 20G<123.84 285> 680 20G<396.329 610>
VStem: 48 170<0 170> 371 170<0 170>
LayerCount: 2
Fore
SplineSet
285 554 m 5x9c
 414 700 l 5
 610 700 l 5
 461 554 l 5
 285 554 l 5x9c
541 0 m 1
 371 0 l 1
 413 264 l 2
 417 287 412 306 400 320 c 0
 388 334 371 342 349 342 c 0xdc
 327 342 308 334 291 320 c 0
 274 306 264 287 260 264 c 2
 218 0 l 1
 48 0 l 1
 127 500 l 1
 285 500 l 1
 279 463 l 1
 286 469 293 475 300 480 c 4xbc
 331 501 369 512 412 512 c 0xdc
 478 512 526 488 555 440 c 0
 584 392 594 331 582 256 c 2
 541 0 l 1
EndSplineSet
EndChar

StartChar: uni0145
Encoding: 325 325 257
GlifName: uni0145
Width: 719
Flags: W
HStem: -200 21G<225 367.875> 0 21G<63 236.188 476.18 659.171> 680 20G<170.829 353.82 593.812 767>
VStem: 63 170<0 170> 597 170<530 700>
LayerCount: 2
Fore
SplineSet
225 -200 m 5
 290 -40 l 1
 458 -40 l 1
 355 -200 l 5
 225 -200 l 5
174 700 m 1
 344 700 l 1
 535 311 l 1
 597 700 l 1
 767 700 l 1
 656 0 l 1
 486 0 l 1
 295 389 l 1
 233 0 l 1
 63 0 l 1
 174 700 l 1
EndSplineSet
EndChar

StartChar: uni0146
Encoding: 326 326 258
GlifName: uni0146
Width: 584
Flags: W
HStem: -200 21G<140 283> 0 21G<48 221.182 371 544.203> 342 170<317.694 445> 480 20G<123.84 285>
VStem: 48 170<0 170> 371 170<0 170>
LayerCount: 2
Fore
SplineSet
140 -200 m 5xcc
 206 -40 l 1
 374 -40 l 1
 270 -200 l 5
 140 -200 l 5xcc
541 0 m 1
 371 0 l 1
 413 264 l 2
 417 287 412 306 400 320 c 0
 388 334 371 342 349 342 c 0xec
 327 342 308 334 291 320 c 0
 274 306 264 287 260 264 c 2
 218 0 l 1
 48 0 l 1
 127 500 l 1
 285 500 l 1
 279 463 l 1
 286 469 293 475 300 480 c 4xdc
 331 501 369 512 412 512 c 0xec
 478 512 526 488 555 440 c 0
 584 392 594 331 582 256 c 2
 541 0 l 1
EndSplineSet
EndChar

StartChar: Ncaron
Encoding: 327 327 259
GlifName: N_caron
Width: 719
Flags: W
HStem: 0 21G<63 236.188 476.18 659.171> 680 20G<170.829 353.82 593.812 767> 734 146<397 462 560 579>
VStem: 63 170<0 170> 597 170<530 700>
LayerCount: 2
Fore
SplineSet
299 880 m 5
 462 880 l 5
 502 824 l 5
 560 880 l 5
 723 880 l 5
 579 734 l 5
 397 734 l 5
 299 880 l 5
174 700 m 1
 344 700 l 1
 535 311 l 1
 597 700 l 1
 767 700 l 1
 656 0 l 1
 486 0 l 1
 295 389 l 1
 233 0 l 1
 63 0 l 1
 174 700 l 1
EndSplineSet
EndChar

StartChar: ncaron
Encoding: 328 328 260
GlifName: ncaron
Width: 584
Flags: W
HStem: 0 21G<48 221.182 371 544.203> 342 170<317.694 445> 480 20G<123.84 285> 554 146<275 341 439 458>
VStem: 48 170<0 170> 371 170<0 170>
LayerCount: 2
Fore
SplineSet
178 700 m 5x9c
 341 700 l 5
 381 644 l 5
 439 700 l 5
 602 700 l 5
 458 554 l 5
 275 554 l 5
 178 700 l 5x9c
541 0 m 1
 371 0 l 1
 413 264 l 2
 417 287 412 306 400 320 c 0
 388 334 371 342 349 342 c 0xdc
 327 342 308 334 291 320 c 0
 274 306 264 287 260 264 c 2
 218 0 l 1
 48 0 l 1
 127 500 l 1
 285 500 l 1
 279 463 l 1
 286 469 293 475 300 480 c 4xbc
 331 501 369 512 412 512 c 0xdc
 478 512 526 488 555 440 c 0
 584 392 594 331 582 256 c 2
 541 0 l 1
EndSplineSet
EndChar

StartChar: Eng
Encoding: 330 330 261
GlifName: E_ng
Width: 719
Flags: W
HStem: -20 20G<485 656> 0 21G<63 236.188 476.18 659.171> 680 20G<170.829 353.82 593.812 767>
VStem: 63 170<0 170> 597 170<530 700>
LayerCount: 2
Fore
SplineSet
174 700 m 1x78
 344 700 l 1
 535 311 l 1
 597 700 l 1
 767 700 l 1
 656 0 l 1
 486 0 l 1xb8
 295 389 l 1
 233 0 l 1
 63 0 l 1
 174 700 l 1x78
486 0 m 5
 656 0 l 5
 655 -5 l 6
 646 -63 617 -113 570 -154 c 4
 523 -195 470 -215 412 -215 c 6
 372 -215 l 5
 399 -45 l 5
 439 -45 l 6
 450 -45 460 -41 469 -33 c 4
 478 -25 483 -16 485 -5 c 6
 486 0 l 5
EndSplineSet
EndChar

StartChar: eng
Encoding: 331 331 262
GlifName: eng
Width: 584
Flags: W
HStem: -20 20G<370 541> 0 21G<48 221.182 371 544.203> 342 170<317.694 445> 480 20G<123.84 285>
VStem: 48 170<0 170> 371 170<0 170>
LayerCount: 2
Fore
SplineSet
541 0 m 1xac
 371 0 l 1
 413 264 l 2
 417 287 412 306 400 320 c 0
 388 334 371 342 349 342 c 0xac
 327 342 308 334 291 320 c 0
 274 306 264 287 260 264 c 2
 218 0 l 1
 48 0 l 1
 127 500 l 1
 285 500 l 1
 279 463 l 1
 286 469 293 475 300 480 c 4x5c
 331 501 369 512 412 512 c 0
 478 512 526 488 555 440 c 0
 584 392 594 331 582 256 c 2
 541 0 l 1xac
371 0 m 5
 541 0 l 5
 540 -5 l 6
 531 -63 502 -113 455 -154 c 4
 408 -195 355 -215 297 -215 c 6
 257 -215 l 5
 284 -45 l 5
 324 -45 l 6
 335 -45 345 -41 354 -33 c 4
 363 -25 368 -16 370 -5 c 6
 371 0 l 5
EndSplineSet
EndChar

StartChar: Omacron
Encoding: 332 332 263
GlifName: O_macron
Width: 780
Flags: W
HStem: -12 170<328.415 508.25> 542 170<384.224 560.858> 749 151<372 688>
LayerCount: 2
Fore
SplineSet
476 542 m 0
 423 542 374 523 331 485 c 0
 288 447 261 403 253 350 c 0
 245 297 256 252 288 214 c 0
 320 176 362 158 415 158 c 0
 468 158 517 176 560 214 c 0
 603 252 629 297 637 350 c 0
 645 403 635 447 603 485 c 0
 571 523 529 542 476 542 c 0
503 712 m 0
 602 712 681 677 740 608 c 0
 801 537 823 452 807 350 c 0
 791 247 741 159 656 88 c 0
 575 21 486 -12 388 -12 c 0
 286 -12 206 23 147 95 c 0
 89 165 67 251 83 350 c 0
 99 449 148 534 228 604 c 0
 310 676 402 712 503 712 c 0
348 749 m 1
 372 900 l 1
 712 900 l 1
 688 749 l 1
 348 749 l 1
EndSplineSet
EndChar

StartChar: omacron
Encoding: 333 333 264
GlifName: omacron
Width: 570
Flags: W
HStem: -12 170<255.396 371.634> 342 170<277.558 393.604> 549 151<225 541>
LayerCount: 2
Fore
SplineSet
201 549 m 1
 225 700 l 1
 565 700 l 1
 541 549 l 1
 201 549 l 1
339 342 m 0
 314 342 291 333 270 315 c 0
 249 297 237 275 233 250 c 0
 229 225 234 203 249 185 c 0
 264 167 285 158 310 158 c 0
 335 158 358 167 379 185 c 0
 400 203 413 225 417 250 c 0
 421 275 415 297 400 315 c 0
 385 333 364 342 339 342 c 0
366 512 m 0
 438 512 496 486 539 435 c 0
 582 384 598 322 587 250 c 0
 576 178 540 116 481 65 c 0
 422 14 355 -12 283 -12 c 0
 211 -12 153 14 110 65 c 0
 67 116 52 178 63 250 c 0
 74 322 110 384 169 435 c 0
 228 486 294 512 366 512 c 0
EndSplineSet
EndChar

StartChar: Obreve
Encoding: 334 334 265
GlifName: O_breve
Width: 780
Flags: W
HStem: -12 170<328.415 508.25> 542 170<384.224 560.858> 742 119<495.161 582.045>
LayerCount: 2
Fore
SplineSet
476 542 m 0
 423 542 374 523 331 485 c 0
 288 447 261 403 253 350 c 0
 245 297 256 252 288 214 c 0
 320 176 362 158 415 158 c 0
 468 158 517 176 560 214 c 0
 603 252 629 297 637 350 c 0
 645 403 635 447 603 485 c 0
 571 523 529 542 476 542 c 0
503 712 m 0
 602 712 681 677 740 608 c 0
 801 537 823 452 807 350 c 0
 791 247 741 159 656 88 c 0
 575 21 486 -12 388 -12 c 0
 286 -12 206 23 147 95 c 0
 89 165 67 251 83 350 c 0
 99 449 148 534 228 604 c 0
 310 676 402 712 503 712 c 0
361 900 m 1
 488 900 l 1
 486 889 490 880 499 872 c 0
 508 864 519 861 533 861 c 0
 547 861 560 864 571 872 c 0
 582 880 588 889 590 900 c 1
 717 900 l 1
 710 856 688 819 649 788 c 0
 610 757 565 742 514 742 c 0
 463 742 423 757 394 788 c 0
 365 819 354 856 361 900 c 1
EndSplineSet
EndChar

StartChar: obreve
Encoding: 335 335 266
GlifName: obreve
Width: 570
Flags: W
HStem: -12 170<255.396 371.634> 342 170<277.558 393.604> 542 119<349.161 436.045>
LayerCount: 2
Fore
SplineSet
339 342 m 0
 314 342 291 333 270 315 c 0
 249 297 237 275 233 250 c 0
 229 225 234 203 249 185 c 0
 264 167 285 158 310 158 c 0
 335 158 358 167 379 185 c 0
 400 203 413 225 417 250 c 0
 421 275 415 297 400 315 c 0
 385 333 364 342 339 342 c 0
366 512 m 0
 438 512 496 486 539 435 c 0
 582 384 598 322 587 250 c 0
 576 178 540 116 481 65 c 0
 422 14 355 -12 283 -12 c 0
 211 -12 153 14 110 65 c 0
 67 116 52 178 63 250 c 0
 74 322 110 384 169 435 c 0
 228 486 294 512 366 512 c 0
215 700 m 1
 342 700 l 1
 340 689 344 680 353 672 c 0
 362 664 373 661 387 661 c 0
 401 661 414 664 425 672 c 0
 436 680 442 689 444 700 c 1
 571 700 l 1
 564 656 542 619 503 588 c 0
 464 557 419 542 368 542 c 0
 317 542 277 557 248 588 c 0
 219 619 208 656 215 700 c 1
EndSplineSet
EndChar

StartChar: Ohungarumlaut
Encoding: 336 336 267
GlifName: O_hungarumlaut
Width: 780
Flags: W
HStem: -12 170<328.415 508.25> 542 170<384.224 560.858>
LayerCount: 2
Fore
SplineSet
564 754 m 1
 681 900 l 1
 851 900 l 1
 712 754 l 1
 564 754 l 1
340 754 m 1
 453 900 l 1
 623 900 l 1
 486 754 l 1
 340 754 l 1
476 542 m 0
 423 542 374 523 331 485 c 0
 288 447 261 403 253 350 c 0
 245 297 256 252 288 214 c 0
 320 176 362 158 415 158 c 0
 468 158 517 176 560 214 c 0
 603 252 629 297 637 350 c 0
 645 403 635 447 603 485 c 0
 571 523 529 542 476 542 c 0
503 712 m 0
 602 712 681 677 740 608 c 0
 801 537 823 452 807 350 c 0
 791 247 741 159 656 88 c 0
 575 21 486 -12 388 -12 c 0
 286 -12 206 23 147 95 c 0
 89 165 67 251 83 350 c 0
 99 449 148 534 228 604 c 0
 310 676 402 712 503 712 c 0
EndSplineSet
EndChar

StartChar: ohungarumlaut
Encoding: 337 337 268
GlifName: ohungarumlaut
Width: 570
Flags: W
HStem: -12 170<255.396 371.634> 342 170<277.558 393.604> 680 20G<286.521 472 513.973 700>
LayerCount: 2
Fore
SplineSet
413 554 m 1
 530 700 l 1
 700 700 l 1
 561 554 l 1
 413 554 l 1
189 554 m 1
 302 700 l 1
 472 700 l 1
 335 554 l 1
 189 554 l 1
339 342 m 0
 314 342 291 333 270 315 c 0
 249 297 237 275 233 250 c 0
 229 225 234 203 249 185 c 0
 264 167 285 158 310 158 c 0
 335 158 358 167 379 185 c 0
 400 203 413 225 417 250 c 0
 421 275 415 297 400 315 c 0
 385 333 364 342 339 342 c 0
366 512 m 0
 438 512 496 486 539 435 c 0
 582 384 598 322 587 250 c 0
 576 178 540 116 481 65 c 0
 422 14 355 -12 283 -12 c 0
 211 -12 153 14 110 65 c 0
 67 116 52 178 63 250 c 0
 74 322 110 384 169 435 c 0
 228 486 294 512 366 512 c 0
EndSplineSet
EndChar

StartChar: OE
Encoding: 338 338 269
GlifName: O_E_
Width: 1111
Flags: W
HStem: -12 170<328.415 508.25> 0 170<779 1058> 266 169<821 1029> 530 170<836 1141> 542 170<384.224 560.858>
LayerCount: 2
Fore
SplineSet
476 542 m 0xa8
 423 542 374 523 331 485 c 0
 288 447 261 403 253 350 c 0
 245 297 256 252 288 214 c 0
 320 176 362 158 415 158 c 0
 468 158 517 176 560 214 c 0
 603 252 629 297 637 350 c 0
 645 403 635 447 603 485 c 0
 571 523 529 542 476 542 c 0xa8
503 712 m 0
 602 712 681 677 740 608 c 0
 801 537 823 452 807 350 c 0
 791 247 741 159 656 88 c 0
 575 21 486 -12 388 -12 c 0
 286 -12 206 23 147 95 c 0
 89 165 67 251 83 350 c 0
 99 449 148 534 228 604 c 0
 310 676 402 712 503 712 c 0
582 0 m 1x70
 693 700 l 1
 1168 700 l 1
 1141 530 l 1
 836 530 l 1
 821 435 l 1
 1056 435 l 1
 1029 266 l 1
 794 266 l 1
 779 170 l 1
 1085 170 l 1
 1058 0 l 1
 582 0 l 1x70
EndSplineSet
EndChar

StartChar: oe
Encoding: 339 339 270
GlifName: oe
Width: 904
Flags: W
HStem: -12 170<255.396 371.634> -12 136<581.763 765.887> 180 120<613 767> 342 170<277.558 393.604> 356 156<639.993 746.933>
LayerCount: 2
Fore
SplineSet
920 180 m 5x68
 598 180 l 5
 602 166 612 153 624 141 c 4
 636 129 652 124 673 124 c 4
 716 124 735 132 771 148 c 5
 840 44 l 5
 772 1 720 -12 652 -12 c 4
 577 -12 515 14 469 65 c 4
 423 116 406 178 417 250 c 4
 429 323 464 385 523 436 c 4
 582 487 647 512 720 512 c 4
 789 512 845 486 886 435 c 4
 927 384 942 320 930 244 c 6
 920 180 l 5x68
700 356 m 4
 681 356 665 352 651 343 c 4
 636 334 623 319 613 300 c 5
 767 300 l 5
 763 320 755 335 743 344 c 4
 732 352 718 356 700 356 c 4
339 342 m 0xb0
 314 342 291 333 270 315 c 0
 249 297 237 275 233 250 c 0
 229 225 234 203 249 185 c 0
 264 167 285 158 310 158 c 0
 335 158 358 167 379 185 c 0
 400 203 413 225 417 250 c 0
 421 275 415 297 400 315 c 0
 385 333 364 342 339 342 c 0xb0
366 512 m 0
 438 512 496 486 539 435 c 0
 582 384 598 322 587 250 c 0
 576 178 540 116 481 65 c 0
 422 14 355 -12 283 -12 c 0
 211 -12 153 14 110 65 c 0
 67 116 52 178 63 250 c 0
 74 322 110 384 169 435 c 0
 228 486 294 512 366 512 c 0
EndSplineSet
EndChar

StartChar: Racute
Encoding: 340 340 271
GlifName: R_acute
Width: 614
Flags: W
HStem: 0 21G<63 236.143 410.905 596> 530 170<317 483.388>
VStem: 63 170<0 170> 415 181<0 181>
LayerCount: 2
Fore
SplineSet
313 754 m 5
 443 900 l 5
 639 900 l 5
 489 754 l 5
 313 754 l 5
317 530 m 1
 293 380 l 1
 411 380 l 2
 431 380 450 387 467 402 c 0
 484 417 495 435 498 455 c 0
 501 475 497 493 484 508 c 0
 471 523 455 530 435 530 c 2
 317 530 l 1
174 700 m 1
 462 700 l 2
 529 700 583 676 623 628 c 0
 663 580 679 522 668 455 c 0
 662 416 647 380 625 346 c 0
 603 312 575 284 542 261 c 1
 596 0 l 1
 415 0 l 1
 372 210 l 1
 266 210 l 1
 233 0 l 1
 63 0 l 1
 174 700 l 1
EndSplineSet
EndChar

StartChar: racute
Encoding: 341 341 272
GlifName: racute
Width: 413
Flags: W
HStem: 0 21G<48 221.122> 342 170<361.812 449> 480 20G<123.84 285> 680 20G<287.329 501>
VStem: 48 170<0 170>
LayerCount: 2
Fore
SplineSet
176 554 m 5x98
 305 700 l 5
 501 700 l 5
 352 554 l 5
 176 554 l 5x98
127 500 m 1xb8
 285 500 l 1xb8
 275 435 l 1
 280 440 285 445 291 449 c 0
 308 462 327 474 347 484 c 0
 386 503 429 512 476 512 c 1
 449 342 l 1xd8
 405 342 366 331 331 309 c 0
 296 287 269 252 250 205 c 5
 218 0 l 1
 48 0 l 1
 127 500 l 1xb8
EndSplineSet
EndChar

StartChar: uni0156
Encoding: 342 342 273
GlifName: uni0156
Width: 614
Flags: W
HStem: -200 21G<173 316> 0 21G<63 236.143 410.905 596> 530 170<317 483.388>
VStem: 63 170<0 170> 415 181<0 181>
LayerCount: 2
Fore
SplineSet
173 -200 m 5
 239 -40 l 1
 407 -40 l 1
 303 -200 l 5
 173 -200 l 5
317 530 m 1
 293 380 l 1
 411 380 l 2
 431 380 450 387 467 402 c 0
 484 417 495 435 498 455 c 0
 501 475 497 493 484 508 c 0
 471 523 455 530 435 530 c 2
 317 530 l 1
174 700 m 1
 462 700 l 2
 529 700 583 676 623 628 c 0
 663 580 679 522 668 455 c 0
 662 416 647 380 625 346 c 0
 603 312 575 284 542 261 c 1
 596 0 l 1
 415 0 l 1
 372 210 l 1
 266 210 l 1
 233 0 l 1
 63 0 l 1
 174 700 l 1
EndSplineSet
EndChar

StartChar: uni0157
Encoding: 343 343 274
GlifName: uni0157
Width: 413
Flags: W
HStem: -200 21G<-28 115> 0 21G<48 221.122> 342 170<361.812 449> 480 20G<123.84 285>
VStem: 48 170<0 170>
LayerCount: 2
Fore
SplineSet
-28 -200 m 5xc8
 38 -40 l 1
 206 -40 l 1
 102 -200 l 5
 -28 -200 l 5xc8
127 500 m 1xd8
 285 500 l 1xd8
 275 435 l 1
 280 440 285 445 291 449 c 0
 308 462 327 474 347 484 c 0
 386 503 429 512 476 512 c 1
 449 342 l 1xe8
 405 342 366 331 331 309 c 0
 296 287 269 252 250 205 c 5
 218 0 l 1
 48 0 l 1
 127 500 l 1xd8
EndSplineSet
EndChar

StartChar: Rcaron
Encoding: 344 344 275
GlifName: R_caron
Width: 614
Flags: W
HStem: 0 21G<63 236.143 410.905 596> 530 170<317 483.388> 754 146<319 385 483 502>
VStem: 63 170<0 170> 415 181<0 181>
LayerCount: 2
Fore
SplineSet
222 900 m 5
 385 900 l 5
 425 844 l 5
 483 900 l 5
 645 900 l 5
 502 754 l 5
 319 754 l 5
 222 900 l 5
317 530 m 1
 293 380 l 1
 411 380 l 2
 431 380 450 387 467 402 c 0
 484 417 495 435 498 455 c 0
 501 475 497 493 484 508 c 0
 471 523 455 530 435 530 c 2
 317 530 l 1
174 700 m 1
 462 700 l 2
 529 700 583 676 623 628 c 0
 663 580 679 522 668 455 c 0
 662 416 647 380 625 346 c 0
 603 312 575 284 542 261 c 1
 596 0 l 1
 415 0 l 1
 372 210 l 1
 266 210 l 1
 233 0 l 1
 63 0 l 1
 174 700 l 1
EndSplineSet
EndChar

StartChar: rcaron
Encoding: 345 345 276
GlifName: rcaron
Width: 413
Flags: W
HStem: 0 21G<48 221.122> 342 170<361.812 449> 480 20G<123.84 285> 554 146<201 267 365 384>
VStem: 48 170<0 170>
LayerCount: 2
Fore
SplineSet
104 700 m 5x98
 267 700 l 5
 307 644 l 5
 365 700 l 5
 528 700 l 5
 384 554 l 5
 201 554 l 5
 104 700 l 5x98
127 500 m 1xb8
 285 500 l 1xb8
 275 435 l 1
 280 440 285 445 291 449 c 0
 308 462 327 474 347 484 c 0
 386 503 429 512 476 512 c 1
 449 342 l 1xd8
 405 342 366 331 331 309 c 0
 296 287 269 252 250 205 c 5
 218 0 l 1
 48 0 l 1
 127 500 l 1xb8
EndSplineSet
EndChar

StartChar: Sacute
Encoding: 346 346 277
GlifName: S_acute
Width: 560
Flags: W
HStem: -12 170<240.175 367.747> 508 21G<418.5 496.727> 542 170<300.89 407.572>
LayerCount: 2
Fore
SplineSet
308 754 m 5
 437 900 l 5
 633 900 l 5
 484 754 l 5
 308 754 l 5
389 712 m 0
 443 712 488 697 526 667 c 0
 564 637 585 599 590 552 c 1
 419 508 l 1
 418 518 413 527 402 533 c 0
 391 539 378 542 362 542 c 0
 343 542 327 538 313 530 c 0
 299 522 291 511 289 496 c 0
 287 486 291 477 300 470 c 0
 312 460 332 453 361 448 c 0
 429 436 482 411 520 373 c 0
 558 335 572 284 562 219 c 0
 552 154 518 98 462 54 c 0
 406 10 343 -12 274 -12 c 0
 217 -12 167 4 127 36 c 0
 87 68 63 109 58 159 c 1
 229 203 l 1
 230 190 238 179 252 171 c 0
 266 163 282 158 301 158 c 0
 324 158 344 163 361 174 c 0
 378 185 389 200 392 219 c 0
 394 234 390 247 378 257 c 0
 364 269 340 278 307 284 c 0
 244 295 194 319 158 354 c 0
 122 389 109 436 119 496 c 0
 129 557 159 609 212 650 c 0
 265 691 324 712 389 712 c 0
EndSplineSet
EndChar

StartChar: sacute
Encoding: 347 347 278
GlifName: sacute
Width: 455
Flags: W
HStem: -12 151<169.484 273.559> 364 148<258.054 361.135> 680 20G<345.329 559>
LayerCount: 2
Fore
SplineSet
234 554 m 5
 363 700 l 5
 559 700 l 5
 410 554 l 5
 234 554 l 5
485 397 m 1
 317 342 l 1
 315 350 312 355 307 359 c 0
 302 362 296 364 289 364 c 0
 280 364 273 362 267 358 c 0
 261 354 257 349 257 343 c 0
 257 332 271 325 299 323 c 0
 313 322 322 322 325 321 c 0
 359 315 387 302 408 283 c 0
 445 248 460 204 451 149 c 0
 441 93 411 50 363 20 c 0
 328 -2 284 -12 229 -12 c 0
 183 -11 143 -1 108 18 c 0
 73 37 51 65 44 103 c 1
 214 161 l 1
 218 146 229 139 245 139 c 0
 256 139 264 141 270 144 c 0
 275 147 278 152 278 158 c 0
 278 168 258 175 219 179 c 0
 211 180 206 180 202 181 c 0
 157 189 125 209 106 239 c 0
 87 269 81 304 87 345 c 0
 96 399 121 440 165 468 c 0
 209 496 257 511 309 512 c 0
 359 512 398 502 428 482 c 0
 456 463 475 434 485 397 c 1
EndSplineSet
EndChar

StartChar: Scircumflex
Encoding: 348 348 279
GlifName: S_circumflex
Width: 560
Flags: W
HStem: -12 170<240.175 367.747> 508 21G<418.5 496.727> 542 170<300.89 407.572> 754 146<347 358 456 514>
LayerCount: 2
Fore
SplineSet
193 754 m 1
 347 900 l 1
 514 900 l 1
 621 754 l 1
 456 754 l 1
 415 806 l 1
 358 754 l 1
 193 754 l 1
389 712 m 0
 443 712 488 697 526 667 c 0
 564 637 585 599 590 552 c 1
 419 508 l 1
 418 518 413 527 402 533 c 0
 391 539 378 542 362 542 c 0
 343 542 327 538 313 530 c 0
 299 522 291 511 289 496 c 0
 287 486 291 477 300 470 c 0
 312 460 332 453 361 448 c 0
 429 436 482 411 520 373 c 0
 558 335 572 284 562 219 c 0
 552 154 518 98 462 54 c 0
 406 10 343 -12 274 -12 c 0
 217 -12 167 4 127 36 c 0
 87 68 63 109 58 159 c 1
 229 203 l 1
 230 190 238 179 252 171 c 0
 266 163 282 158 301 158 c 0
 324 158 344 163 361 174 c 0
 378 185 389 200 392 219 c 0
 394 234 390 247 378 257 c 0
 364 269 340 278 307 284 c 0
 244 295 194 319 158 354 c 0
 122 389 109 436 119 496 c 0
 129 557 159 609 212 650 c 0
 265 691 324 712 389 712 c 0
EndSplineSet
EndChar

StartChar: scircumflex
Encoding: 349 349 280
GlifName: scircumflex
Width: 455
Flags: W
HStem: -12 151<169.484 273.559> 364 148<258.054 361.135> 554 146<260 272 370 427>
LayerCount: 2
Fore
SplineSet
107 554 m 1
 260 700 l 1
 427 700 l 1
 534 554 l 1
 370 554 l 1
 329 606 l 1
 272 554 l 1
 107 554 l 1
485 397 m 1
 317 342 l 1
 315 350 312 355 307 359 c 0
 302 362 296 364 289 364 c 0
 280 364 273 362 267 358 c 0
 261 354 257 349 257 343 c 0
 257 332 271 325 299 323 c 0
 313 322 322 322 325 321 c 0
 359 315 387 302 408 283 c 0
 445 248 460 204 451 149 c 0
 441 93 411 50 363 20 c 0
 328 -2 284 -12 229 -12 c 0
 183 -11 143 -1 108 18 c 0
 73 37 51 65 44 103 c 1
 214 161 l 1
 218 146 229 139 245 139 c 0
 256 139 264 141 270 144 c 0
 275 147 278 152 278 158 c 0
 278 168 258 175 219 179 c 0
 211 180 206 180 202 181 c 0
 157 189 125 209 106 239 c 0
 87 269 81 304 87 345 c 0
 96 399 121 440 165 468 c 0
 209 496 257 511 309 512 c 0
 359 512 398 502 428 482 c 0
 456 463 475 434 485 397 c 1
EndSplineSet
EndChar

StartChar: Scedilla
Encoding: 350 350 281
GlifName: S_cedilla
Width: 560
Flags: W
HStem: -210 120<209.942 297.877> -12 170<240.175 312.5> 508 21G<418.5 496.727> 542 170<300.89 407.572>
LayerCount: 2
Fore
SplineSet
387 83 m 1
 422 50 436 7 428 -45 c 0
 421 -90 398 -130 361 -162 c 0
 324 -194 281 -210 236 -210 c 0
 198 -210 167 -198 141 -175 c 1
 197 -109 225 -76 225 -76 c 4
 232 -85 242 -90 255 -90 c 0
 268 -90 280 -86 290 -77 c 0
 300 -68 306 -58 308 -45 c 0
 310 -34 307 -23 301 -15 c 0
 295 -7 286 -1 275 -0 c 1
 387 83 l 1
389 712 m 0
 443 712 488 697 526 667 c 0
 564 637 585 599 590 552 c 1
 419 508 l 1
 418 518 413 527 402 533 c 0
 391 539 378 542 362 542 c 0
 343 542 327 538 313 530 c 0
 299 522 291 511 289 496 c 0
 287 486 291 477 300 470 c 0
 312 460 332 453 361 448 c 0
 429 436 482 411 520 373 c 0
 558 335 572 284 562 219 c 0
 552 154 518 98 462 54 c 0
 406 10 343 -12 274 -12 c 0
 217 -12 167 4 127 36 c 0
 87 68 63 109 58 159 c 1
 229 203 l 1
 230 190 238 179 252 171 c 0
 266 163 282 158 301 158 c 0
 324 158 344 163 361 174 c 0
 378 185 389 200 392 219 c 0
 394 234 390 247 378 257 c 0
 364 269 340 278 307 284 c 0
 244 295 194 319 158 354 c 0
 122 389 109 436 119 496 c 0
 129 557 159 609 212 650 c 0
 265 691 324 712 389 712 c 0
EndSplineSet
EndChar

StartChar: scedilla
Encoding: 351 351 282
GlifName: scedilla
Width: 455
Flags: W
HStem: -209 120<152.773 240.15> -12 151<169.484 270> 364 148<258.054 361.135>
LayerCount: 2
Fore
SplineSet
330 84 m 1
 365 51 378 8 370 -44 c 0
 363 -89 340 -128 303 -160 c 0
 266 -192 224 -209 179 -209 c 0
 141 -209 109 -197 83 -174 c 1
 139 -108 168 -75 168 -75 c 4
 175 -84 185 -89 198 -89 c 0
 211 -89 222 -85 232 -76 c 0
 242 -67 248 -57 250 -44 c 0
 252 -33 249 -22 243 -14 c 0
 237 -6 229 0 218 1 c 1
 330 84 l 1
485 397 m 1
 317 342 l 1
 315 350 312 355 307 359 c 0
 302 362 296 364 289 364 c 0
 280 364 273 362 267 358 c 0
 261 354 257 349 257 343 c 0
 257 332 271 325 299 323 c 0
 313 322 322 322 325 321 c 0
 359 315 387 302 408 283 c 0
 445 248 460 204 451 149 c 0
 441 93 411 50 363 20 c 0
 328 -2 284 -12 229 -12 c 0
 183 -11 143 -1 108 18 c 0
 73 37 51 65 44 103 c 1
 214 161 l 1
 218 146 229 139 245 139 c 0
 256 139 264 141 270 144 c 0
 275 147 278 152 278 158 c 0
 278 168 258 175 219 179 c 0
 211 180 206 180 202 181 c 0
 157 189 125 209 106 239 c 0
 87 269 81 304 87 345 c 0
 96 399 121 440 165 468 c 0
 209 496 257 511 309 512 c 0
 359 512 398 502 428 482 c 0
 456 463 475 434 485 397 c 1
EndSplineSet
EndChar

StartChar: Scaron
Encoding: 352 352 283
GlifName: S_caron
Width: 560
Flags: W
HStem: -12 170<240.175 367.747> 508 21G<418.5 496.727> 542 170<300.89 407.572> 754 146<306 371 469 488>
LayerCount: 2
Fore
SplineSet
209 900 m 5
 371 900 l 5
 411 844 l 5
 469 900 l 5
 632 900 l 5
 488 754 l 5
 306 754 l 5
 209 900 l 5
389 712 m 0
 443 712 488 697 526 667 c 0
 564 637 585 599 590 552 c 1
 419 508 l 1
 418 518 413 527 402 533 c 0
 391 539 378 542 362 542 c 0
 343 542 327 538 313 530 c 0
 299 522 291 511 289 496 c 0
 287 486 291 477 300 470 c 0
 312 460 332 453 361 448 c 0
 429 436 482 411 520 373 c 0
 558 335 572 284 562 219 c 0
 552 154 518 98 462 54 c 0
 406 10 343 -12 274 -12 c 0
 217 -12 167 4 127 36 c 0
 87 68 63 109 58 159 c 1
 229 203 l 1
 230 190 238 179 252 171 c 0
 266 163 282 158 301 158 c 0
 324 158 344 163 361 174 c 0
 378 185 389 200 392 219 c 0
 394 234 390 247 378 257 c 0
 364 269 340 278 307 284 c 0
 244 295 194 319 158 354 c 0
 122 389 109 436 119 496 c 0
 129 557 159 609 212 650 c 0
 265 691 324 712 389 712 c 0
EndSplineSet
EndChar

StartChar: scaron
Encoding: 353 353 284
GlifName: scaron
Width: 455
Flags: W
HStem: -12 151<169.484 273.559> 364 148<258.054 361.135> 554 146<239 305 403 422>
LayerCount: 2
Fore
SplineSet
142 700 m 5
 305 700 l 5
 345 644 l 5
 403 700 l 5
 566 700 l 5
 422 554 l 5
 239 554 l 5
 142 700 l 5
485 397 m 1
 317 342 l 1
 315 350 312 355 307 359 c 0
 302 362 296 364 289 364 c 0
 280 364 273 362 267 358 c 0
 261 354 257 349 257 343 c 0
 257 332 271 325 299 323 c 0
 313 322 322 322 325 321 c 0
 359 315 387 302 408 283 c 0
 445 248 460 204 451 149 c 0
 441 93 411 50 363 20 c 0
 328 -2 284 -12 229 -12 c 0
 183 -11 143 -1 108 18 c 0
 73 37 51 65 44 103 c 1
 214 161 l 1
 218 146 229 139 245 139 c 0
 256 139 264 141 270 144 c 0
 275 147 278 152 278 158 c 0
 278 168 258 175 219 179 c 0
 211 180 206 180 202 181 c 0
 157 189 125 209 106 239 c 0
 87 269 81 304 87 345 c 0
 96 399 121 440 165 468 c 0
 209 496 257 511 309 512 c 0
 359 512 398 502 428 482 c 0
 456 463 475 434 485 397 c 1
EndSplineSet
EndChar

StartChar: uni0162
Encoding: 354 354 285
GlifName: uni0162
Width: 621
Flags: W
HStem: -209 120<216.773 304.15> 0 21G<226 399.132> 530 170<131 309 479 685>
LayerCount: 2
Fore
SplineSet
131 700 m 1
 712 700 l 1
 685 530 l 1
 479 530 l 1
 396 0 l 1
 226 0 l 1
 309 530 l 1
 104 530 l 1
 131 700 l 1
394 84 m 1
 429 51 442 8 434 -44 c 0
 427 -89 404 -128 367 -160 c 0
 330 -192 288 -209 243 -209 c 0
 205 -209 173 -197 147 -174 c 1
 203 -108 232 -75 232 -75 c 4
 239 -84 249 -89 262 -89 c 0
 275 -89 286 -85 296 -76 c 0
 306 -67 312 -57 314 -44 c 0
 316 -33 313 -22 307 -14 c 0
 301 -6 293 0 282 1 c 1
 394 84 l 1
EndSplineSet
EndChar

StartChar: uni0163
Encoding: 355 355 286
GlifName: uni0163
Width: 399
Flags: W
HStem: -204 120<207.773 295.15> 0 21G<290.5 374.176> 330 170<92 140 337 423>
LayerCount: 2
Fore
SplineSet
192 656 m 1
 362 656 l 1
 337 500 l 1
 450 500 l 1
 423 330 l 1
 310 330 l 1
 295 235 l 2
 292 217 296 202 307 189 c 0
 318 176 332 170 350 170 c 2
 398 170 l 1
 371 0 l 1
 323 0 l 2
 258 0 207 23 168 69 c 0
 129 115 115 170 125 235 c 2
 140 330 l 1
 65 330 l 1
 92 500 l 1
 167 500 l 1
 192 656 l 1
385 89 m 1
 420 56 433 13 425 -39 c 0
 418 -84 395 -124 358 -156 c 0
 321 -188 279 -204 234 -204 c 0
 196 -204 164 -192 138 -169 c 1
 194 -103 223 -70 223 -70 c 4
 230 -79 240 -84 253 -84 c 0
 266 -84 277 -80 287 -71 c 0
 297 -62 303 -52 305 -39 c 0
 307 -28 304 -17 298 -9 c 0
 292 -1 283 5 272 6 c 1
 385 89 l 1
EndSplineSet
EndChar

StartChar: Tcaron
Encoding: 356 356 287
GlifName: T_caron
Width: 621
Flags: W
HStem: 0 21G<226 399.132> 530 170<131 309 479 685> 754 146<331 397 495 514>
VStem: 226 170<0 170>
LayerCount: 2
Fore
SplineSet
234 900 m 5
 397 900 l 5
 437 844 l 5
 495 900 l 5
 657 900 l 5
 514 754 l 5
 331 754 l 5
 234 900 l 5
131 700 m 1
 712 700 l 1
 685 530 l 1
 479 530 l 1
 396 0 l 1
 226 0 l 1
 309 530 l 1
 104 530 l 1
 131 700 l 1
EndSplineSet
EndChar

StartChar: tcaron
Encoding: 357 357 288
GlifName: tcaron
Width: 460
Flags: W
HStem: 0 21G<290.5 374.176> 330 170<92 140 337 423> 550 150<413 497>
LayerCount: 2
Fore
SplineSet
192 656 m 1
 362 656 l 1
 337 500 l 1
 450 500 l 1
 423 330 l 1
 310 330 l 1
 295 235 l 2
 292 217 296 202 307 189 c 0
 318 176 332 170 350 170 c 2
 398 170 l 1
 371 0 l 1
 323 0 l 2
 258 0 207 23 168 69 c 0
 129 115 115 170 125 235 c 2
 140 330 l 1
 65 330 l 1
 92 500 l 1
 167 500 l 1
 192 656 l 1
367 550 m 5
 413 700 l 1
 563 700 l 1
 497 550 l 5
 367 550 l 5
EndSplineSet
EndChar

StartChar: Tbar
Encoding: 358 358 289
GlifName: T_bar
Width: 621
Flags: W
HStem: 0 21G<226 399.132> 206 170<173 546> 530 170<131 309 479 685>
VStem: 226 170<0 170>
LayerCount: 2
Fore
SplineSet
131 700 m 1
 712 700 l 1
 685 530 l 1
 479 530 l 1
 396 0 l 1
 226 0 l 1
 309 530 l 1
 104 530 l 1
 131 700 l 1
146 206 m 5
 173 376 l 5
 573 376 l 5
 546 206 l 5
 146 206 l 5
EndSplineSet
EndChar

StartChar: tbar
Encoding: 359 359 290
GlifName: tbar
Width: 399
Flags: W
HStem: 0 21G<290.5 374.176> 197 109<64 397> 330 170<92 140 337 423>
LayerCount: 2
Fore
SplineSet
192 656 m 1
 362 656 l 1
 337 500 l 1
 450 500 l 1
 423 330 l 1
 310 330 l 1
 295 235 l 2
 292 217 296 202 307 189 c 0
 318 176 332 170 350 170 c 2
 398 170 l 1
 371 0 l 1
 323 0 l 2
 258 0 207 23 168 69 c 0
 129 115 115 170 125 235 c 2
 140 330 l 1
 65 330 l 1
 92 500 l 1
 167 500 l 1
 192 656 l 1
47 197 m 1
 64 306 l 1
 414 306 l 1
 397 197 l 1
 47 197 l 1
EndSplineSet
EndChar

StartChar: Utilde
Encoding: 360 360 291
GlifName: U_tilde
Width: 706
Flags: W
HStem: -12 170<312.555 449.544> 680 20G<160.806 334 590.806 764> 714 106<527.371 582.109> 786 106<384.959 446.934>
VStem: 164 170<530 700> 594 170<530 700>
LayerCount: 2
Fore
SplineSet
164 700 m 1xcc
 334 700 l 1
 273 318 l 2
 265 269 272 231 292 202 c 0
 312 173 341 158 378 158 c 0
 415 158 447 173 477 202 c 0
 507 231 525 269 533 318 c 2
 594 700 l 1
 764 700 l 1
 703 318 l 2
 688 222 647 143 579 81 c 0
 511 19 435 -12 351 -12 c 0
 267 -12 201 19 153 81 c 0
 105 143 88 222 103 318 c 2
 164 700 l 1xcc
541 714 m 0xec
 500 714 471 726 456 750 c 0
 450 759 445 768 439 775 c 0
 433 782 425 786 414 786 c 0
 399 786 387 773 377 747 c 1
 260 747 l 1
 269 789 290 824 322 851 c 0
 354 878 389 892 425 892 c 0xdc
 470 892 500 880 517 856 c 0
 524 847 529 838 534 831 c 0
 539 824 546 820 556 820 c 0
 570 820 582 833 589 859 c 1
 706 859 l 5
 695 816 674 781 643 754 c 0
 612 727 578 714 541 714 c 0xec
EndSplineSet
EndChar

StartChar: utilde
Encoding: 361 361 292
GlifName: utilde
Width: 579
Flags: W
HStem: -12 170<263.34 371.427> 480 20G<118.875 292 441.818 615> 534 106<437.371 492.753> 606 106<294.959 356.934>
VStem: 122 170<330 500> 445 170<330 500>
LayerCount: 2
Fore
SplineSet
122 500 m 1xcc
 292 500 l 1
 250 236 l 2
 246 213 251 194 263 180 c 0
 275 166 293 158 315 158 c 0
 337 158 355 166 372 180 c 0
 389 194 399 213 403 236 c 2
 445 500 l 1
 615 500 l 1
 575 244 l 2
 564 172 530 111 474 62 c 0
 418 13 356 -12 288 -12 c 0
 220 -12 165 13 125 62 c 0
 85 111 71 172 82 244 c 2
 122 500 l 1xcc
451 534 m 0xec
 410 534 381 546 366 570 c 0
 360 579 355 588 349 595 c 0
 343 602 335 606 324 606 c 0
 309 606 297 593 287 567 c 1
 170 567 l 1
 179 609 200 644 232 671 c 0
 264 698 299 712 335 712 c 0xdc
 380 712 410 700 427 676 c 0
 434 667 439 658 444 651 c 0
 449 644 456 640 466 640 c 0
 480 640 492 653 499 679 c 1
 616 679 l 5
 605 636 583 601 552 574 c 0
 521 547 488 534 451 534 c 0xec
EndSplineSet
EndChar

StartChar: Umacron
Encoding: 362 362 293
GlifName: U_macron
Width: 706
Flags: W
HStem: -12 170<312.555 449.544> 680 20G<160.806 334 590.806 764> 749 151<326 642>
VStem: 164 170<530 700> 594 170<530 700>
LayerCount: 2
Fore
SplineSet
302 749 m 1
 326 900 l 1
 666 900 l 1
 642 749 l 1
 302 749 l 1
164 700 m 1
 334 700 l 1
 273 318 l 2
 265 269 272 231 292 202 c 0
 312 173 341 158 378 158 c 0
 415 158 447 173 477 202 c 0
 507 231 525 269 533 318 c 2
 594 700 l 1
 764 700 l 1
 703 318 l 2
 688 222 647 143 579 81 c 0
 511 19 435 -12 351 -12 c 0
 267 -12 201 19 153 81 c 0
 105 143 88 222 103 318 c 2
 164 700 l 1
EndSplineSet
EndChar

StartChar: umacron
Encoding: 363 363 294
GlifName: umacron
Width: 579
Flags: W
HStem: -12 170<263.34 371.427> 480 20G<118.875 292 441.818 615> 549 151<235 551>
VStem: 122 170<330 500> 445 170<330 500>
LayerCount: 2
Fore
SplineSet
211 549 m 1
 235 700 l 1
 575 700 l 1
 551 549 l 1
 211 549 l 1
122 500 m 1
 292 500 l 1
 250 236 l 2
 246 213 251 194 263 180 c 0
 275 166 293 158 315 158 c 0
 337 158 355 166 372 180 c 0
 389 194 399 213 403 236 c 2
 445 500 l 1
 615 500 l 1
 575 244 l 2
 564 172 530 111 474 62 c 0
 418 13 356 -12 288 -12 c 0
 220 -12 165 13 125 62 c 0
 85 111 71 172 82 244 c 2
 122 500 l 1
EndSplineSet
EndChar

StartChar: Ubreve
Encoding: 364 364 295
GlifName: U_breve
Width: 706
Flags: W
HStem: -12 170<312.555 449.544> 680 20G<160.806 334 590.806 764> 742 119<452.629 539.511>
VStem: 164 170<530 700> 594 170<530 700>
LayerCount: 2
Fore
SplineSet
319 900 m 1
 446 900 l 1
 444 889 447 880 456 872 c 0
 465 864 476 861 490 861 c 0
 504 861 517 864 528 872 c 0
 539 880 546 889 548 900 c 1
 675 900 l 1
 668 856 645 819 606 788 c 0
 567 757 523 742 472 742 c 0
 421 742 380 757 351 788 c 0
 322 819 312 856 319 900 c 1
164 700 m 1
 334 700 l 1
 273 318 l 2
 265 269 272 231 292 202 c 0
 312 173 341 158 378 158 c 0
 415 158 447 173 477 202 c 0
 507 231 525 269 533 318 c 2
 594 700 l 1
 764 700 l 1
 703 318 l 2
 688 222 647 143 579 81 c 0
 511 19 435 -12 351 -12 c 0
 267 -12 201 19 153 81 c 0
 105 143 88 222 103 318 c 2
 164 700 l 1
EndSplineSet
EndChar

StartChar: ubreve
Encoding: 365 365 296
GlifName: ubreve
Width: 579
Flags: W
HStem: -12 170<263.34 371.427> 480 20G<118.875 292 441.818 615> 542 119<356.161 443.045>
VStem: 122 170<330 500> 445 170<330 500>
LayerCount: 2
Fore
SplineSet
222 700 m 1
 349 700 l 1
 347 689 351 680 360 672 c 0
 369 664 380 661 394 661 c 0
 408 661 421 664 432 672 c 0
 443 680 449 689 451 700 c 1
 578 700 l 1
 571 656 549 619 510 588 c 0
 471 557 426 542 375 542 c 0
 324 542 284 557 255 588 c 0
 226 619 215 656 222 700 c 1
122 500 m 1
 292 500 l 1
 250 236 l 2
 246 213 251 194 263 180 c 0
 275 166 293 158 315 158 c 0
 337 158 355 166 372 180 c 0
 389 194 399 213 403 236 c 2
 445 500 l 1
 615 500 l 1
 575 244 l 2
 564 172 530 111 474 62 c 0
 418 13 356 -12 288 -12 c 0
 220 -12 165 13 125 62 c 0
 85 111 71 172 82 244 c 2
 122 500 l 1
EndSplineSet
EndChar

